<?xml version="1.0" encoding="utf-8"?>
<!-- Generator: Adobe Illustrator 26.2.1, SVG Export Plug-In . SVG Version: 6.00 Build 0)  -->
<svg version="1.1"
	 id="svg2" xmlns:cc="http://creativecommons.org/ns#" xmlns:dc="http://purl.org/dc/elements/1.1/" xmlns:inkscape="http://www.inkscape.org/namespaces/inkscape" xmlns:rdf="http://www.w3.org/1999/02/22-rdf-syntax-ns#" xmlns:sodipodi="http://sodipodi.sourceforge.net/DTD/sodipodi-0.dtd" xmlns:svg="http://www.w3.org/2000/svg"
	 xmlns="http://www.w3.org/2000/svg" xmlns:xlink="http://www.w3.org/1999/xlink" x="0px" y="0px" viewBox="0 0 1200 565"
	 style="enable-background:new 0 0 1200 565;" xml:space="preserve">
<sodipodi:namedview  bordercolor="#666666" borderopacity="1.0" id="base" inkscape:current-layer="layer1" inkscape:cx="58.594222" inkscape:cy="316.11183" inkscape:document-units="px" inkscape:pageopacity="0.0" inkscape:pageshadow="2" inkscape:window-height="750" inkscape:window-maximized="1" inkscape:window-width="1280" inkscape:window-x="-8" inkscape:window-y="-8" inkscape:zoom="0.35" pagecolor="#ffffff" showgrid="false">
	</sodipodi:namedview>
<path class="st0" d="M1157.7,106.1l-6.1-11.1l-13.6,4h-11.1l-4.5,4l-8.6-5.1l-9.1,8.1l-9.6,7.1l-17.2-0.5l-9.1-19.7l-9.1-8.6
	l-15.2,0.5l-1.5,4.5l-17.2-12.6l4.5-15.2l-3-24.7l-10.6-10.6l-1,6.1l-4,1.5l-4.5,5.1l-13.6-0.5l-4.5,2l-8.1,1l-14.1-1.5l-2.5,5.6
	L950.3,43v6h-8.6l-8.1,5.6l1.5,14.6l-9.1,7.6l-2.8,11.6l-2,7.3l-13.6,1.5l-6.8,1.3l-6.8-9.8l-1.3-9.8h-11.9l1.8,5.1l-10.4,12.4
	l-6.6,2.5c0,0-8.6,5.3-10.1,5.8s0.8,5.3,0.8,5.3l-5.8,4.3l-2.3,6.8l-9.3-0.3l-4.3,1.3c0,0-14.7,2.2-16.7,1s-1.9,4.1-1.9,4.1
	l-8.6,2.9l-0.7,10l-10,6.4l-2.1,9.3l-14.3,2.1L776,155l-5,10h-7.1v5.7h-8.6l-3.6,0.7l-12.9-9.3l-1.4,10.7l-12.9,6.4l-10.7,15
	l-20-2.9l-2.9-6.4l-13.6-5.7l-7.1-15.7l-12.1-11.4l-17.1,3.6l-2.9-7.1l-21.4,2.1l-7.1-7.1l-17.9,2.1l-9.3-6.4l-12.1,5.7l-12.1,2.9
	l4.3,19.3v20c0,0-16.5,10-18.6,12.9c-1,1.3-5.6-0.1-9.3-1.9c-0.2,0.7,0,1.3,0,1.3l0.7,10.6l-18.6,19.3l0.7,31.4l5.7,8.6
	c0,0,12.2,6.4,15,6.4s1.4,21.4,1.4,21.4s-6.2,0.3-11.1,0.3c4.8,0,10.6-0.3,10.6-0.3s1.5-21.4-1.4-21.4s-15-6.4-15-6.4l-5.7-8.6
	l-0.7-31.4l18.6-19.3l-0.7-10.7c0,0,0.1,0.3,0-1.2c-4.7-2.3-8.5-5.3-8.5-5.3l-16.4,4.3l-30.7,3.6l-20.7-2.9l-21.4-20.7l-16.8-10.4
	l-22.1,1.4l-19.6-6.8l2.1,1.8l-3.6,1.4l8.2,14.3l-2.1,5l6.1,9.6l-4.6,12.1c0,0-13.2-3.9-16.1-5c-2.9-1.1,1.4,8.6,0,9.3
	c-1.4,0.7,11.1,1.8,11.1,1.8l11.9,3.5l9.6-5.1l11.6-2l11.6,6.1h13.1c0,0,4.1,9.6,5.6,11.6s1,6.6,3,7.6s7.6,18.2,7.6,18.2l-1.5,3
	l2.3,1.1c0,0,0,0,0,0.1l-2.2-1.1l-2,0.5c0,0-5.6-3.1-5.6-5.1s-13.6-17.2-13.6-17.2l-3.5,19.2l-14.1-8.1l0.5,7.1l-8.1-3.5l-1.5,4.5
	l-6.6,3.5l-7.1,4l5.6,8.1l-1.5,17.7l1.5,3l26.3,10.6l7.6,12.1l-7.1,15.7l6.1,7.1l2.5,6.1l2.4,6.6l-2.5,14.6l6.6,6.1l9.1-4l8.1,4
	l8.6,1.5l2,4l1.5,12.1l-2.5,8.1l7.1,3.5l2,1l4-6.6l8.6-1.5l9.1,11.6l14.1-1l7.6,16.7l-2.5,20.7l3-4.5l12.1-9.6l3-7.6
	c0,0-6.6-7.6-8.1-9.6s5.1-4.5,5.1-4.5l9.1-1.5l10.1,7l10.6,6.1l8.1-6.1l7.6-1l10.6-10.1l15.5-10.2l10.1,8.6l7.1,0.5l9.6,3l16.7-1
	l-0.5-8.1l4.5-0.5l4.5-4.5l3.5-4.5l9.6-16.2l10.6-12.1l10.1-3.5l5.6,16.7l6.6-13.1l11.6-1.5l2,4.5l10.6-8.1l9.1-3.5l5.6-4l9.6-7.1
	l6.6-1.5l7.1-20.2l15.2-5.1l34.9,1.5l13.6-19.7l13.1-0.5l9.9-13.1l12.6,12.6l7.6,2.5l12.6-11.1l12.1,0.5l13.1-8.1l19.2,12.1l7.1-4.5
	l10.6-22.2l14.6-4.5l5.6,8.1l6.1,2.5l10.1,6.1l10.1,3l9.1-8.1l5.1,1.5h10.1l8.1,4.5l4-1.5l11.6,3.5l12.1,6.6l5.1-13.1l6.1-10.6
	l6.6,0.5l12.1-9.6l7.1,1.5l7.6-7.1l-3-28.8l8.1-3.5l4-5.6l5.6,1l7.1-10.6l3.5-12.1l20.7,0.5l10.6-12.1l-1.5-6.6l4.5-13.6l-3-10.1
	l7.6-14.1l7.1-3.5l4.5-7.1L1157.7,106.1z M523.1,346.4l13.6,6.4v0L523.1,346.4L523.1,346.4z M538.2,346c0,0.2,0,0.4,0,0.6
	C538.2,346.4,538.2,346.2,538.2,346z M538.1,347.6c0,0.2-0.1,0.5-0.1,0.7C538,348,538,347.8,538.1,347.6z M537.7,349.6
	c0,0.1,0,0.2-0.1,0.2C537.6,349.7,537.7,349.6,537.7,349.6z M487.6,352l-16.1-7.3l0-0.1l16,7.3l15.9-6.1l1.1-1.6l-5.4-12l16.4-10.7
	c0,0,4.2-25,7.1-24.3c0.1,0,0.1,0,0.2,0c-2.8,1.1-6.8,24.3-6.8,24.3l-16.4,10.7l5,12.1l0,0l-1.1,1.6L487.6,352z"/>
<path id="path3778" sodipodi:nodetypes="csscsscccccccscsccccccssc" class="st0" d="M453.2,251.6L453.2,251.6L453.2,251.6
	c0.6,0.8-1.6,2.9-1.6,3.1l-1.9,0.4c0,0-5.6-3.1-5.6-5.1s-13.6-17.2-13.6-17.2L427,252l-14.1-8.1l0.5,7.1l-8.1-3.5l-1.5,4.5l-6.6-0.5
	c0,0-7.1-3-9.1-3s3.5-14.6,3.5-14.6s-2.5-4-5.1-5.6s-4.4-13.8-4.4-15.8l8.9,2.7l9.6-5.1l11.6-2l11.6,6.1H437c0,0,4,9.6,5.6,11.6
	c1.5,2,1,6.6,3,7.6S453.2,251.6,453.2,251.6L453.2,251.6z"/>
<path class="st0" d="M314,365.1l0.5-3l1-4l2.5-2.5l-0.4-4.3l-2.4,3l-16-2.8l-0.6-7.8l-9.8-1.9l-5.3-5.8c0,0-6.4,3.1-8,3.4l-1.7,9.1
	l-2.6,0.7l-0.3,1.8l3.6,6.3l-0.9,2.3l4.6-0.1l3,2.7l3.3,1l-0.7,2c0,0-1.1,6.2-1.6,6.8c-0.5,0.6,0.6,0.7,0.6,0.7l0.4-0.4l-0.6,0.6
	c0,0-1.1-0.2-0.6-0.8c0.5-0.6,1.6-6.8,1.6-6.8l0.7-2l-3.3-1l-3-2.7l-4.6,0.1l0.9-2.3l-3.6-6.3l0.4-2l2.6-0.7l-6.8-0.6l-5.7,10.3
	l0.7,0.1l-1.7,3.3l0.3,5.4l-4.8,0.6l2.3,4.4l2.6-0.6l2.6-0.1l1,0.7l-2.1,7.5l0.6,3.3c0,0,1.1,0.6,2,1c0.9,0.4,3,0,3,0l2.6,4.6l5,1
	l10.3-4l6.3-3.6l0.4,0.4l0.2-0.2l3.2,6.8l-2,4l1,4.6l1.9,0.7l1.5-6.6h9.6l8.6-1.5l8.6-17.2l0.5-9.6L314,365.1z M288.1,367.7l0.1-0.1
	l5.1,3.8c0,0,1.6,1.6,2.4,1.6l0,0c-0.6,0.5-2.6-1.5-2.6-1.5L288.1,367.7z M311.3,363.3c-1,0-5.8-2.4-7.6-2.5
	c1.7-0.1,6.8,2.5,7.8,2.5l2.5,1.8l-0.2,0L311.3,363.3z"/>
<g>
	<path class="st0" d="M462.8,408.4l10.6-10.6l-2-1l-7.1-3.5l2.5-8.1l-1.5-12.1l-2-4l-8.6-1.5l-8.1-4l-9.1,4l-6.6-6.1l2.5-14.6
		l-2.5-6.6l-4.5-1l-2,4.5l-12.6,1l-13.6-3l-8.6,10.6l-18.2,1.5v-0.3l18.2-1.5l8.6-10.6l13.6,3l12.6-1l2-4.5l4.6,0.9l-2.5-5.9
		l-6.1-7.1l7.1-15.7l-7.6-12.1l-26.3-10.6l-1.5-3.1l-0.2,0l1.5-17.7l-5.6-8.1l7.3-4l6.5-3.5l-6.5-0.5c0,0-7.1-3-9.1-3
		s3.5-14.6,3.5-14.6s-2.5-4-5.1-5.6c-2.6-1.6-4.4-13.3-4.4-15.3s-12.2-0.8-12.2-0.8l-0.3-0.1l9.5-0.4c0,0-12.5-1.1-11.1-1.8
		c1.4-0.7-2.9-10.4,0-9.3c2.9,1.1,16.1,5,16.1,5l4.6-12.1l-6.1-9.6l2.1-5l-8.2-14.3l3.6-1.4l-2.1-1.8l-22.5-20L340,127.9
		c0.2-0.1-8.5-2.4-9.7-2.7l-0.1-0.1l-28.7-7.7c0,0-0.1,0-0.3,0.1l-5.5-17.4L275,93l-10.7-23.6l-15.7-3.6l-26.1-33.9L215,44.4
		l-9.6,10l-13.8,12.8c0-0.1,0-0.2,0.1-0.2l-4,3.6l-5,18.9l-4.6,14.3l-8,7l1.8,4.6l-3.8,2c0,0,0.9,4.8-0.4,5.9
		c-1.2,1.1-13.6,13.9-13.6,13.9l-5.7,7.9c0,0-6,3.5-8,4c0.2,0,0.4,0,0.6,0c-0.3,0-0.6,0-1,0.1c0.1,0,0.2,0,0.3-0.1
		c-0.7,0-0.9,0.1-0.5,0.1c-0.1,0-0.1,0-0.2,0c-1.5,0,1.2,18.9,1.2,18.9l-6.2,16.4c0,0-11.8-5.5-12.5-5.9c-0.7-0.4-2,1.8-2,1.8
		l-3.9-2.4l-2.9-0.6l-2.6,0.2l-5.9,9.8c0,0-3.2,7.4-5,8.1c-1.8,0.7,5.6,1.6,5.6,1.6l-7.4,2.1l3.5,4.6h7.7l11.6-4.2l-0.4,6.7
		l-13.4,1.1l-1.2,3.2l3.2,2.5l14.3,9.6l2.5,7.5l27.1,6.4l4.6-1.4l3.2-1.8l7.1-4.6l6.8-3.2l0.1,0.1l-6.7,3.2l-7.1,4.6l-4,2.2l-4,1.2
		l-27.1-6.4l-2.5-7.5l-14.2-9.8l-3.2-2.5l4.9,7.7l-3.2,8.4l1.1,1.8l-3.2,7l-3.2-2.5l4.6-17.2l-4.7,0.4l-5.2,4.5l-1.4,3.9l-0.7,8.1
		h-2.5l-1.4,2.1l2.1,0.4v2.5l-1.8-1.1l-2.1,6.3l3.5,1.1l0.7,4.6c0,0-3.9-3.2-5.3-4.2c-1.4-1.1-8.1,15.5-8.1,15.5l6,4.6l0.1,0.3
		l-2.7,7.5l-10.6-10.2L63,284l-4.9-2.8l1.8-8.1l0.4-2.8l8.8-19.4l3.5-3.5l7.7,3.9l12.4-27.5l-3.4-1.4l7.4-12.2l-5.7,0.1l-10.7,20.5
		l-5.6-2.5c0,0-5.6,9.2-5.6,11.3c0,2.1,2.5,2.1,2.5,2.1l-12,26L55.7,279l-6,2.8l-3.2,9.5c0,0-6.3-1.1-7.7-1.1
		c-1.4,0,29.2,10.2,29.2,10.2l0.4,4.9l7.6,3.3l14.1,6.1c-0.1,0.3,5.1,15.8,4.9,13.6c-0.1-0.9,3.5-1.3,3.9-0.5
		c6.1,1,16.8,2.1,16.8,2.1l13.2,6.4l-0.1,0l-13.2-6.4c0,0-10.7-1-16.8-2.1c-6.1-1.1-3.2,2.6-3.2,4.6s15.7,27.3,15.7,27.3l-1.5,12.6
		l9.6,16.2l7.6,0.5l8,10l25.8,10.6l14.6-1l4.5-4l3-4l-4.5-6.1l6.1-6.1l-1.5-11l0.1,0.1l1.5,10.9l-6.1,6.1l4.5,6.1l-3,4l-4.5,4
		l34.3,7.1l3,20.2l13.6,13.1l-1.5,20.7l2.5,16.2V499l5.6-4c0,0,11.5,9.9,15,9.9s2.5-7.6,2.5-7.6l3-5.1l0.4-0.3
		c0.5,0.4,21.8,19.2,25.3,20.2c3.5,1,32.3,14.6,32.3,14.6l12.1-2l21.7-3l20.2,11.6c0,0,21.7-9.1,23.7-9.1s4.5-9.6,4.5-9.6l13.1-12.1
		l13.1-14.1l0,0.4l4-12.6L438,457l18.2-8.1v-20.7l6.1-6.1l-3-7.1l4.5-0.5L462.8,408.4z M278.9,408.1l-8.1-1L278.9,408.1L278.9,408.1
		z M265.2,427.8L265.2,427.8l-2.9-0.9l0,0l0-0.1L265.2,427.8z M257.4,429.8l3.7,2l0.1,0.1l-4-2L257.4,429.8z M268.3,416.2
		L268.3,416.2l3,8.1L268.3,416.2z M294.9,397.4l-1-4.6l2-4l-3.1-6.3l-0.5-0.5l-6.8,3.4l-10.3,4l-5-1l-2.6-4.6c0,0-2.1,0.4-3,0
		c-0.7-0.3-1.5-0.7-1.9-0.9l0.1-0.2l-0.6-3.3l2.1-7.5l-1-0.7l-2.6,0.1l-2.6,0.6l-2.3-4.4l4.8-0.6l-0.3-5.4l1.7-3.3l-0.7-0.1l-7,2.4
		l-4-3.4l-6.8,3.4c0,0-2.8-3.9-2.8-6.8c0-0.5-0.3-0.6-0.7-0.5c0.5-0.2,0.9-0.1,0.9,0.4c0,2.8,2.8,6.8,2.8,6.8l6.8-3.4l4,3.4l6.8-2.3
		l5.7-10.3l6.8,0.6l2.1-9.2c1.6-0.5,7.5-3.4,7.5-3.4l5.3,5.8l9.8,1.9l0.6,7.8l16,2.8l2.7-3.2v-4L334,353l19.7-1.5l17.7-3v0.3
		l-17.7,3l-19.7,1.5l-16.2-6.1v4v4.5l-2.5,2.5l-1,4l-0.5,3l11.6-1.6l-0.5,9.6l-8.6,17.2l-3,2.5l-1,10.6c0,0,0,0,0,0l1-11.1l3-2.5
		l-8.6,1.5h-9.6l-1.5,6.6L294.9,397.4z M257,396.4C257,396.4,257,396.4,257,396.4L257,396.4C257,396.4,257,396.4,257,396.4z
		 M248.4,402.8l0,0.1l-5.1-3.2l0.1-0.1L248.4,402.8z M185.4,340c-0.6,0-3.6,0.4-6.6,0.8c1.7-0.3,4.8-0.9,6.8-0.9c2.9,0,12,8,12,8
		l9.7-2.3l19.9,9.1l3.4,6.2c-0.1,0.1-0.2,0.2-0.2,0.2l-3.4-6.3l-19.9-9.1l-9.7,2.3C197.4,348,188.2,340,185.4,340z M183,318.7
		L183,318.7l5.6,5.6L183,318.7z M371.4,285.6c0,0.1-0.1,0.4-0.4,0.6C371.2,286,371.3,285.8,371.4,285.6c-0.1-1.4-7.6-6-7.6-6l0.3,0
		C365.3,280.4,371.4,284.3,371.4,285.6z M367.4,298.1l-0.2,0.1l-8.8-4.3c0,0,0.1,0,0.1-0.1L367.4,298.1z M172.2,341h4.5
		c-2.1,0.2-3.9,0.4-4.5,0.4L172.2,341z M224.5,259.6l-10,4.3l-10.3-4.2l0.1-0.2l10.4,4.3L224.5,259.6L224.5,259.6z M342.7,282.5
		L342.7,282.5l8.4-2.1l7.9-4.3l0.1,0l-7.8,4.3L342.7,282.5z M305.6,270.6L305.6,270.6l0.3-0.3L305.6,270.6z M311.9,276.7l10.6-13.8
		l0.1,0.2L312,276.8L311.9,276.7z M277.1,332.4L277.1,332.4l-8.4-2.2l0-0.1L277.1,332.4z M313.8,318.6c-0.3-1.7-2.3-13.7-1.2-14.4
		c-0.9,1.4,1.3,14.5,1.3,14.5L313.8,318.6z M345.5,308.2L345.5,308.2l-3.1,6h0L345.5,308.2z M353,301.8L353,301.8l0.1,8.8l-0.1,0
		V301.8z M326.9,209.1c0,0.2-0.1,0.5-0.2,0.9l0.3-1.5l2-1.3L326.9,209.1z M329,207.2L329,207.2l1.4,0.1L329,207.2z M295.5,261.6
		l8.9,6.1l0,0l-8.9-5.9l-6.4-1.8l-0.1,0.6l0.1-0.8L295.5,261.6z M281.5,294.6l-4.2,2.8L281.5,294.6L281.5,294.6z M273,300.2l0.2,0.6
		l-0.5-0.8l0.2,0.3L273,300.2z M171.9,340.7l-4.9-1.2l4.9,0.9V340.7z M170.2,355.6C170.2,355.7,170.2,355.7,170.2,355.6
		c0,0.1-2.5,0.1-3.7,1.3C167.6,355.7,169.8,355.6,170.2,355.6z M325.4,412.6c0,0,0.5-2.4,0.5-4.4C326,409.8,325.7,411.8,325.4,412.6
		L325.4,412.6z M370.5,280.8l-1-0.5l-0.7-0.4L370.5,280.8z M312,158.1c0,0,2.9-7.9,2.9-9.3s13.9,3.2,13.9,3.2l4.3-23.8l0,0
		l-4.3,23.9c0,0-13.9-4.6-13.9-3.2c0,1.4-2.9,9.3-2.9,9.3l-17.5,4.6c0,0-36.1,6.4-36.8,8.6c-0.7,2.1-8.6,16.8-8.6,16.8l0.7,0.8
		l-0.8-0.7c-0.7-0.1-1,1.3-1.6,1.1l-10,16.1l6.4,7.9l7.9,4.6l-11.8,14.6l-1.1,4.3l5.7,17.5l5.4-1.4l10-7.5l21.4,8.9l1.4,10.7
		l3.9-1.4l2.1-0.3l0,0.1l-2,0.4l-4,1.4l-1.4-10.7l-21.4-8.9l-10,7.5l-5.4,1.4l-5.7-17.5l-3,0.9l3-1.3l0.8-3.4l-3.8,2.4l-0.2,0
		l3.9-2.9l11.8-14.6l-7.9-4.6l-6.4-7.9l10-16.1l1.3-1.3l-2-1.2l-24.3-15l-10.7-3.6l-2.9,0.7l-17.1,0.4l17.1-0.4l1.5-0.4
		c0.2-0.4-0.1-1.3,0.3-1.7l2.9-15.7l7.9-6.1l0,0l-7.6,5.9l-2.9,15.7l-0.1,1.4l1.2,0.1l10.7,3.6l24.3,15l2.5,1.1
		c0,0,7.9-14.7,8.6-16.8c0.7-2.2,36.8-8.6,36.8-8.6L312,158.1z M239.4,101.9l-18.2-1.1l-6.4,3.9l-5.4,16.4h-7l-0.1-0.1h7.1l5.4-16.4
		l6.4-3.9l18.2,1.1L239.4,101.9z M194.9,136l6.4-3.2l8.8,1.8l0.1,0.1l-8.9-1.8L194.9,136L194.9,136z M301.1,117.6
		c-1.1,0.4-4.3,1.7-6.8,2.7C297.1,119.1,300.4,117.6,301.1,117.6z M253.8,121.6c0.2,0.3,4.3,5.4,5.7,6.8c0.3,0.3,0.2,0.5-0.2,0.6
		c0.1-0.1,0.1-0.3-0.1-0.4c-1.4-1.4-5.7-6.8-5.7-6.8L253.8,121.6z M243.3,127.6c-1.3,1.3-2.4,7.2-2.4,7.2l-3.9,10.7l-0.2,0l3.8-10.5
		C240.6,135,242,128.1,243.3,127.6z M193.6,68.4c-1.5-0.3-1.9-0.7-2-1L193.6,68.4z M147.4,149.9c-1.3-0.2-2.3-0.4-3.1-0.5
		c1,0.1,2.1,0.3,3.4,0.5c3.6,0.6,12,0.8,18.3,0.8C159.6,150.7,151,150.6,147.4,149.9z M173.8,150.6c0.2,0,0.3,0,0.3,0l8.2,13.2
		l1.8-1.4l8.6-11.4l0.4-11.1l7.4,2.5l0.1,0.1l-7.5-2.5l-0.4,11.1l-8.6,11.4l-1.4,1.3l1.8,0.4l6.4,5.4h0l-6.8-5.4l-2.1-0.4
		L173.8,150.6z M179.3,225.7l-3.7,0.7l-0.1-0.1L179.3,225.7z M161.4,309.9h11.4l10.4,5l0.6-3.4l-0.8,7.2l0.1-3.8l-10.3-4.7h-11.4
		L160,302l-13.6-5.4l0.1-0.3l13.5,5.4L161.4,309.9z M149.8,335.4l-2-0.5l0.1,0L149.8,335.4z M154.4,239.7l-1,4.8l0,0L154.4,239.7
		L154.4,239.7z M146.7,249.6l4.9,5.6l-0.2,0.2l-4.9-5.6L146.7,249.6z M139,269.4L139,269.4l-2,12.2l2.9,1.8l7.9,10l-0.1,0.2
		l-7.8-9.9l-7.9-4.4l4.9,2.6L139,269.4z M87.4,266.9l-0.1-0.1c1.3-0.3,4.3,1,6.6,2.2C91.5,267.8,88.6,266.5,87.4,266.9z
		 M102.8,276.2L102.8,276.2l28.7,2.8l0.2,0.1L102.8,276.2z M178,378.6c1.6-0.7,3.2-1.6,4.6-1.4l0.3,0.1L178,378.6z M202.3,390.4
		l-4.9-3.8l5.1,3.8H202.3z M212.9,390.4h0.2l2,15.2l-0.2,0L212.9,390.4z M224,404.1l0.2,0l7.5,9l-0.1,0.1L224,404.1z M244.1,410.2
		L244.1,410.2l13,1.4l0,0.1L244.1,410.2z M255,491.2v-6.1l0.4,0.3v5.5L255,491.2z M268.1,484.2l-5.6,5.1l0,0l5.2-4.8l1-21.2
		l-12.6-6.6l-0.5-12.1l-3.5-16.2l0.5,0.1l3.4,15.8l0.5,12.1l12.6,6.6L268.1,484.2z M266.8,438L266.8,438l15.6,0.4l0.1,0.1L266.8,438
		z M346.1,442.5l-11.6-2l-14.1-1l-13.1,3l-5.1,11.1l-11.6-0.5l-0.1-0.1l11.6,0.5l5.1-11.1l13.1-3l14.1,1l11.6,2l5.6-1.5l4,1l2-3.4
		l0.1,0.4l-1.8,3.1l-0.2,0l-4-1L346.1,442.5z"/>
	<path class="st0" d="M191.7,67l0.5-0.5C192.2,66.5,191.9,66.7,191.7,67z"/>
</g>
</svg>
