<svg xmlns="http://www.w3.org/2000/svg" viewBox="0 0 78 115.03"><defs><style>.cls-1,.cls-4,.cls-5{fill:#534741;}.cls-1{stroke:#736357;stroke-miterlimit:10;stroke-width:3px;}.cls-2{fill:#fff;}.cls-3{fill:#d3628a;}.cls-5{font-size:18px;font-family:KozGoPro-Bold-90ms-RKSJ-H, Kozuka Gothic Pro;letter-spacing:0.03em;}</style></defs><g id="圖層_2" data-name="圖層 2"><g id="圖層_1-2" data-name="圖層 1"><rect class="cls-1" x="1.5" y="1.5" width="75" height="75" rx="19.06"/><circle class="cls-2" cx="38.35" cy="40.39" r="18.53"/><path class="cls-3" d="M39.2,59c-.76.2-.76.77-1,1.2-3.24,6.6-10.43,9-16.53,5.52A11.79,11.79,0,0,1,18,48.48c1.2-1.71,1.4-2-.86-2.84a11.22,11.22,0,0,1-6.87-14.29c1.94-6.31,8-9.92,13.86-8,2.52.81,3.26.52,3.32-2.31.1-5.4,5.31-10.19,10.77-10.36,6.69-.2,12.25,4.15,12.68,10.43.18,2.73.87,2.8,3.15,2.11,5.5-1.65,12.23,2.35,13.81,8,1.78,6.31-1.46,12.8-7.34,14.62-1.17.36-2.79.21-1.12,2.09,3.47,3.9,4,8.32,1.65,12.88-2.29,4.4-6,6.56-11.13,6.41S41.66,64.4,39.64,60C39.48,59.68,39.34,59.35,39.2,59Zm-.94-28.32a11.91,11.91,0,0,1,0,1.71c-.16,1,.61,2.38-.77,3s-2-.64-2.86-1.25c-2.41-1.66-4.85-3.26-7.28-4.89a1.5,1.5,0,0,0-1.94-.08,1.25,1.25,0,0,0-.28,1.07,1.3,1.3,0,0,0,1.35,1c3,0,4.86,2.26,7.13,3.67.6.36,1.62.88,1.16,1.85s-.91,2-2.17,1.77c-2.92-.52-6.08-.38-8.43-2.67-.63-.61-1.18-1.13-2.07-.58a1.23,1.23,0,0,0-.66,1.26c.14,1,.84,1.22,1.72,1.39,3,.57,5.9,1.23,8.85,1.82.6.13,1.24.13,1.33.93A1.3,1.3,0,0,1,32.66,42c-2.58,1.71-5.12,3.5-7.8,5-.9.52-1.57,1-1.48,2A1.81,1.81,0,0,0,25,50.57a1.72,1.72,0,0,0,2.06-1.4c.37-3.18,3-4.06,5.17-5.44.69-.44,1.51-1.24,2.45-.39s.29,1.63,0,2.49c-.81,2.49-1.53,5-2.3,7.5-.24.76-.22,1.45.52,1.84a1.21,1.21,0,0,0,1.55-1.68c-1-2.68.56-4.88,1.35-7.22s2.25-1.39,2.73-.2c1,2.55,2.06,5.28.88,8.1-.34.81-.7,1.48,0,2.18a1.23,1.23,0,0,0,1.65.13c.92-.62.4-1.39.26-2.17-.46-2.57-.85-5.16-1.24-7.74-.12-.81-.16-1.65.66-2.18a1.09,1.09,0,0,1,1.57.43c1.58,2.52,4.73,4.28,3.89,8a1.6,1.6,0,0,0,1.33,2,1.78,1.78,0,0,0,1.56-3.11c-2.43-1.46-2.64-4.49-4.62-6.25-.4-.36-.87-1-.51-1.62.46-.77,1.25-.39,1.92-.26,2.36.45,4.74.88,7.1,1.35a1.65,1.65,0,0,0,1.78-.85,1,1,0,0,0-.09-1.36c-.59-.61-1.19-.43-1.92-.15-3,1.13-5.88.17-8.67-.85-1.41-.51-.87-1.36.08-1.93,2.31-1.37,4.49-3.19,7.53-2a1.59,1.59,0,0,0,2.18-1.09A1.78,1.78,0,0,0,51,34.89c-1.77,2-4.55,2-6.67,3.35-1.26.81-2.06-.1-1.78-1.32a12.1,12.1,0,0,1,4.35-7.34c.63-.47,1.61-.53,1.42-1.6a1.21,1.21,0,0,0-1.1-.9c-1-.15-1.32.45-1.74,1.26-1.16,2.23-2.51,4.37-3.79,6.54-.29.49-.5,1.22-1.3,1a1.3,1.3,0,0,1-.85-1.46c.33-2.37-1.11-5,1.37-7.08a1.87,1.87,0,0,0-.12-2.73,1.64,1.64,0,0,0-2-.38,1.78,1.78,0,0,0-.93,2.54C38.48,28.11,38.19,29.52,38.26,30.72Z"/><polygon class="cls-4" points="33.55 90.23 44.45 90.23 39 80.79 33.55 90.23"/><text class="cls-5" transform="translate(18.38 107.76)">梅 花</text></g></g></svg>