<svg xmlns="http://www.w3.org/2000/svg" viewBox="0 0 78 115.03"><defs><style>.cls-1,.cls-3,.cls-4{fill:#534741;}.cls-1{stroke:#736357;stroke-miterlimit:10;stroke-width:3px;}.cls-2{fill:#f2aac5;}.cls-4{font-size:18px;font-family:KozGoPro-Bold-90ms-RKSJ-H, Kozuka Gothic Pro;letter-spacing:0.03em;}</style></defs><g id="圖層_2" data-name="圖層 2"><g id="圖層_1-2" data-name="圖層 1"><rect class="cls-1" x="1.5" y="1.5" width="75" height="75" rx="19.06"/><path class="cls-2" d="M65.65,27.84a12.39,12.39,0,0,0-7.37-2.78c-4.88,0-8.84,3.83-11.3,7a35.78,35.78,0,0,0-3.83,6.24l.75,2.17a36.32,36.32,0,0,0,5.27,2.1,25.48,25.48,0,0,0,7.47,1.27c6,0,9.82-3,11.45-9L63,32.7Z"/><path class="cls-2" d="M42.54,43.73l-1.85,1.35A36.44,36.44,0,0,0,40.2,51c0,7.13,2.14,15.62,12.33,15.62h.54l.63-5.49,5.42,1.11c1.24-3.44,1.26-6.51,0-9.12-2-4.29-7-6.7-10.81-8A37.57,37.57,0,0,0,42.54,43.73Z"/><path class="cls-2" d="M37.84,36.09h2.29a36.42,36.42,0,0,0,4.38-5.24c2.13-3.12,4.48-7.77,3.57-12.21-.57-2.77-2.37-5.21-5.36-7.24L39,15.48,35.25,11.4c-3,2-4.8,4.5-5.37,7.29C29,23.22,31.44,28,33.66,31.13A37,37,0,0,0,37.84,36.09Z"/><path class="cls-2" d="M35.33,43.73A36.6,36.6,0,0,0,29.88,45c-3.95,1.26-9.08,3.67-11.14,8-1.24,2.62-1.24,5.71,0,9.17l5.42-1.11.63,5.49h.55c4.65,0,8-1.77,10.06-5.27A21,21,0,0,0,37.67,51a36.46,36.46,0,0,0-.48-5.9Z"/><path class="cls-2" d="M31.27,32.42c-2.51-3.36-6.56-7.36-11.55-7.36a12.36,12.36,0,0,0-7.37,2.78L15,32.7,9.91,34.9c1.63,6,5.47,9,11.45,9a25.53,25.53,0,0,0,7.72-1.35,35.05,35.05,0,0,0,5-2l.75-2.17A36.53,36.53,0,0,0,31.27,32.42Z"/><polygon class="cls-3" points="33.55 90.23 44.45 90.23 39 80.79 33.55 90.23"/><text class="cls-4" transform="translate(18.38 107.76)">櫻 花</text></g></g></svg>