<svg xmlns="http://www.w3.org/2000/svg" viewBox="0 0 78 115.03"><defs><style>.cls-1,.cls-5,.cls-6{fill:#534741;}.cls-1{stroke:#736357;stroke-miterlimit:10;stroke-width:3px;}.cls-2{fill:#fdf2dd;}.cls-3{fill:#fd9c59;}.cls-4{fill:#ab9280;}.cls-6{font-size:18px;font-family:KozGoPro-Bold-90ms-RKSJ-H, Kozuka Gothic Pro;letter-spacing:0.03em;}</style></defs><g id="圖層_2" data-name="圖層 2"><g id="圖層_1-2" data-name="圖層 1"><rect class="cls-1" x="1.5" y="1.5" width="75" height="75" rx="19.06"/><path class="cls-2" d="M50.09,45.5a14.87,14.87,0,0,1-1.57,6.11,59.4,59.4,0,0,1-7.15,11.75,2.87,2.87,0,0,1-4.68.08,53.38,53.38,0,0,1-8-13.83A10.35,10.35,0,0,1,28,44a2.61,2.61,0,0,1,2.6-2.33,28.93,28.93,0,0,1,5.66.06,72.24,72.24,0,0,0,7.79-.12,13.37,13.37,0,0,1,3.79.16,2.64,2.64,0,0,1,2.25,2.75C50.11,44.83,50.09,45.17,50.09,45.5Z"/><path class="cls-2" d="M69,20.09c1.13,0,1.8.39,1.89,1.21a2.41,2.41,0,0,1-.28,1.34A71.63,71.63,0,0,1,61.21,38a17.38,17.38,0,0,1-1.85,1.79.55.55,0,0,1-.81,0,21.33,21.33,0,0,0-6.63-3.38c-.18-.05-.34-.12-.3-.38a18.77,18.77,0,0,0-1.23-8.56,22.87,22.87,0,0,0-.81-2.19c-.23-.5-.07-.7.35-.92a32.2,32.2,0,0,1,7.41-2.5A91,91,0,0,1,68.7,20.09C68.8,20.08,68.91,20.09,69,20.09Z"/><path class="cls-2" d="M9,20.07c2.61.23,5.2.56,7.78,1a52.5,52.5,0,0,1,8.62,2.15,27.83,27.83,0,0,1,2.63,1.14c.44.22.54.45.35.94a30.73,30.73,0,0,0-1.95,6.58,14.39,14.39,0,0,0-.1,4c0,.3,0,.42-.31.5a21.43,21.43,0,0,0-6.36,3.22.86.86,0,0,1-1.28-.06,34.39,34.39,0,0,1-5.81-7.39,91.08,91.08,0,0,1-5-9c-.1-.21-.21-.42-.29-.63C6.7,20.93,7.32,20,9,20.07Z"/><path class="cls-2" d="M35.38,38.6c-.58,0-1.17.07-1.74.13a.63.63,0,0,1-.69-.38,4.24,4.24,0,0,0-3.44-2.3c-.34,0-.39-.2-.43-.48a13,13,0,0,1,.49-5.07A49.33,49.33,0,0,1,34.2,19.55c.79-1.47,1.67-2.9,2.52-4.35a5,5,0,0,1,.44-.69C38.35,13,39.87,13,41,14.72a73.35,73.35,0,0,1,5.56,10.43,30.23,30.23,0,0,1,2.27,7.13,10.46,10.46,0,0,1,.11,3.35c0,.28-.14.39-.42.41A4.36,4.36,0,0,0,45,38.39a.54.54,0,0,1-.58.34c-.6-.06-1.2-.09-1.8-.14a16.91,16.91,0,0,1,.1-2A26,26,0,0,1,43.78,31c.22-.69.32-1.48,1.24-1.81.65-.22.9-1.25.68-2A1.55,1.55,0,0,0,44.37,26a1.71,1.71,0,0,0-1.81,2.25,1.47,1.47,0,0,1,0,1,26.45,26.45,0,0,0-1.65,9.11,1,1,0,0,1-1,0V34.91a.17.17,0,0,0,0-.12q0-4,0-7.92a1.61,1.61,0,0,1,.38-1.14,1.86,1.86,0,0,0-.37-2.63,1.61,1.61,0,0,0-2.21.46,1.85,1.85,0,0,0,.1,2.22,1.34,1.34,0,0,1,.34,1c0,2.62,0,5.24,0,7.85a.17.17,0,0,0,0,.12v3.58a.9.9,0,0,1-1,0,19.67,19.67,0,0,0-.24-3.25,25.83,25.83,0,0,0-1.38-5.85,1.25,1.25,0,0,1-.06-.93,1.87,1.87,0,0,0-.51-1.88,1.93,1.93,0,0,0-2.07-.15,1.92,1.92,0,0,0-.61,1.82,1.68,1.68,0,0,0,1,1.33,1.18,1.18,0,0,1,.59.64A25.56,25.56,0,0,1,35.38,38.6Z"/><path class="cls-2" d="M49.48,55.94A39.89,39.89,0,0,0,52,50.09a13.72,13.72,0,0,0,.7-6.29,5.37,5.37,0,0,0-2.47-4.09c.23-.77.72-.69,1.3-.49a25.23,25.23,0,0,1,6.5,3.65A89.46,89.46,0,0,1,68,51.42a3.43,3.43,0,0,1,.8,1.12,1,1,0,0,1-.45,1.39,6.61,6.61,0,0,1-2.26.66A91.58,91.58,0,0,1,55.78,56,34,34,0,0,1,49.48,55.94Z"/><path class="cls-2" d="M28.52,56A51.92,51.92,0,0,1,18,55.53c-2.41-.3-4.8-.67-7.18-1.17-.68-.15-1.48-.29-1.7-1.08s.36-1.35.87-1.85A74.94,74.94,0,0,1,23,40.85a17.84,17.84,0,0,1,3.48-1.64c.59-.21,1-.23,1.25.5-1.9,1.2-2.5,3.1-2.57,5.27-.11,3.28,1.09,6.19,2.42,9.07C27.85,54.67,28.18,55.28,28.52,56Z"/><path class="cls-3" d="M38.14,38.36V34.78l0,0a.41.41,0,0,0,0-.09c0-2.61,0-5.23,0-7.85a1.34,1.34,0,0,0-.34-1,1.85,1.85,0,0,1-.1-2.22,1.61,1.61,0,0,1,2.21-.46,1.86,1.86,0,0,1,.37,2.63,1.61,1.61,0,0,0-.38,1.14q0,4,0,7.92l0,0a.36.36,0,0,0,0,.09v3.45Z"/><path class="cls-3" d="M35.38,38.6a25.56,25.56,0,0,0-1.53-8.53,1.18,1.18,0,0,0-.59-.64,1.68,1.68,0,0,1-1-1.33,1.92,1.92,0,0,1,.61-1.82,1.93,1.93,0,0,1,2.07.15,1.87,1.87,0,0,1,.51,1.88,1.25,1.25,0,0,0,.06.93,25.83,25.83,0,0,1,1.38,5.85,19.67,19.67,0,0,1,.24,3.25A8,8,0,0,1,35.38,38.6Z"/><path class="cls-3" d="M40.88,38.35a26.45,26.45,0,0,1,1.65-9.11,1.47,1.47,0,0,0,0-1A1.71,1.71,0,0,1,44.37,26a1.55,1.55,0,0,1,1.33,1.24c.22.75,0,1.78-.68,2-.92.33-1,1.12-1.24,1.81a26,26,0,0,0-1.06,5.55,16.91,16.91,0,0,0-.1,2A9.23,9.23,0,0,1,40.88,38.35Z"/><path class="cls-4" d="M38.13,34.66a.41.41,0,0,1,0,.09l0,0A.17.17,0,0,1,38.13,34.66Z"/><path class="cls-4" d="M39.85,34.91a.36.36,0,0,1,0-.09l0,0A.17.17,0,0,1,39.85,34.91Z"/><polygon class="cls-5" points="33.55 90.23 44.45 90.23 39 80.79 33.55 90.23"/><text class="cls-6" transform="translate(11.32 107.76)">百合花</text></g></g></svg>