<svg xmlns="http://www.w3.org/2000/svg" viewBox="0 0 78 115.03"><defs><style>.cls-1,.cls-4,.cls-5{fill:#534741;}.cls-1{stroke:#736357;stroke-miterlimit:10;stroke-width:3px;}.cls-2{fill:#42210b;}.cls-3{fill:#dfb9f9;}.cls-5{font-size:18px;font-family:KozGoPro-Bold-90ms-RKSJ-H, Kozuka Gothic Pro;letter-spacing:0.03em;}</style></defs><g id="圖層_2" data-name="圖層 2"><g id="圖層_1-2" data-name="圖層 1"><rect class="cls-1" x="1.5" y="1.5" width="75" height="75" rx="19.06"/><path class="cls-2" d="M27.94,38.8l1.91-4.62,0,0c.42-.15.33-.54.42-.85l0,0c1.16-.6,1.76-1.89,3.23-2.5-2.39-2.46-4.52-5-7.86-5.92-1.14-.33-2.29-.53-3.2.56a.73.73,0,0,0-.41.76c-1.59.72-1.43,2.5-2.39,3.8a2.5,2.5,0,0,1,2.45,3c-1.37.15-1.67-1.08-2.57-1.9-.24,1-.48,1.83-.62,2.66-.1.59-.11,1.08.83,1.13,1.63.07,1.53,1.52,1.68,2.62.08.65-.46.73-.91.39s-.94-.87-1.5-1.39c-.47,1.42-.1,2.91-.37,4.32a1.9,1.9,0,0,0,0,1.82c.2,3.38.41,6.77.58,10.15,0,.53.33,1.36-.5,1.44s-.72-.78-.76-1.31c-.59-7.35-1.07-14.7.26-22,.05-.31.26-.61-.05-.89l0,.05c.63-.68,1.16-1.5.69-2.36-.37-.69-3.76-.95-4.27-.47-.14.13-.33.22-.16.58.74,1.62-.45,2.29-1.55,3-.72-1.06.23-1.88.28-2.81-1.52.62-1.7.84-2.78,3.61.73,0,1.57-.18,1.91.76s.75,2.41-.2,2.84-1.25-1-1.45-1.88c0-.37.15-1-.28-1-.71-.05-.38.62-.44,1a47.81,47.81,0,0,0-.49,9.64c.05.59-.25,1.31.45,1.76,0,.48-.41,1,0,1.45-.21.37-.28,1-.9.78s-.54-.85-.59-1.34a39.34,39.34,0,0,1,.5-12.44c.15-.66-.11-1.45.51-2a.24.24,0,0,0,.11-.28c.52-2.23,1.62-4,3.92-4.74a.65.65,0,0,0,.77-.35,7.26,7.26,0,0,1,3.85.17c1.6.67,2.36.05,2.85-1.37l0,0a.53.53,0,0,0,.52-.45l.27-.34c2.14-.26,3.26-1.23,2.85-3.61a13,13,0,0,1,.27-3.26l0,.08,2.77-5.8c1-.09.9-.81.82-1.5.16.37.45.5.77.26,2.37-1.75,4.39-.84,6.31.83l0,0a.48.48,0,0,0,.44.47.78.78,0,0,0,0,.34,4.21,4.21,0,0,1,1,4.63,29.54,29.54,0,0,0-1,4.8c-1.1,6.92,2.52,11.95,6.83,16.95,1.13-2.54.79-5,.41-7.4-.44-2.84-1.14-5.64-1.56-8.48a13.6,13.6,0,0,1,1.37-8.93,1.12,1.12,0,0,0,.79-1.13c.65,0,1-.55,1.48-.89,2.7-1.93,5.05-1.61,7.17,1a.6.6,0,0,0,.68.61,21.21,21.21,0,0,1,.92,2.14c.58,1.89,1,3.82,3.52,4.12a2.48,2.48,0,0,1,1.79,1.69c.85,2.62,2.72,3.05,5.07,2.66l-.06,0c1.57.92,3.19,1.79,4.19,3.39a1.14,1.14,0,0,0,1.33.55l.19,0a3.08,3.08,0,0,1,3,1.41c.18.21.22.54-.06.66-1,.41-1.89-.08-3.19-.49L71,34.8l0-.06c0,1.87,0,3.75.07,5.62a82.16,82.16,0,0,1-.49,9c0,.62.13,1.74-.91,1.59-.87-.13-.41-1.06-.35-1.67.54-5.68.87-11.35-.22-17a3.1,3.1,0,0,0-.81-2.06l0,0c.06-.38.24-.84-.44-.84l0,.08c-.29-2.62-2.12-3.79-4.32-4.61a2.84,2.84,0,0,0-1.7-.15c-.93.07-.63.82-.64,1.33s.1,1.26,1,.63a.67.67,0,0,0,.19.28c-.84-.26-.64.29-.57.74,1.39,8.78,1,17.6.59,26.42,0,.55.15,1.46-.59,1.45-1,0-.62-1-.58-1.55a156.46,156.46,0,0,0,0-21.76,20.84,20.84,0,0,0-2.69-9.51c-1.77-2.85-4.62-3.13-6.91-.87-.67.66-.79,1.11.08,1.63s1,1.52,2,1.77h0c-.34.52-.18.72.41.65l0,0c.07,2.17.71,3.06,2.54,3.52.89.23,1.47,1,2.08,2.65-1.36.63-2.08-.7-3.33-1.14.63,2,.29,3.91,1.06,5.69-.16.28-.41.71,0,.79.64.11.31-.5.39-.8,1.83.19,2.45,1.11,2.25,3.36-1.37.08-1.71-1.41-3.21-2.16A37.66,37.66,0,0,1,56.19,48c-.1,1.5-.26,3-.38,4.49,0,.52,0,1.19-.75,1.11s-.53-.78-.47-1.26A85.79,85.79,0,0,0,55,37.43c-.16-2.42-.06-4.9-1.21-7.16l0,.05c0-1.91-1.1-3.38-2-4.95l-.05-.11c-1.88-1.68-1.89-1.68-3.06.54-1.31,2.5-2.25,4.93-1.65,8,1.05,5.36-.23,10.61-1.42,15.88C44.4,55.3,44.4,61.1,44.27,66.86c-.06,2.49-.26,2.67-2.73,2.68-4.62,0-4.58,0-4.39-4.68.26-6.42,1.39-12.75,1.91-19.14.38-4.57-.29-8.67-3.46-12.22-1.72-1.92-2.57-1.85-3.84.71l.06-.07c-1,.27-1,1.22-1.42,1.91a22.31,22.31,0,0,0-.91,2.31,2.57,2.57,0,0,1,2.3,2.92c0,.37.12.85-.36,1s-.66-.3-.95-.53c-.44-.36-.41-1.12-1.37-1.36a92.07,92.07,0,0,0-.82,10.17c0,.46-.15,1,.36,1.28A27.41,27.41,0,0,0,29,56.73c.05.47.29,1.2-.46,1.26s-.68-.64-.75-1.16A56.61,56.61,0,0,1,28,39.69c.05-.32.19-.63-.09-.91Zm6.58-26.28,0,0C32.65,9.9,31,9.79,29,12.17l-.27.18.25.08,0-.29c.59.22,1.42.2,1.24,1.23A2.85,2.85,0,0,1,28.39,16c-.5-.85-.14-1.69-.22-2.88a16,16,0,0,0-2.63,8.62c-.12,1.7.53,2.39,2.29,2.19-.61-1-1.53-1.79-1-3.16A3.94,3.94,0,0,1,29.43,23c.52,1.26-1.2.68-1.18,1.6,1.73.51,3,1.87,4.84,2.69a22.31,22.31,0,0,1,2.3-12.54,1.57,1.57,0,0,0,0-1.45l-.23-.3Zm10.64.8h-.5l-.28.39A4.45,4.45,0,0,0,43,17a36.43,36.43,0,0,0,2.51,9.68c1.86-3.47,3.8-6.45,7.45-7.71a.65.65,0,0,0,.47-.9,6.67,6.67,0,0,0-1.11-2.8c-.39.76,0,1.61-.79,2a2.91,2.91,0,0,1-1.44-2.23c-.12-.66-.26-1.54.95-1.36.16.35.58.89.76.66.47-.66-.15-1.09-.65-1.47-2.56-2.15-4.29-2-6,.39ZM69.75,28.75l-.24.13s.09.12.12.11a1.28,1.28,0,0,0,.24-.11Z"/><path class="cls-3" d="M52.43,58.22c0-1.57.32-2.87,1.74-3.39.76-.27,1.87,1.93,1.62,3.39s-.43,3.53-1.87,3.45S52.66,59.41,52.43,58.22Z"/><path class="cls-3" d="M59.54,60.47c.17-1.33.34-3,1.74-3s1.55,1.7,1.67,2.89c.15,1.52-1.26,4.3-1.84,4C59.56,63.53,59.86,61.81,59.54,60.47Z"/><path class="cls-3" d="M30.77,64.58c-.12,1,0,2.38-.93,2.62s-1.49-1-1.94-1.88a4.86,4.86,0,0,1-.65-3.75c.41-1.42,1.18-1.6,2.19-.56A5.67,5.67,0,0,1,30.77,64.58Z"/><path class="cls-3" d="M70.19,55c-.09,1.17-.08,2.84-1.28,2.92s-1.17-1.63-1.34-2.69,0-2.63,1.17-2.73C70.08,52.4,70.09,53.93,70.19,55Z"/><path class="cls-3" d="M10.77,52c-.11.67,0,1.7-.82,1.89s-1-.82-1.46-1.38a1,1,0,0,1-.08-.18c-.52-1.16-.9-2.32-.09-3.51.19-.28.45-.48.82-.25A3.79,3.79,0,0,1,10.77,52Z"/><path class="cls-3" d="M66.07,56c-.12.4.08,1.08-.65,1.14-1,.09-2.48-2.2-2.4-3.65,0-.61-.07-1.41.9-1.36S66.12,54.26,66.07,56Z"/><path class="cls-3" d="M16.69,55.44a4.46,4.46,0,0,1-2.21,3.31c-.39.22-.61,0-.71-.33a4.88,4.88,0,0,1,.65-3.9,1.49,1.49,0,0,1,1.59-.9C16.73,53.82,16.65,54.64,16.69,55.44Z"/><path class="cls-3" d="M59,55.46c-.13.44.16,1.24-.76,1.21S55.89,54.44,56,53.08c0-.6-.14-1.42.84-1.47S59,53.63,59,55.46Z"/><path class="cls-3" d="M23.51,61c.07-.39.11-.65.16-.9a3.12,3.12,0,0,1,1.85-2.74.57.57,0,0,1,.79.32A3.49,3.49,0,0,1,25.9,61a3.16,3.16,0,0,1-.47.62c-.45.42-.86,1.2-1.53.86C23.4,62.2,23.54,61.4,23.51,61Z"/><path class="cls-3" d="M20.19,59.38c-.05.66,0,1.72-.72,1.91s-1.19-.85-1.52-1.5a3.33,3.33,0,0,1-.18-3.49.62.62,0,0,1,1-.24A3.68,3.68,0,0,1,20.19,59.38Z"/><path class="cls-3" d="M53.27,52.3a4,4,0,0,1-2.85,3.28c-.54.22-.84.09-.91-.54-.13-1.15,1.21-3.45,2.33-3.78C52.67,51,53.46,51,53.27,52.3Z"/><path class="cls-3" d="M29.16,57.62c-.16-1.11.57-1.1,1.34-.9,1.08.28,2.58,2.61,2.5,3.73,0,.7-.45.66-1,.57A4.19,4.19,0,0,1,29.16,57.62Z"/><path class="cls-3" d="M28.55,39.09c-.16-1.11.57-1.09,1.34-.9,1.08.28,2.58,2.61,2.5,3.73,0,.7-.45.67-.95.57A4.17,4.17,0,0,1,28.55,39.09Z"/><path class="cls-3" d="M4.15,48.81a12.72,12.72,0,0,1,.33-1.57c.32-1,.8-2.29,2-1.85,1,.36.63,1.68.3,2.58a5.33,5.33,0,0,1-.94,1.44c-.28.35-.67.79-1.11.66S4.29,49.23,4.15,48.81Z"/><path class="cls-3" d="M9.19,46.43c-.41-.48,0-1,0-1.45a3.2,3.2,0,0,1,3.65,3.24c-.11.92-.62.56-1.1.4C10.59,48.25,10,47.17,9.19,46.43Z"/><path class="cls-3" d="M23,53.88c.33-1.35.45-3,2.15-3.36.93-.21.88.82.81,1.39A3.44,3.44,0,0,1,23.63,55C22.87,55.27,23.08,54.38,23,53.88Z"/><path class="cls-3" d="M73.68,53.16c-.16.35.34,1.09-.55,1.12s-2.57-2.17-2.5-3.39c0-.47,0-1.1.7-1.17C72.42,49.61,73.66,51.41,73.68,53.16Z"/><path class="cls-3" d="M13.13,50.6c0-1.77,1.21-3.75,2.19-3.66s.67.84.68,1.35c0,1.27-1.5,3.3-2.38,3.23S13.35,50.79,13.13,50.6Z"/><path class="cls-3" d="M21.84,50.35c-.19.42.31,1.18-.6,1.17s-2.33-2-2.27-3.32c0-.52-.13-1.44.76-1.22C21.42,47.41,21.57,49,21.84,50.35Z"/><path class="cls-3" d="M56.34,44.57c-.06-1.86.6-1.88,1.43-1.35a4.12,4.12,0,0,1,1.65,3.35c0,.59-.33.86-.87.56C57.31,46.44,56.39,45.5,56.34,44.57Z"/><path class="cls-3" d="M56.15,37.77c-.11-2,.59-2.05,1.5-1.49a4.37,4.37,0,0,1,1.87,3.55c.08.64-.32.93-.92.63C57.25,39.75,56.23,38.76,56.15,37.77Z"/><path class="cls-3" d="M50.86,46.09c.45-1.27.52-2.9,2.29-3.23.86-.17.83.62.81,1.2,0,1.23-1.56,3.21-2.46,3.21S51,46.59,50.86,46.09Z"/><path class="cls-3" d="M12.19,41.21c-.07.35.09.92-.59,1s-2.34-2-2.28-3.16c0-.53-.05-1.27.88-1.18S12.19,39.69,12.19,41.21Z"/><path class="cls-3" d="M12.8,34.82c-.07.39.09,1-.59,1s-2.33-2.18-2.28-3.4c0-.57,0-1.37.89-1.27S12.8,33.19,12.8,34.82Z"/><path class="cls-3" d="M74,44.28c-.06.37.09.93-.59,1-.83,0-2.29-1.93-2.25-3.11,0-.52-.14-1.28.83-1.17S74,42.79,74,44.28Z"/><path class="cls-3" d="M66.13,47.29a3.58,3.58,0,0,1-2.88-3.1c-.07-.44-.12-1,.38-1.21a1.12,1.12,0,0,1,1.25.35A4,4,0,0,1,66.13,47.29Z"/><path class="cls-3" d="M6.5,38.94c0,1.26-1.29,3.17-2.18,3.24s-.6-.52-.61-.92c-.06-1.52,1.14-3.42,2.11-3.4S6.41,38.53,6.5,38.94Z"/><path class="cls-3" d="M28.43,50.74c1.6,0,3.46,2.11,3.05,3.51-.2.71-.65.48-1.05.25a3.36,3.36,0,0,1-2-2.45Z"/><path class="cls-3" d="M18,42.87a1.92,1.92,0,0,1,0-1.82c1.67-.39,2.4.54,2.78,2,.13.49.46,1.06-.13,1.4s-.81-.25-1.21-.44C18.86,43.7,18.88,42.71,18,42.87Z"/><path class="cls-3" d="M18.54,36.66a2,2,0,0,1,0-1.93c1.77-.41,2.54.57,2.95,2.08.13.52.48,1.12-.15,1.48S20.46,38,20,37.82C19.45,37.54,19.47,36.48,18.54,36.66Z"/><path class="cls-3" d="M19.4,31.86a1.92,1.92,0,0,1,0-1.82c1.67-.39,2.4.53,2.78,2,.13.49.46,1.06-.14,1.4s-.8-.26-1.2-.44C20.26,32.69,20.28,31.7,19.4,31.86Z"/><path class="cls-3" d="M55.47,31.11a1.79,1.79,0,0,1,0-2A2.72,2.72,0,0,1,59,31.27c.16.53.58,1.14-.18,1.51-.6.29-1-.27-1.53-.48C56.56,32,56.59,30.93,55.47,31.11Z"/><path class="cls-3" d="M69.55,29.27A1.8,1.8,0,0,1,69,27.36a2.71,2.71,0,0,1,4,1.18c.29.47.85,1,.21,1.51s-1.06,0-1.6-.08C70.83,29.87,70.58,28.82,69.55,29.27Z"/><path class="cls-3" d="M27.43,27.83a3.51,3.51,0,0,1-2.83,2.05c-.16,0-.4-.19-.41-.3a2.29,2.29,0,0,1,1-2,1.78,1.78,0,0,1,2-.46C27.47,27.26,27.48,27.56,27.43,27.83Z"/><path class="cls-3" d="M51.46,39.13c.21-1.11.38-2.31,1.67-2.64.73-.18.76.6.71,1.06A2.8,2.8,0,0,1,52,40.1C51.32,40.31,51.53,39.52,51.46,39.13Z"/><path class="cls-3" d="M8.82,31.17a.22.22,0,0,1-.12.27c-1,.45-1.4,1.7-2.62,1.85-.32,0-.67.24-.85-.13a1.15,1.15,0,0,1,0-.75A2.16,2.16,0,0,1,8.82,31.17Z"/><path class="cls-3" d="M24.06,17.32l0-.08a8.18,8.18,0,0,1-.95,1.15c-.57.51-1.27,1.29-2,.85s-.09-1.17.26-1.69c.54-.81,1.12-1.7,2.32-1.27C24.15,16.43,23.93,17,24.06,17.32Z"/><path class="cls-3" d="M28.44,9.93c.08.69.19,1.41-.83,1.5l-.19,0c-.93-.09-2,.1-2.7-.65-.21-.21.17-.58.45-.72C26.24,9.48,27.31,8.85,28.44,9.93Z"/><path class="cls-3" d="M52.31,13a.59.59,0,0,1-.68-.6c1.2-1.55,2.4-1.45,4.24.39C54.74,14,53.49,13.14,52.31,13Z"/><path class="cls-3" d="M43,12.34a1.13,1.13,0,0,1-.79,1.13c-1,0-1.2-.62-1.22-1.41a3,3,0,0,1,.79-2.35c.41-.42.65,0,.85.33A5.48,5.48,0,0,1,43,12.34Z"/><path class="cls-3" d="M13.94,44.51a6.27,6.27,0,0,1-.12-1.13c.14-1.05.36-2.07,1.5-2.53a.54.54,0,0,1,.78.34c.37,1.27-.36,2.1-1.22,2.85A4.66,4.66,0,0,1,13.94,44.51Z"/><path class="cls-3" d="M65.66,37.85c0,.49-.08.93-.59.76A2.8,2.8,0,0,1,63,36.08c0-.39-.16-1.08.58-.94C65,35.43,65.34,36.69,65.66,37.85Z"/><path class="cls-3" d="M70.46,34.92c1.22-.94,3.4-.41,3.79.92.22.74-.34.72-.77.74a3.41,3.41,0,0,1-3-1.72S70.46,34.92,70.46,34.92Z"/><path class="cls-3" d="M27.37,38.9c-.77.6-1.1,1.67-2.14,2-.36.11-1,.27-1-.11a3.25,3.25,0,0,1,1.42-2.62c1.11-.9,1.25.27,1.72.77Z"/><path class="cls-3" d="M25.34,44.48c.8-.11.91.32.9.81A3,3,0,0,1,24.31,48c-.51.26-.71-.15-.67-.58A3.31,3.31,0,0,1,25.34,44.48Z"/><path class="cls-3" d="M16.38,35.36a2.8,2.8,0,0,1-2,2.54c-.59.16-.55-.42-.5-.78.17-1.22.53-2.38,1.91-2.66C16.53,34.32,16.15,35.12,16.38,35.36Z"/><path class="cls-3" d="M30.88,47.49c-.08.41.12,1.07-.45.93a2.6,2.6,0,0,1-2-2.57c0-.41-.14-1.09.58-1C30.48,45.14,30.58,46.43,30.88,47.49Z"/><path class="cls-3" d="M13.61,31.15c-.39.29-.76,1-1.11.43A3,3,0,0,1,13,27.85c.31-.36.77-1,1.26-.34C15.2,28.87,14.23,30,13.61,31.15Z"/><path class="cls-3" d="M53.19,30.38a4,4,0,0,1-.76,3.27c-.25.27-.6.66-.91.16a3,3,0,0,1-.09-2.61,1.18,1.18,0,0,1,1.81-.76Z"/><path class="cls-3" d="M51.57,13.05c.48,1.48.94,3,.11,4.48-.23.43-.56,1.06-1.12.51a3.93,3.93,0,0,1-1-3.36,1.57,1.57,0,0,1,2.08-1.58Z"/><path class="cls-3" d="M63.55,23.63l.06,0c-.19-.41-1-.28-.87-.89a1.3,1.3,0,0,1,1.06-1,8.2,8.2,0,0,1,1.72-.1c.38,0,.85,0,1,.46s-.38.76-.73,1A3.66,3.66,0,0,1,63.55,23.63Z"/><path class="cls-3" d="M67.72,30.35c-.24.9,0,1.94-1,2.82-1-1.13-1.43-2.3-.82-3.64.4-.87,1,0,1.42.09l0-.07c0,.35-.08.76.44.84Z"/><path class="cls-3" d="M61.87,27.1a.58.58,0,0,1-.19-.27c-.34-.46-.5-1-.1-1.42s.94.21,1.43.27a3.55,3.55,0,0,1,.23.31c.52.66,1.31,1.69.72,2.17C63.13,28.84,62.43,27.78,61.87,27.1Z"/><path class="cls-3" d="M13.51,26.08a.66.66,0,0,1-.77.35c.12-.48-.3-.48-.55-.61-.77-.38-1.54-.8-1.6-1.75,0-.39.49-.4.77-.31.94.31,2.14.34,2.2,1.76A5.29,5.29,0,0,1,13.51,26.08Z"/><path class="cls-3" d="M51.2,25.37l.06.12c-.47.88,0,2.05-.84,2.83-.24.21-.42.54-.8.41s-.33-.51-.34-.82C49.23,26.56,49.56,25.46,51.2,25.37Z"/><path class="cls-3" d="M21,24.11l-.27.33c-.27,0-.76-.17-.52.45h0c-.61-.6-1.47-.05-2.11-.48-.25-.17-.6-.37-.66-.62s.31-.51.62-.61C19.26,22.77,20.39,22.6,21,24.11Z"/><path class="cls-3" d="M29,24.81l-.68-.08c-.24-.3-.23-1.07-1-.29l0,0c.51-1.23-.88-1.88-.66-3a2.27,2.27,0,0,1,.52-1.32c.49-.4,1,0,1.32.3C29.87,21.62,30.86,22.89,29,24.81Z"/><path class="cls-3" d="M35.14,11.89a.79.79,0,0,1,0-.34c-.06-.23.09-.67-.45-.46l0,0c.69-.31.13-.9.28-1.34s.16-1,.68-1.31C37.16,10.41,37,11.46,35.14,11.89Z"/><path class="cls-3" d="M29.27,34.29c-1-.37-2.12,1.1-3.09-.14,1.43-1.75,2.23-1.9,3.44-.65l.05,0c-.44.14-.78.33-.43.85Z"/><path class="cls-3" d="M53.2,25.42h0c-.76-.7-.43-1.23.38-1.3a2.06,2.06,0,0,1,2.34,1.31c.18.65-.68.55-1.16.58a10.84,10.84,0,0,1-1.14,0l0,0C53.73,25.69,53.32,25.65,53.2,25.42Z"/><path class="cls-3" d="M17.52,30.22c-.9.74-1.66,1.83-3.12,1.29,1.06-2.2,2-2.59,3.08-1.23Z"/><path class="cls-3" d="M21.39,26.4a.72.72,0,0,1,.4-.76c2.42.69.9,2.14.75,3.5C21.22,28.47,21.47,27.37,21.39,26.4Z"/><path class="cls-3" d="M28,12.11a1.08,1.08,0,0,1,.8-1c3.28,1.7.68,3.35.07,5.27C27.18,15.05,27.85,13.53,28,12.11Z"/><path class="cls-3" d="M31.17,34.32c1.87.09,1.67,1.51,1.61,2.69,0,.83-.59.43-.91.12a2.59,2.59,0,0,1-.63-2.87Z"/><path class="cls-3" d="M28.43,50.74v1.31a.72.72,0,0,0-.35-.08c-.52-.31-.37-.81-.36-1.28Z"/><path class="cls-3" d="M9.23,33.58c.07-.38-.26-1,.45-1,.42,0,.26.63.28,1Z"/><path class="cls-3" d="M56.36,36.73c-.08.31.25.92-.39.81-.44-.08-.19-.52,0-.8Z"/><path class="cls-3" d="M44.55,13.46c.26.41.55.06.83,0,.64,0,1.8-.54,1.81.24,0,1.17-1.24,1.71-2.33,1.9s-1.17-.6-1-1.45c0-.11-.05-.24-.08-.37l.28-.39c-.06.27.05.51.3.5s.34-.25.2-.5Z"/><path class="cls-3" d="M34.76,13.39c-1,.4-1.81,1.61-3.19.95-.35-.17-.84-.21-.78-.68,0-.22.43-.41.68-.6.76-.59,1.7,0,2.49-.4l0,0c-.12.56.15.62.59.45Z"/><path class="cls-3" d="M50.47,13.89c.31-.24.18-.53.11-.82.5.38,1.12.81.64,1.47C51.05,14.78,50.63,14.24,50.47,13.89Z"/><path class="cls-3" d="M29.24,34.32c-.35-.52,0-.71.43-.85C29.58,33.78,29.66,34.18,29.24,34.32Z"/><path class="cls-3" d="M67.77,30.39c-.52-.08-.43-.49-.44-.84C68,29.55,67.82,30,67.77,30.39Z"/><path class="cls-3" d="M20.19,24.89c-.24-.62.25-.41.52-.45C20.63,24.7,20.49,24.89,20.19,24.89Z"/><path class="cls-3" d="M44.58,13.44c.14.25.08.49-.2.5s-.36-.23-.3-.5Z"/><path class="cls-3" d="M34.53,13.09c-.44.17-.71.11-.59-.45Z"/><path class="cls-3" d="M28.41,12.26l0,.28-.25-.07.28-.18Z"/><path class="cls-3" d="M34.7,11.09c.54-.21.39.23.45.46A.47.47,0,0,1,34.7,11.09Z"/><path class="cls-3" d="M69.16,28.87l.13.13a1.28,1.28,0,0,1-.24.11S69,29,68.93,29Z"/><path class="cls-3" d="M53.2,25.42c.12.23.53.27.42.64C53,26.13,52.86,25.94,53.2,25.42Z"/><polygon class="cls-4" points="33.55 90.23 44.45 90.23 39 80.79 33.55 90.23"/><text class="cls-5" transform="translate(11.32 107.76)">紫藤花</text></g></g></svg>