<svg xmlns="http://www.w3.org/2000/svg" viewBox="0 0 78 115.03"><defs><style>.cls-1,.cls-3,.cls-4{fill:#534741;}.cls-1{stroke:#736357;stroke-miterlimit:10;stroke-width:3px;}.cls-2{fill:#fafafa;}.cls-4{font-size:18px;font-family:KozGoPro-Bold-90ms-RKSJ-H, Kozuka Gothic Pro;letter-spacing:0.03em;}</style></defs><g id="圖層_2" data-name="圖層 2"><g id="圖層_1-2" data-name="圖層 1"><rect class="cls-1" x="1.5" y="1.5" width="75" height="75" rx="19.06"/><path class="cls-2" d="M66.62,60.57c-1.45-.67-2.81-1.41-4.25-1.94-1.81-.68-3.69-1.2-5.55-1.75A1.7,1.7,0,0,1,55.7,56a41.35,41.35,0,0,0-2.77-4.85A41.28,41.28,0,0,0,49.4,47a19.5,19.5,0,0,0-1.95-1.67.83.83,0,0,0-1.3.09c-.31.37-.21.85.27,1.23a24,24,0,0,1,5.49,5.88c.59.91,1.15,1.83,1.7,2.76a1.64,1.64,0,0,1,.1.6,5.65,5.65,0,0,1-.58,0c-.19,0-.37-.1-.56-.11a1.87,1.87,0,0,1-1.92-1.36,10.24,10.24,0,0,0-1.75-2.65,25.39,25.39,0,0,0-4.62-4.7c-.75-.58-1.51-1.15-2.27-1.71a2.43,2.43,0,0,0-.35-.2.82.82,0,0,0-1.19.26.89.89,0,0,0,.34,1.19c.55.4,1.16.73,1.67,1.18,1.31,1.15,2.62,2.29,3.83,3.54a31.79,31.79,0,0,1,2.33,3,2.57,2.57,0,0,1,.23.71l-.65,0a3.64,3.64,0,0,0-.57,0c-1.11.11-1.69-.72-2.35-1.37a72.3,72.3,0,0,0-8.95-7.54c-.36-.26-.7-.52-1.06-.77A.92.92,0,0,0,34,45.6a.88.88,0,0,0,.36,1.18A74.54,74.54,0,0,1,43.25,54a4,4,0,0,0,.47.34l-.27.22a4.81,4.81,0,0,1-2.75-.51c-3.24-2.2-6.54-4.32-9.82-6.47-.55-.35-1-.27-1.29.19s-.15.89.4,1.25c1.14.73,2.31,1.41,3.44,2.14,1.42.91,2.83,1.85,4.23,2.79.14.09.22.28.33.42a2.17,2.17,0,0,1-.52.23c-.53.08-1.07.08-1.59.18A2.47,2.47,0,0,1,34,54.31c-1.9-1.25-3.81-2.5-5.71-3.73-.5-.32-1-.63-1.51-.92a.82.82,0,0,0-1.27.26A.91.91,0,0,0,26,51.09c.7.46,1.42.88,2.12,1.34,1.17.78,2.34,1.56,3.49,2.35a2.62,2.62,0,0,1,.4.5,3.75,3.75,0,0,1-2.41.2c-2.38-.88-4.77-1.72-7.15-2.59-.34-.12-.68-.26-1-.39a.92.92,0,0,0-1.26.5c-.17.45.06.87.64,1.08,1.9.71,3.8,1.39,5.69,2.1a2.11,2.11,0,0,1,.47.33c-.19.12-.38.35-.57.35-.4,0-.79-.16-1.18-.18-1.18-.07-2.36-.11-3.54-.14-1.73,0-3.47,0-5.2-.06-.57,0-.94.31-.95.76a1,1,0,0,0,.92.91l4.06.08c.86,0,1.71,0,2.57.06.16,0,.45.12.46.21a.71.71,0,0,1-.19.54c-1.24,1.07-2.5,2.11-3.76,3.15l-1.62,1.35a.77.77,0,0,0,0,1.2A.79.79,0,0,0,19,64.8c2.06-1.73,4.09-3.5,6.18-5.2a7.39,7.39,0,0,1,3-1.58,5.41,5.41,0,0,1,.71,0c-.38.62-.67,1.11-1,1.59-1.33,2.12-2.68,4.23-4,6.35a.85.85,0,0,0,.18,1.3c.47.29.86.19,1.23-.39,1-1.63,2-3.27,3.05-4.9.91-1.42,1.84-2.83,2.76-4.24.47-.72,1.17-.8,2.11-.77-.4.7-.74,1.27-1.06,1.86-.89,1.64-1.78,3.28-2.65,4.92A.92.92,0,0,0,29.92,65c.44.19.89,0,1.18-.6.68-1.32,1.32-2.66,2-4s1.57-2.51,2.37-3.76a.51.51,0,0,1,.3-.22l2.08-.19.14.15-.95,1.69-4.28,7.27A.84.84,0,0,0,33,66.56a.79.79,0,0,0,1.17-.32c.89-1.45,1.77-2.92,2.64-4.39C37.9,60.07,39,58.29,40,56.51c.08-.12.25-.28.38-.28.78,0,1.56,0,2.34.07.08,0,.16.07.34.16-.45.73-.87,1.45-1.3,2.15l-3.32,5.32a.87.87,0,0,0,.19,1.21.81.81,0,0,0,1.15-.28c.82-1.25,1.62-2.52,2.42-3.79.89-1.44,1.77-2.89,2.67-4.33a.54.54,0,0,1,.38-.25,12.83,12.83,0,0,1,1.36.13c-.22.48-.38.89-.59,1.28q-1.82,3.23-3.67,6.44a1,1,0,0,0-.06,1.13,1,1,0,0,0,.72.34,1,1,0,0,0,.68-.4c1.55-2.75,3.07-5.51,4.6-8.27.07-.11.22-.25.32-.24.78.11,1.56.25,2.49.41-.37.69-.65,1.27-1,1.81-1.2,1.92-2.43,3.82-3.64,5.74-.16.27-.41.59-.37.86a1.24,1.24,0,0,0,.58.8c.42.22.78-.1,1-.44.73-1.09,1.48-2.17,2.15-3.29,1-1.6,1.84-3.23,2.78-4.83a.63.63,0,0,1,.5-.22c.57.09,1.12.24,1.68.36s.5.31.27.66q-1.24,1.91-2.5,3.81a9.45,9.45,0,0,1-.73.94,1.59,1.59,0,0,1-.54.39c-.62.23-.91.69-.71,1.2a1,1,0,0,0,1.38.42,2.89,2.89,0,0,0,.82-.6,29.49,29.49,0,0,0,4-5.7.64.64,0,0,1,.89-.39,31.26,31.26,0,0,1,6,2.2c.53.26,1,.56,1.58.79a.61.61,0,0,0,.56-.09A9.76,9.76,0,0,0,66.62,60.57Z"/><path class="cls-2" d="M66.26,60.34c-.86-2.1-1.56-4.18-2.54-6.12-1.25-2.45-2.7-4.8-4.1-7.17a2.35,2.35,0,0,1-.29-2,59.31,59.31,0,0,0,1.78-7.71,55.73,55.73,0,0,0,.24-7.65,27.73,27.73,0,0,0-.42-3.61,1.19,1.19,0,0,0-1.43-1.17c-.68.09-1,.69-.91,1.55a34.14,34.14,0,0,1,.06,11.41c-.26,1.51-.56,3-.89,4.5,0,.27-.3.49-.46.73a5.49,5.49,0,0,1-.65-.52c-.19-.19-.3-.46-.48-.65a2.65,2.65,0,0,1-.69-3.27,14.46,14.46,0,0,0,.73-4.45,36.43,36.43,0,0,0-.29-9.33c-.23-1.33-.47-2.65-.71-4a3.11,3.11,0,0,0-.18-.54c-.31-.77-.83-1.08-1.49-.88a1.27,1.27,0,0,0-.8,1.57,25.5,25.5,0,0,1,.61,2.83c.26,2.46.52,4.92.58,7.38a43.14,43.14,0,0,1-.41,5.31,3.63,3.63,0,0,1-.45,1c-.23-.2-.47-.39-.69-.61a7.54,7.54,0,0,0-.55-.58c-1.27-1-1.07-2.38-1.13-3.69a102.45,102.45,0,0,0-2.07-16.47c-.12-.61-.23-1.22-.36-1.82a1.31,1.31,0,0,0-1.58-1,1.25,1.25,0,0,0-.76,1.58A108.24,108.24,0,0,1,48.24,31a5.82,5.82,0,0,0,.16.79h-.5c-.91-1-2-1.69-2.36-3.19-1.27-5.41-2.66-10.8-4-16.19-.22-.9-.77-1.24-1.52-1s-1,.79-.78,1.69c.49,1.85,1.05,3.69,1.53,5.54.6,2.32,1.16,4.65,1.71,7a2.16,2.16,0,0,1-.06.75,2.62,2.62,0,0,1-.76-.26c-.63-.43-1.19-.94-1.83-1.34a3.43,3.43,0,0,1-1.46-2.3c-.79-3.13-1.57-6.26-2.36-9.39-.21-.81-.43-1.61-.69-2.4s-.81-1.17-1.57-1A1.29,1.29,0,0,0,33,11.32c.29,1.15.63,2.29.91,3.44q.72,2.9,1.38,5.81a3.78,3.78,0,0,1-.06.89c-1.14-.58-2.14-1-2.71-2.11-1.62-3.2-3.3-6.38-5-9.57L26.92,8.4a1.31,1.31,0,0,0-1.79-.71c-.61.31-.77,1-.37,1.75,1.29,2.56,2.61,5.1,3.9,7.66a3.45,3.45,0,0,1,.18.8c-.32,0-.74,0-.94-.19-.41-.38-.66-.92-1-1.32-1.17-1.2-2.35-2.39-3.56-3.55-1.77-1.7-3.56-3.39-5.35-5.07a1.17,1.17,0,0,0-1.72-.12,1.39,1.39,0,0,0,.08,1.83c1.38,1.34,2.77,2.66,4.15,4,.88.84,1.77,1.67,2.62,2.53.17.17.35.56.28.67a1,1,0,0,1-.73.38c-2.31-.09-4.62-.22-6.94-.33-1-.06-2-.13-3-.16-.73,0-1.15.43-1.17,1.24a1.12,1.12,0,0,0,1.12,1.14c3.81.18,7.63.3,11.44.55a10.16,10.16,0,0,1,4.65,1.24,8.2,8.2,0,0,1,.79.64c-1,.28-1.77.51-2.56.72L16.68,24.84c-.88.24-1.26.81-1.06,1.52s.71,1,1.66.78c2.63-.7,5.25-1.46,7.89-2.16,2.31-.61,4.64-1.17,7-1.76,1.18-.3,2,.3,2.93,1.23-1.08.34-2,.61-2.89.91-2.5.85-5,1.7-7.5,2.58a1.3,1.3,0,0,0-.9,1.7c.27.63,1,.83,1.8.52,2-.72,3.93-1.51,5.94-2.14s4.06-1.11,6.09-1.64a.71.71,0,0,1,.52.06c.79.59,1.57,1.2,2.35,1.81v.28c-.87.29-1.73.58-2.61.85L26.4,32.84a1.19,1.19,0,0,0-.88,1.41A1.11,1.11,0,0,0,27,35c2.34-.66,4.66-1.35,7-2,2.81-.83,5.62-1.68,8.44-2.5a.82.82,0,0,1,.66.07c.82.75,1.6,1.53,2.38,2.32.09.08.1.23.2.5-1.17.33-2.3.67-3.42,1l-8.57,2.35a1.21,1.21,0,0,0-1,1.44,1.14,1.14,0,0,0,1.46.82c2.06-.51,4.12-1.06,6.17-1.63,2.31-.63,4.62-1.3,6.94-1.93a.81.81,0,0,1,.65.11c.42.4.78.87,1.29,1.44-.7.29-1.26.57-1.85.76q-5,1.62-10,3.19c-.6.19-1.08.51-1.15,1.11a1.2,1.2,0,0,0,1.51,1.28C42,42,46.25,40.54,50.5,39.15c.17-.06.47-.06.56.05.71.86,1.39,1.76,2.2,2.82-1,.36-1.89.7-2.76.94-3.1.84-6.21,1.64-9.31,2.48-.43.11-1,.22-1.21.53a1.8,1.8,0,0,0-.17,1.4c.23.63.9.64,1.47.51,1.81-.43,3.63-.84,5.42-1.36,2.52-.74,5-1.59,7.54-2.35a.84.84,0,0,1,.72.26c.51.63.95,1.32,1.41,2,.33.48.22.8-.35.94-2.09.52-4.18,1-6.28,1.55a11.52,11.52,0,0,1-1.66.29,2.12,2.12,0,0,1-.94-.11c-.86-.36-1.61-.16-1.9.57a1.47,1.47,0,0,0,1,1.76,4.41,4.41,0,0,0,1.44.17,41,41,0,0,0,9.6-2.14.91.91,0,0,1,1.3.46A44.09,44.09,0,0,1,62.75,58c.3.78.55,1.58.89,2.34a.85.85,0,0,0,.67.45A16.3,16.3,0,0,0,66.26,60.34Z"/><polygon class="cls-3" points="33.55 90.23 44.45 90.23 39 80.79 33.55 90.23"/><text class="cls-4" transform="translate(18.38 107.76)">芒 花</text></g></g></svg>