<svg xmlns="http://www.w3.org/2000/svg" viewBox="0 0 78 115.03"><defs><style>.cls-1,.cls-3,.cls-4{fill:#534741;}.cls-1{stroke:#736357;stroke-miterlimit:10;stroke-width:3px;}.cls-2{fill:#fa9c7d;}.cls-4{font-size:18px;font-family:KozGoPro-Bold-90ms-RKSJ-H, Kozuka Gothic Pro;letter-spacing:0.03em;}</style></defs><g id="圖層_2" data-name="圖層 2"><g id="圖層_1-2" data-name="圖層 1"><rect class="cls-1" x="1.5" y="1.5" width="75" height="75" rx="19.06"/><path class="cls-2" d="M56.81,32.7c-.13,8.93-2.15,15.77-6,20.32a16.83,16.83,0,0,1-4.59,3.79c6-.25,14.17-2.14,17.25-10,2.89-7.41,6.33-10.14,9.06-11C68.23,33.6,61.46,30.93,56.81,32.7Z"/><path class="cls-2" d="M48.39,46a14.64,14.64,0,0,1-2.07,8.11,15.07,15.07,0,0,0,3.15-2.79,21,21,0,0,0,4.06-8.07A42.34,42.34,0,0,0,54.9,31.86h0c-.07-1.26-.49-9.92,1.81-14.2-4,.35-10.57,1.64-14.18,6.18.52,1.55,1.08,3.13,1.63,4.66C46.24,34.32,48.39,40.33,48.39,46Z"/><path class="cls-2" d="M42.4,29.44c-.63-1.78-1.28-3.61-1.88-5.43-.51-1.59-1.07-3.4-1.52-5.34-.45,1.94-1,3.75-1.52,5.34-.6,1.82-1.25,3.65-1.89,5.43C33.5,35.29,31.52,40.81,31.52,46c0,9.33,6.72,10.33,7.48,10.41.75-.08,7.48-1.07,7.48-10.41C46.48,40.81,44.5,35.29,42.4,29.44Z"/><path class="cls-2" d="M23.1,31.86c0,8.67,1.83,15.21,5.43,19.45a15.07,15.07,0,0,0,3.15,2.79A14.64,14.64,0,0,1,29.61,46c0-5.66,2.15-11.67,4.23-17.49.55-1.53,1.11-3.11,1.63-4.66-3.61-4.55-10.2-5.84-14.18-6.19,1.6,3,1.88,8.1,1.88,11.35C23.17,30.42,23.12,31.49,23.1,31.86Z"/><path class="cls-2" d="M21.19,32.7c-4.65-1.77-11.42.9-15.68,3,2.73.87,6.17,3.61,9.06,11,3.08,7.9,11.24,9.79,17.25,10A16.83,16.83,0,0,1,27.23,53C23.34,48.47,21.32,41.63,21.19,32.7Z"/><polygon class="cls-3" points="33.55 90.23 44.45 90.23 39 80.79 33.55 90.23"/><text class="cls-4" transform="translate(18.38 107.76)">荷 花</text></g></g></svg>