<svg xmlns="http://www.w3.org/2000/svg" viewBox="0 0 78 115.03"><defs><style>.cls-1,.cls-4,.cls-5{fill:#534741;}.cls-1{stroke:#736357;stroke-miterlimit:10;stroke-width:3px;}.cls-2{fill:#f9ea67;}.cls-3{fill:#006837;}.cls-5{font-size:18px;font-family:KozGoPro-Bold-90ms-RKSJ-H, Kozuka Gothic Pro;letter-spacing:0.03em;}</style></defs><g id="圖層_2" data-name="圖層 2"><g id="圖層_1-2" data-name="圖層 1"><rect class="cls-1" x="1.5" y="1.5" width="75" height="75" rx="19.06"/><path class="cls-2" d="M55.08,29.24a1.91,1.91,0,0,1,.4,1,8,8,0,0,0,1.44,4.18,1.88,1.88,0,0,1,.3,1.47,4.67,4.67,0,0,0-.09,2.74c.09.28-.08.61-.49.81A7.44,7.44,0,0,0,51,35.58c-.2,0-.47.05-.35-.3.54-1.62,0-3.22.23-4.84a2.44,2.44,0,0,1,1.75-2.21A2.19,2.19,0,0,1,55.08,29.24Z"/><path class="cls-2" d="M51.64,21.25a1.1,1.1,0,0,1-.14,1.6,1.81,1.81,0,0,1-1.9.27c-2.64-1-3.48-2.91-2.46-5.49.1-.26.19-.49-.11-.62s-.43,0-.58.2a3.07,3.07,0,0,0-.28.35,4.21,4.21,0,0,0,.9,4.84c.34.24.78.37,1,1l-3.56-1c-.44-.13-.75-.22-.36-.84a3.75,3.75,0,0,0,.29-3.21c-.05-.2-.49-.47.07-.63a16.74,16.74,0,0,0,2-1,2.14,2.14,0,0,1,2.57.56C50,18.53,50.8,19.9,51.64,21.25Z"/><path class="cls-2" d="M56.21,40.84A4.34,4.34,0,0,1,54.16,46c-1.58.57-2.88.74-4.11,0a2.87,2.87,0,0,0-1-.32A4.15,4.15,0,0,1,45.68,41c.34-1.47,1.35-2.58,2-3.86a.88.88,0,0,1,.63-.44,6.28,6.28,0,0,1,4.54.25A7.3,7.3,0,0,1,56.21,40.84Z"/><path class="cls-2" d="M42.83,10.09c.87.11,1.1.56.63,1.3a5.37,5.37,0,0,1-2.11,1.8,31.43,31.43,0,0,1-4.91,2.05,5,5,0,0,1-2.21.15c-.54-.07-.28-.75-.5-1.07-.73-.83-.24-1.28.56-1.84a20.74,20.74,0,0,1,5-2.92c.88-.3,1.75-.55,2.44.26C42,10.13,42.42,10,42.83,10.09Z"/><path class="cls-2" d="M49,28.12A3.15,3.15,0,0,1,50,31c-.11,1.13,0,2.26-.05,3.39a1.3,1.3,0,0,1-1.33,1.42,2.63,2.63,0,0,0-2.08,1.53,3.29,3.29,0,0,1-.88,1.23,3.92,3.92,0,0,0-2.07-2.18c-1-.54-1.91-1.24-2.92-1.8-2-1.15-2-3.5-.14-5.09a8,8,0,0,0,2.23-2.68c.51-1.18,3.53-1.36,4.47-.33A22.33,22.33,0,0,0,49,28.12Zm-1.62,2.82a.74.74,0,0,0,.45-1,.52.52,0,0,0-.7-.29c-.39.23-.36.66-.38,1A.44.44,0,0,0,47.35,30.94Z"/><path class="cls-2" d="M47.8,30a.74.74,0,0,1-.45,1,.44.44,0,0,1-.63-.22c0-.36,0-.79.38-1A.52.52,0,0,1,47.8,30Z"/><path class="cls-2" d="M43.7,18.75c0,.51,0,1,0,1.47a1.36,1.36,0,0,1-.55,1.22c-.56.36-.7-.29-1.07-.42a6.9,6.9,0,0,1-2-1.44,3.51,3.51,0,0,0-2.2-1.18.48.48,0,0,1-.49-.45,5.15,5.15,0,0,1,1.38-2.61c1.57-.59,2.59-.31,3.1.88a4.31,4.31,0,0,0,.9,1.35C43.07,17.94,43.37,18.35,43.7,18.75Z"/><path class="cls-2" d="M52.81,49c.63,1.4,1.22,2.62.62,4.27a5.22,5.22,0,0,1-4.61,3.47l-.25,0c-1.28-3-2.58-6.05-3.84-9.09a2,2,0,0,1,1.22-.2A2.36,2.36,0,0,0,48.06,47a1.15,1.15,0,0,1,.86-.2C50.59,47,52.05,47.31,52.81,49Z"/><path class="cls-2" d="M41.35,21.6a1.45,1.45,0,0,1,.89,1.87A10.57,10.57,0,0,0,41.91,26c0,1.15-1.71,3.15-2.95,3.54a2.05,2.05,0,0,1-1.78-.31,7.38,7.38,0,0,0-2.29-.89,2.64,2.64,0,0,1-2.48-2.73c-.11-1.57.52-3.07.8-4.6.16-.9,1.31-1.08,2.15-1.34a3.4,3.4,0,0,1,4.52.91A4.15,4.15,0,0,0,41.35,21.6Z"/><path class="cls-2" d="M52.25,56.28a1.16,1.16,0,0,1,.94.69c.21.64-.45,1.3-1.71,1.84-1,.42-.7-.48-.93-.67a1.39,1.39,0,0,1-.26-.63,1,1,0,0,1,.21-.13A8,8,0,0,0,52.25,56.28Z"/><path class="cls-2" d="M51.84,58.77c.83-.35,1.87-.05,2.08.59s-.45,1.3-1.72,1.84c-.32.14-.51.13-.62.06s-.14-.35-.21-.52h0a.29.29,0,0,0-.07-.17L51,59.89C50.92,59.4,51.2,59,51.84,58.77Z"/><path class="cls-2" d="M53.92,62.84c.62-.23,1.27-.1,1.47.48.28.77-.26,1.37-1,1.68-.89.38-.45-.62-.76-.72C53.33,63.69,53.12,63.14,53.92,62.84Z"/><path class="cls-2" d="M43.3,37.19a2.45,2.45,0,0,1,1.51,1.6,2.38,2.38,0,0,1,.17,1.6,10.35,10.35,0,0,0-.22,2.88,2.67,2.67,0,0,1-.93,2.22l-.57-1.37c-.38-.93-1.12-.81-1.77-.55s-.06.76.07,1.08c.21.51.42,1,.64,1.52a3.51,3.51,0,0,1-1.48-.2,3.2,3.2,0,0,0-2.25-.26c-.12,0-.36.06-.41,0-.88-1-2.36-1-3.35-1.75s-.57-1.74-.22-2.67a4.47,4.47,0,0,0,.55-1.8c-.08-1.09.64-1.62,1.62-1.88a3.05,3.05,0,0,0,1.47-1,2.67,2.67,0,0,1,4-.28A3.59,3.59,0,0,0,43.3,37.19Zm-1.64,4.38c.55-.14.71-.59.6-1.16-.39-.39-.76-.92-1.58-.61-.53.19-.89.6-.64,1A1.41,1.41,0,0,0,41.66,41.57Z"/><path class="cls-2" d="M51.11,56.38a2,2,0,0,1,1.14-.1,8,8,0,0,1-1.75,1.1,1,1,0,0,0-.21.13C50.19,57,50.48,56.64,51.11,56.38Z"/><path class="cls-2" d="M53.4,65.55a1,1,0,0,1,1.16.56,1.13,1.13,0,0,1-.39,1.3C53.92,66.78,53.66,66.17,53.4,65.55Z"/><path class="cls-2" d="M47.66,46.11a1,1,0,0,1-1,.58,4.53,4.53,0,0,0-2.2.19c-.09-.18-.16-.37-.24-.56a7.31,7.31,0,0,0,1.35-1.83A5.11,5.11,0,0,0,47.66,46.11Z"/><path class="cls-2" d="M37.18,16c-.5.72-1,1.37-.71,2.18.1.3-.17.41-.44.5a6.74,6.74,0,0,0-1.5.48c-1.21.66-1.39.13-1.29-.82,0-.1-.05-.21,0-.3.09-.47-.54-1-.07-1.31a3.25,3.25,0,0,1,2-.55A4.74,4.74,0,0,0,37.18,16Z"/><path class="cls-2" d="M53.4,65.55c.26.62.52,1.23.77,1.86a1.9,1.9,0,0,1-.6.37c-.88.37-.44-.61-.75-.72-.33-.58-.53-1.13.27-1.43A1.09,1.09,0,0,1,53.4,65.55Z"/><path class="cls-2" d="M30.27,7.19c.73.07,1.56.12,1.6,1s-.66,1.19-1.39,1.46-1.48.47-1.84-.48c-.13-.35-.55-.59-.82-.89s-.63-.21-.45-.58.5-.31.8-.38A6.48,6.48,0,0,1,30.27,7.19Z"/><path class="cls-2" d="M51.37,60.74c.07.17.15.34.21.52C51.42,61.16,51.41,60.92,51.37,60.74Z"/><path class="cls-2" d="M51.29,60.56s0,0,0,0a1.47,1.47,0,0,1-.26-.64Z"/><path class="cls-3" d="M51.86,64.93c.81,2.08,1.59,4.17,2.3,6.29.15.44.73,1.08,0,1.4s-1-.42-1.19-1l-2.52-6,.47-.07c.52-.09.82-.24.69-.59Z"/><path class="cls-3" d="M51.86,64.93l-.29.11a1,1,0,0,0-.15-.25c-.21-1-1.09-1-1.87-1.15-1-2.32-1.95-4.64-2.93-7a10.48,10.48,0,0,0,2,.05c.14.32.27.65.42,1C50,60.11,50.94,62.5,51.86,64.93Z"/><path class="cls-2" d="M31.69,13.8c.95-.32,1,.45,1.24,1-.15.35.65.85-.13,1.08s-1.28-.45-1.6-1A.69.69,0,0,1,31.69,13.8Z"/><path class="cls-2" d="M51.42,64.79a1,1,0,0,1,.15.25c.13.35-.17.5-.69.59l-.47.07c-.28-.69-.57-1.38-.86-2.06C50.33,63.77,51.21,63.84,51.42,64.79Z"/><path class="cls-2" d="M44.73,47.65c1.26,3,2.56,6.06,3.84,9.09a10.48,10.48,0,0,1-2-.05q-1.69-4-3.38-8.07a3.28,3.28,0,0,1,1.39-.93Z"/><path class="cls-3" d="M44.73,47.65l-.1,0a3.28,3.28,0,0,0-1.39.93c-.12-.26-.23-.52-.34-.79a4.32,4.32,0,0,1,1.51-.95C44.51,47.14,44.62,47.4,44.73,47.65Z"/><path class="cls-2" d="M44.17,46.32c.08.19.15.38.24.56a4.32,4.32,0,0,0-1.51.95c-.13-.31-.26-.6-.38-.91a2.55,2.55,0,0,1,1-.33A1.49,1.49,0,0,0,44.17,46.32Z"/><path class="cls-3" d="M43.83,45.49c.11.27.23.55.34.83a1.49,1.49,0,0,1-.66.27,2.55,2.55,0,0,0-1,.33l-.32-.75A2.89,2.89,0,0,0,43.83,45.49Z"/><path class="cls-3" d="M43.26,44.12l.57,1.37a2.89,2.89,0,0,1-1.63.68c-.22-.51-.43-1-.64-1.52-.13-.32-.77-.8-.07-1.08S42.88,43.19,43.26,44.12Z"/><path class="cls-2" d="M42.26,40.41c.11.57,0,1-.6,1.16A1.41,1.41,0,0,1,40,40.84c-.25-.44.11-.85.64-1C41.5,39.49,41.87,40,42.26,40.41Z"/><path class="cls-3" d="M35.39,29.45a3.8,3.8,0,0,1,3,3.08,5.09,5.09,0,0,0,1,2.25c-1.35.73-1.35.73-1.87-.44C36.86,32.75,36.15,31.17,35.39,29.45Z"/><path class="cls-2" d="M49.55,63.64c.29.68.58,1.37.86,2.06a5.65,5.65,0,0,1-1.16,0c-.19-.5-.36-1-.55-1.5.29-.11.4-.3.15-.66a2.28,2.28,0,0,1,.52,0A1,1,0,0,0,49.55,63.64Z"/><path class="cls-2" d="M31.59,16.74c.46-.11.48.38.63.71-.06.32.46.81-.14,1s-.67-.38-.8-.76S31.07,16.87,31.59,16.74Z"/><path class="cls-2" d="M43.24,48.62q1.68,4,3.38,8.07a7.26,7.26,0,0,1-2.06-.62,3.22,3.22,0,0,1-2-3.15c0-.82,0-1.65,0-2.47A2.6,2.6,0,0,1,43.24,48.62Z"/><path class="cls-3" d="M32,19.31c.59.11.82.5.64.84a11,11,0,0,0-.62,2.4c-.14-.19-.25-.25-.24-.33.19-2.24-1.74-3.58-2.4-5.48S27.76,13,26.92,11.09c1-.09,1.7.17,2,1.14a37.41,37.41,0,0,0,1.43,3.48,1.52,1.52,0,0,1,0,1.17A1.86,1.86,0,0,0,32,19.31Z"/><path class="cls-2" d="M47.46,59.7c.32.43.19.64-.18.76-.21-.57-.44-1.14-.67-1.7A1.23,1.23,0,0,1,47.46,59.7Z"/><path class="cls-2" d="M48.85,63.57c.25.36.14.55-.15.66l-.23-.6A1,1,0,0,1,48.85,63.57Z"/><path class="cls-2" d="M48.82,63.52a.05.05,0,0,1,0,0,1,1,0,0,0-.38.06c-.12-.34-.24-.67-.37-1A1.8,1.8,0,0,1,48.82,63.52Z"/><path class="cls-2" d="M42.52,46.92c.12.31.25.6.38.91a6.14,6.14,0,0,0-.75.84.63.63,0,0,1-.57.29.33.33,0,0,1,0-.12A2.26,2.26,0,0,1,42.52,46.92Z"/><path class="cls-2" d="M48.1,62.62c.13.34.25.67.37,1a.73.73,0,0,0-.49.56,1.55,1.55,0,0,0,0,.21,2.45,2.45,0,0,1-2-.67c-.26-.23-.57-.48-.43-.86s.6-.53,1-.59A2.15,2.15,0,0,1,48.1,62.62Z"/><path class="cls-2" d="M48.47,63.63l.23.6a1.77,1.77,0,0,1-.53.14l-.23,0a1.55,1.55,0,0,1,0-.21A.73.73,0,0,1,48.47,63.63Z"/><path class="cls-2" d="M46.61,58.76c.23.56.46,1.13.67,1.7l-.36.08a4.75,4.75,0,0,1-2.09,0,1.08,1.08,0,0,1-.8-1.45c.18-.69.84-.67,1.38-.57A7.72,7.72,0,0,1,46.61,58.76Z"/><path class="cls-2" d="M48.7,64.23c.19.51.36,1,.55,1.5l-.47-.1a1,1,0,0,1-.84-1.23l.23,0A1.77,1.77,0,0,0,48.7,64.23Z"/><path class="cls-2" d="M27.48,9.14c.29.29.65.54.61,1,0,.17-.19.2-.34.16a1.54,1.54,0,0,1-1.13-.85.77.77,0,0,1,.17-.81A8.24,8.24,0,0,1,27.48,9.14Z"/><path class="cls-2" d="M36.75,34.73c.68,1.52.67,1.51-.9,2.3a2.46,2.46,0,0,0-1.68,2.42,2.71,2.71,0,0,1-.75,1.84c-.71-.62-1.15-1.46-2.16-1.8a6.75,6.75,0,0,1,2.89-2.28c.74-.24.9-1,1.05-1.56A3.41,3.41,0,0,1,36.38,34Z"/><path class="cls-2" d="M35.73,32.37c.33.61.14,1-.46,1.4-1.54-2.29-3-4.59-5.7-6.05a11.09,11.09,0,0,1,2-1.42A3.4,3.4,0,0,0,33.91,29c.4.13.5.45.64.76C34.94,30.64,35.27,31.53,35.73,32.37Z"/><path class="cls-2" d="M44.85,57.22c.42.58,0,.75-.66.86a2.52,2.52,0,0,1-2.2-.65c-.26-.23-.56-.47-.43-.86s.59-.53,1-.58l.21,0a7.44,7.44,0,0,0,1.41.82c.17.08.36.14.54.21A2.26,2.26,0,0,1,44.85,57.22Z"/><path class="cls-2" d="M25.25,7.5c.41-.16.84.06.82.4a5.84,5.84,0,0,1-.52,1.4c-.54-.11-1-.26-1-.72A1,1,0,0,1,25.25,7.5Z"/><path class="cls-2" d="M44.74,57c-.18-.07-.37-.13-.54-.21A7.44,7.44,0,0,1,42.79,56,2,2,0,0,1,44.74,57Z"/><path class="cls-2" d="M28.68,19.75c1.38-.24,2.31.47,1.92,1.39a.94.94,0,0,1-.43.47c-.17.06-.26-.17-.35-.32a9.19,9.19,0,0,0-.52-.85C29.13,20.2,28.9,20,28.68,19.75Z"/><path class="cls-2" d="M38.57,46.52c1.77-.27,2.52.42,2.24,2a1.82,1.82,0,0,0,.3,1.56c1.42,1.68.34,4.7-1.19,6.06a3.61,3.61,0,0,1-4.44.24,4.39,4.39,0,0,0-2.89-.94,1.84,1.84,0,0,1-1.86-2.55,3.07,3.07,0,0,0-.07-2.76A1.61,1.61,0,0,1,31,48.46a7.68,7.68,0,0,1,3.91-2.79,1.64,1.64,0,0,1,2.19.44A1.51,1.51,0,0,0,38.57,46.52Z"/><path class="cls-2" d="M31,22.73A4.51,4.51,0,0,1,31.56,24a1.59,1.59,0,0,1-1,2,8.84,8.84,0,0,0-1.37,1,10,10,0,0,0,1-4.06.44.44,0,0,1,.36-.48C30.91,22.28,30.9,22.57,31,22.73Z"/><path class="cls-2" d="M28.68,17.5c.76,1.45.52,1.62-2.53,1.75A29.27,29.27,0,0,1,28.68,17.5Z"/><path class="cls-2" d="M28.17,16.17a.57.57,0,0,1-.37.79c-.58.14-.81-.32-1-.71s-.11-.66.32-.75C27.73,15.36,27.92,15.84,28.17,16.17Z"/><path class="cls-2" d="M23.7,5.88c.34.27,1,.53.82.93s-.73,1-.94,1.54c-.07.15-.28.07-.4,0A3.32,3.32,0,0,1,21,6.61a1.2,1.2,0,0,1,.21-1.45c.49-.41,1-.15,1.45.07A5.19,5.19,0,0,1,23.7,5.88Z"/><path class="cls-2" d="M33.74,33a4.53,4.53,0,0,1,.65,1.37,1.49,1.49,0,0,1-.34,1.67c-1.43,1-2.67,2.19-3.65,2.87-2.94,1-4.39.23-4.8-2a3,3,0,0,0-1.39-2c-.66-.45-.69-1-.34-1.7a7.5,7.5,0,0,1,3.68-4.09c1.64-.73,2.26-.63,3.4.53A24.79,24.79,0,0,1,33.74,33Z"/><path class="cls-2" d="M25.59,11.48c.16.36-.38.79-.78.9-.7.17-.71-.51-1-.85s-.11-.45.35-.56S25.38,11,25.59,11.48Z"/><path class="cls-2" d="M27.24,20.07a2.5,2.5,0,0,1,1.94,2.08c.53,1.89-.37,3.55-1.56,5.41a18.15,18.15,0,0,0-3.18-4.26.94.94,0,0,1,.09-1.52c.11-.09.18-.23.28-.33C25.5,20.78,26.13,19.89,27.24,20.07Z"/><path class="cls-2" d="M26.64,17.53c.43.35-.28.59-.54.8A34.18,34.18,0,0,1,18.79,23a9.51,9.51,0,0,1-1.12.3c-.71.14-1.41.12-1.74-.53a1.56,1.56,0,0,1,.43-1.83,9,9,0,0,1,2.47-1.58c2-1,4.17-1.79,6.29-2.63C26.25,16.23,26.23,17.2,26.64,17.53Z"/><path class="cls-2" d="M22,11.66a1.2,1.2,0,0,1,1.38.87c.19.54-.48.65-.81.86A38.92,38.92,0,0,1,17,16.49c-.69.13-1.57.88-2.12.18s.2-1.48.75-2.06A9.34,9.34,0,0,1,22,11.66Z"/><path class="cls-2" d="M30.72,40.17c1.26.77,2.5,1.56,2.62,3.16a2.26,2.26,0,0,0,1.1,1.59A20.84,20.84,0,0,0,31,47a3.66,3.66,0,0,1-2.7.2c-1.9-.43-3.26-1.43-3.62-3.31a3.32,3.32,0,0,0-.79-1.52,2.29,2.29,0,0,1-.09-3c.56-1,.88-1,1.66-.27a4.06,4.06,0,0,0,3.86.95A1.64,1.64,0,0,1,30.72,40.17Z"/><path class="cls-2" d="M26.38,27.08a1.47,1.47,0,0,1-.5,2.19,6.57,6.57,0,0,0-2.2,2.58c-.42.92-1.07.83-1.54.3A9.23,9.23,0,0,0,19.4,29.7a1.2,1.2,0,0,1-.57-1.35,23.16,23.16,0,0,0,.4-3.27,2.53,2.53,0,0,1,2-2.13,1.5,1.5,0,0,1,2.18.44C24.34,24.68,25.56,25.74,26.38,27.08Z"/><path class="cls-2" d="M30.08,51.06a1.32,1.32,0,0,1,0,1.19,2.79,2.79,0,0,0,1.23,3.81c.2.14.5.24.38.51a1,1,0,0,1-.58.3,4,4,0,0,1-4.82-2.76,7.83,7.83,0,0,0-1.05-2.73,3.72,3.72,0,0,1,.49-3.64.69.69,0,0,1,.95-.23,6.34,6.34,0,0,0,1.65.52,11.35,11.35,0,0,0,1.93,0A2.73,2.73,0,0,0,30.08,51.06Z"/><polygon class="cls-4" points="33.55 90.23 44.45 90.23 39 80.79 33.55 90.23"/><text class="cls-5" transform="translate(11.32 107.76)">魯冰花</text></g></g></svg>