<svg xmlns="http://www.w3.org/2000/svg" viewBox="0 0 78 115.03"><defs><style>.cls-1,.cls-12,.cls-13{fill:#534741;}.cls-1{stroke:#736357;stroke-miterlimit:10;stroke-width:3px;}.cls-2{fill:#9bab3d;}.cls-3{fill:#89c33f;}.cls-4{fill:#ef333c;}.cls-5{fill:#ed202a;}.cls-6{fill:#ffe1e4;}.cls-7{fill:#e5a229;}.cls-8{fill:#fefefe;}.cls-9{fill:#f73131;}.cls-10{fill:#fefafa;}.cls-11{fill:#f59e9f;}.cls-13{font-size:18px;font-family:KozGoPro-Bold-90ms-RKSJ-H, Kozuka Gothic Pro;letter-spacing:0.03em;}</style></defs><g id="圖層_2" data-name="圖層 2"><g id="圖層_1-2" data-name="圖層 1"><rect class="cls-1" x="1.5" y="1.5" width="75" height="75" rx="19.06"/><path class="cls-2" d="M59.84,1.77,59.67,2c0-.08.08-.18.12-.27S59.82,1.76,59.84,1.77Z"/><path class="cls-3" d="M41.86,32c-1.28.39-2.55.7-3.75,1.17-1.51.61-3,1.34-4.45,2a1.42,1.42,0,0,1-1.21.06A37.52,37.52,0,0,0,28,33.75a33.87,33.87,0,0,0-4.51-.55,17.36,17.36,0,0,0-2.16,0,.71.71,0,0,0-.76.79c0,.4.35.65.86.62a20.45,20.45,0,0,1,6.75.57c.87.24,1.75.5,2.61.77.15,0,.27.21.4.32a3.68,3.68,0,0,1-.33.35c-.13.1-.29.15-.42.25a1.56,1.56,0,0,1-2,.23,8.82,8.82,0,0,0-2.59-.67,21.89,21.89,0,0,0-5.54-.33L18,36.36a1.94,1.94,0,0,0-.33.07c-.47.15-.68.44-.6.84a.75.75,0,0,0,.89.55c.57-.06,1.13-.2,1.71-.21,1.46,0,2.93,0,4.38.06a25.41,25.41,0,0,1,3.12.53,1.93,1.93,0,0,1,.55.32l-.4.37a3.57,3.57,0,0,0-.38.3c-.63.69-1.46.5-2.24.46a62.19,62.19,0,0,0-9.84.34c-.37,0-.73.07-1.09.12A.77.77,0,0,0,13,41a.75.75,0,0,0,.9.53,63.49,63.49,0,0,1,9.65-.5,3.56,3.56,0,0,0,.47-.05l0,.29a4.08,4.08,0,0,1-2,1.23c-3.27.46-6.52,1-9.78,1.5-.55.09-.77.39-.7.84s.41.65,1,.56c1.12-.19,2.24-.42,3.36-.61,1.4-.23,2.81-.43,4.21-.64a1.36,1.36,0,0,1,.44.08,1.58,1.58,0,0,1-.19.44c-.28.34-.62.65-.89,1A2,2,0,0,1,18,46.4l-5.67.9c-.49.07-1,.16-1.46.27s-.73.42-.64.88a.76.76,0,0,0,.92.49c.69-.11,1.38-.25,2.08-.35,1.17-.18,2.34-.34,3.51-.5a2,2,0,0,1,.52.08,3.16,3.16,0,0,1-1.39,1.49c-2,.79-3.95,1.61-5.93,2.42l-.85.32a.78.78,0,0,0-.51,1c.15.38.53.51,1,.32l4.74-1.9a1.86,1.86,0,0,1,.48-.06c0,.19,0,.44-.16.54s-.58.35-.84.55c-.77.63-1.54,1.27-2.29,1.92-1.1,1-2.19,1.92-3.28,2.89a.7.7,0,0,0-.17,1,.84.84,0,0,0,1.09.05c.87-.74,1.72-1.5,2.58-2.24.54-.48,1.08-1,1.64-1.41.11-.09.35-.18.41-.13a.59.59,0,0,1,.18.45c-.17,1.36-.37,2.72-.57,4.08-.08.58-.18,1.17-.25,1.75s.2.71.67.77a.68.68,0,0,0,.74-.61c.31-2.24.58-4.49.93-6.73a6.11,6.11,0,0,1,1-2.68,3.86,3.86,0,0,1,.42-.43c.11.6.2,1.07.29,1.55.35,2.08.71,4.15,1.07,6.23.09.53.41.78.84.71s.65-.37.55-.94c-.27-1.6-.58-3.19-.85-4.78-.24-1.4-.45-2.81-.67-4.21-.11-.71.28-1.15.88-1.66.15.65.26,1.21.39,1.75.37,1.53.73,3,1.12,4.57a.77.77,0,0,0,1,.63c.38-.13.53-.53.4-1-.32-1.21-.68-2.41-.94-3.62s-.44-2.46-.65-3.69a.44.44,0,0,1,.07-.3c.39-.44.79-.87,1.19-1.3l.17,0c.12.53.25,1.06.36,1.59q.7,3.48,1.42,7a.72.72,0,0,0,.79.6.66.66,0,0,0,.55-.86c-.26-1.41-.54-2.82-.82-4.23-.34-1.71-.69-3.42-1-5.13A.52.52,0,0,1,23,44c.48-.44,1-.86,1.5-1.28a1.39,1.39,0,0,1,.3-.09c.14.71.27,1.4.4,2.08l.93,5.19a.72.72,0,0,0,.8.65.68.68,0,0,0,.56-.82c-.19-1.25-.41-2.49-.63-3.73-.25-1.41-.52-2.81-.77-4.21a.47.47,0,0,1,.1-.37c.26-.23.55-.42.92-.69.13.42.27.77.35,1.13q.69,3,1.35,6.1c.08.36.24.66.59.73a.83.83,0,0,0,.64-.19.82.82,0,0,0,.2-.63c-.58-2.59-1.19-5.17-1.78-7.76a.37.37,0,0,1,.06-.33c.55-.37,1.11-.72,1.78-1.15.16.65.32,1.16.41,1.69.33,1.87.64,3.75,1,5.63a1.34,1.34,0,0,0,.24.75,1.08,1.08,0,0,0,.82.17c.38-.1.43-.5.38-.84-.15-1.1-.3-2.19-.51-3.27-.3-1.54-.67-3.06-1-4.59a.49.49,0,0,1,.19-.41c.4-.27.83-.49,1.25-.73s.48-.09.54.26c.19,1.27.39,2.53.58,3.79a8.42,8.42,0,0,1,.08,1,1.26,1.26,0,0,1-.12.55c-.26.49-.18.94.23,1.15a.86.86,0,0,0,1.1-.52,2.38,2.38,0,0,0,.18-.83A24,24,0,0,0,35,36.65a.55.55,0,0,1,.34-.75,26.31,26.31,0,0,1,5-2c.48-.13,1-.23,1.43-.39a.54.54,0,0,0,.3-.38A8.91,8.91,0,0,0,41.86,32Z"/><path class="cls-3" d="M28.8,30.84c1.47.59,2.93,1.07,4.29,1.74,1.73.85,3.38,1.86,5,2.82a1.65,1.65,0,0,0,1.42.19A42.31,42.31,0,0,1,45,34.28a39.7,39.7,0,0,1,5.35-.21,18.08,18.08,0,0,1,2.53.26.84.84,0,0,1,.83,1c-.06.47-.48.73-1.08.64a24.08,24.08,0,0,0-8,0c-1.05.2-2.1.42-3.15.65a1.93,1.93,0,0,0-.5.34,4,4,0,0,0,.37.45c.13.13.32.2.46.33a1.86,1.86,0,0,0,2.29.46,10,10,0,0,1,3.11-.54,25.13,25.13,0,0,1,6.54.13l2.78.47a2.4,2.4,0,0,1,.38.12c.54.21.76.58.63,1a.9.9,0,0,1-1.09.57,17.58,17.58,0,0,0-2-.41c-1.72-.16-3.45-.33-5.17-.35a29.2,29.2,0,0,0-3.72.33,2.16,2.16,0,0,0-.67.32c.14.16.28.32.43.47s.3.24.42.39c.68.88,1.67.73,2.59.76a72.21,72.21,0,0,1,11.54,1.33c.43.09.86.15,1.28.24a.92.92,0,0,1,.73,1.11.88.88,0,0,1-1.1.54,74.23,74.23,0,0,0-11.31-1.51,5.3,5.3,0,0,1-.55-.1v.34a4.82,4.82,0,0,0,2.25,1.64c3.8.85,7.58,1.78,11.36,2.69.63.16.87.54.74,1.06s-.54.72-1.17.56c-1.3-.33-2.59-.71-3.89-1q-2.44-.6-4.9-1.15a1.56,1.56,0,0,0-.52.05,2.21,2.21,0,0,0,.18.53c.31.43.67.82.95,1.27a2.46,2.46,0,0,0,1.63,1l6.58,1.58c.57.14,1.14.29,1.69.47s.83.56.68,1.09a.9.9,0,0,1-1.13.49c-.81-.19-1.61-.42-2.42-.61-1.35-.32-2.71-.63-4.07-.92a2.15,2.15,0,0,0-.63.05,3.68,3.68,0,0,0,1.5,1.88c2.25,1.11,4.49,2.27,6.73,3.4l1,.47a.91.91,0,0,1,.5,1.25c-.21.43-.67.54-1.22.27l-5.39-2.68a2,2,0,0,0-.56-.11c0,.22,0,.51.14.65s.65.46.93.73c.85.8,1.69,1.62,2.51,2.46,1.21,1.23,2.4,2.47,3.59,3.71a.82.82,0,0,1,.1,1.2,1,1,0,0,1-1.29,0c-.94-.95-1.88-1.92-2.82-2.88-.59-.61-1.18-1.22-1.79-1.81-.12-.12-.39-.24-.47-.19a.69.69,0,0,0-.26.51c.08,1.62.18,3.24.28,4.85.05.7.1,1.4.13,2.09,0,.52-.29.81-.86.83a.77.77,0,0,1-.8-.77c-.16-2.67-.27-5.34-.47-8a7.18,7.18,0,0,0-.9-3.25,5.62,5.62,0,0,0-.46-.54c-.18.69-.34,1.24-.48,1.79-.62,2.41-1.23,4.82-1.85,7.23-.16.62-.56.88-1.06.75s-.73-.49-.56-1.16c.47-1.85,1-3.69,1.46-5.54.41-1.62.79-3.25,1.18-4.88.2-.83-.22-1.39-.88-2-.23.76-.41,1.4-.62,2q-.85,2.64-1.75,5.27a.91.91,0,0,1-1.18.65c-.45-.19-.59-.67-.38-1.26.49-1.39,1-2.77,1.45-4.18s.75-2.84,1.11-4.27a.45.45,0,0,0-.05-.36c-.41-.56-.85-1.1-1.28-1.64h-.2c-.19.61-.39,1.22-.57,1.83-.78,2.68-1.55,5.37-2.34,8.05a.84.84,0,0,1-1,.62.79.79,0,0,1-.57-1.06q.67-2.46,1.38-4.9c.56-2,1.13-3.95,1.69-5.93a.58.58,0,0,0-.06-.47c-.53-.56-1.08-1.1-1.64-1.64-.06-.06-.16-.07-.35-.14-.23.82-.45,1.61-.66,2.4l-1.59,6a.85.85,0,0,1-1,.69.82.82,0,0,1-.59-1c.35-1.44.72-2.89,1.1-4.33.43-1.62.88-3.25,1.31-4.87a.57.57,0,0,0-.08-.45c-.29-.3-.62-.55-1-.9-.2.49-.39.89-.52,1.3-.73,2.35-1.45,4.69-2.16,7-.13.42-.35.76-.77.81a.84.84,0,0,1-.91-1c.93-3,1.89-6,2.83-9,0-.12,0-.34,0-.39-.61-.5-1.24-1-2-1.53-.24.74-.48,1.34-.64,1.95-.57,2.17-1.1,4.35-1.67,6.53-.08.3-.14.7-.36.85a1.24,1.24,0,0,1-1,.13c-.44-.16-.46-.63-.36-1,.28-1.27.55-2.54.91-3.8.5-1.77,1.07-3.52,1.59-5.29a.59.59,0,0,0-.19-.51c-.45-.35-.93-.65-1.4-1s-.56-.15-.66.25c-.35,1.47-.7,2.94-1,4.41a8.92,8.92,0,0,0-.19,1.17,1.32,1.32,0,0,0,.09.65c.25.6.12,1.12-.39,1.33a1,1,0,0,1-1.24-.71,2.9,2.9,0,0,1-.13-1A28.63,28.63,0,0,1,36.48,37a.64.64,0,0,0-.33-.91,31.63,31.63,0,0,0-5.67-2.84c-.55-.2-1.12-.37-1.65-.6a.64.64,0,0,1-.32-.47A9.72,9.72,0,0,1,28.8,30.84Z"/><path class="cls-4" d="M32.79,34.11c-2.88-1.8-5.38-3.93-6.35-7.37a8.15,8.15,0,0,1-.23-3.8,5,5,0,0,0-.06-2,3.21,3.21,0,0,0-3.24-2.6.94.94,0,0,0-.81.46,1.31,1.31,0,0,1-1.66.45c-1.16-.45-2.11.23-3.07.73-.34.17-.64.42-1,.6-1.28.64-2.26,1.43-2.14,3.1.08,1.14-.83,1.71-1.69,2.21A6.45,6.45,0,0,0,10,28.16a4.61,4.61,0,0,0-.68,2.73,1,1,0,0,0,.69,1,3,3,0,0,1,2,2.77,4.2,4.2,0,0,0,2.84,3.49.7.7,0,0,0,.88-.15,9.73,9.73,0,0,1,5.85-2.47,12.56,12.56,0,0,1,5.09.53c1.67.52,3.4.78,5.09,1.19.39.09.78.2,1.36.35a21.51,21.51,0,0,0-5.37,1.52,7.18,7.18,0,0,0-3,2.93,1,1,0,0,0,.38,1.51,5.89,5.89,0,0,0,3.33,1,13.49,13.49,0,0,1,4.94-5,24.94,24.94,0,0,1,15-3.78,9.77,9.77,0,0,1,7,3.21l.2.17h0a6.42,6.42,0,0,1,3,2.63,6.4,6.4,0,0,0,2.21,2.15,3.21,3.21,0,0,0,3.68-.75,1,1,0,0,0,.14-.78,1.09,1.09,0,0,1,.82-1.24A2.52,2.52,0,0,0,67,39.55a26.61,26.61,0,0,0,1.24-3.72A1.25,1.25,0,0,0,68,34.61c-.17-.21-.28-.47-.46-.67a2.5,2.5,0,0,1-.44-2.67,13.5,13.5,0,0,0,.65-2.36,4.78,4.78,0,0,0-.74-3.2c-.6-1-1-1.15-2.14-.9a3.21,3.21,0,0,1-3-1,4.15,4.15,0,0,0-4.13-.8A1,1,0,0,0,57,24c-.82,4.58-3.91,7.11-8,8.78,0,0-.11,0-.16,0l-.06.08s0,0,0,0,0,0,.06,0A8.36,8.36,0,0,0,51,28.58c.27-1.52-.08-1.91-1.61-2-2.24-.09-3.71,1.24-5.13,2.67a25,25,0,0,0-2.79,3.24c-.18,0-.21-.06-.2-.13.28-3.27.83-6.46,3.24-9a8.59,8.59,0,0,1,3.22-2.19,5.72,5.72,0,0,0,2.49-1.53A3.17,3.17,0,0,0,50.55,16a.87.87,0,0,0-.64-.43c-.71-.15-1.24-.45-1.26-1.34s-.7-1.34-1.32-1.79a25,25,0,0,0-2.93-1.8,1.66,1.66,0,0,0-1.78,0c-1.45.9-2.68.42-3.94-.44a4.9,4.9,0,0,0-4.9-.61c-1,.41-1.24.75-1.15,1.81a2.9,2.9,0,0,1-1.57,2.6A4.29,4.29,0,0,0,29.32,18a.78.78,0,0,0,.57.77c4.08,1.62,5.91,5,6.86,9,.24,1,.43,2.08.65,3.11a1.83,1.83,0,0,1,.13.16l-.05.05-.07-.22c-.76-1-1.42-2-2.27-3a7.19,7.19,0,0,0-3.81-2.08c-1.07-.26-1.41,0-1.64,1.13a5,5,0,0,0,.64,3.68,18.51,18.51,0,0,0,2,2.6,2.36,2.36,0,0,1,.56.8l.14.19.2,0-.05.09L33,34.24Z"/><path class="cls-5" d="M44.82,32.9a26.42,26.42,0,0,1,2.73-2.56,2.56,2.56,0,0,1,3.13.13,1.23,1.23,0,0,1,.57,1.3.74.74,0,0,0,.33.9,2.63,2.63,0,0,1,1.47,2,18.35,18.35,0,0,1,.5,2.76A1.38,1.38,0,0,1,53,38.73a2.66,2.66,0,0,0-.87,3,4.29,4.29,0,0,1-.64,3.91c-.68.89-1,1-2.09.62a2.57,2.57,0,0,0-2.44.54,3.4,3.4,0,0,1-2.75.51,4,4,0,0,1-.46-.13,1.17,1.17,0,0,1-1-1.24,8.42,8.42,0,0,0-2.46-5.59,5.52,5.52,0,0,1-.43-.53c.26-.33.7-.6.46-1.1a1.23,1.23,0,0,0-1.25-.64,7.5,7.5,0,0,0-1.14.18,13.61,13.61,0,0,1-2.79-1.72c.47.75,1.18,1.28,1.58,2a5.58,5.58,0,0,1-2.37-.6,10.13,10.13,0,0,1-4.21-3.94c-1.13-1.77-1.26-1.43.52-2.6l.11-.08a8.11,8.11,0,0,1,4.69-1.48,8.61,8.61,0,0,1,2.94.87c0,.76.51,1.14,1,1.57-1.27.64-2.72.61-4.2,1,2.74.77,5.34,1.24,8,.31a2.68,2.68,0,0,0,.81,1.62.89.89,0,0,0,.89.19c.35-.13.44-.42.51-.75C45.6,34,45.12,33.47,44.82,32.9Z"/><path class="cls-6" d="M22,26.29a6.08,6.08,0,0,1,.23-3.48L23,23a8.22,8.22,0,0,0,0,3.56,4.43,4.43,0,0,0,1.18,2.29,6.15,6.15,0,0,0,2,2.17,13.93,13.93,0,0,0,5,2.63l.09.07-.07-.09a35.16,35.16,0,0,1-3-3.6c0-.45-.45-.65-.66-1,.07-.38-.18-.67-.3-1a8.78,8.78,0,0,1,.33-7.3,11.71,11.71,0,0,1,2.77-3.52c.24.12.41.35.7.37a16.22,16.22,0,0,0-2.47,3.13A2.84,2.84,0,0,0,28,22.35,2.83,2.83,0,0,0,27.55,24c-.24,3,1.08,5.39,2.95,7.55A3.76,3.76,0,0,0,32,32.88a.36.36,0,0,0,.19.31l.09.06-.07-.08a.39.39,0,0,0-.15-.34l-.39-.89a17.44,17.44,0,0,1-1.92-7.1c.19-4.62,3.23-6.52,7-7.37.53-.12,1.08-.17,1.62-.24l0,.77c-.21,0-.42.07-.63.12-1.14.3-2.36.34-3.33,1.11a2.06,2.06,0,0,0-1.3.59l-.17.23h0a4.45,4.45,0,0,0-2.08,2.81,7.31,7.31,0,0,0,.41,5.41A7.54,7.54,0,0,0,32.79,32c0,.08.05.15.08.22l.06,0L32.82,32l-.54-2.55-.15-1c.3-.26.14-.61.17-.92a7,7,0,0,1,2.28-4.69c.1.22.35.36.36.63a10.66,10.66,0,0,0-1.65,3.26A9.81,9.81,0,0,0,34,32.53s0,.09.07.14c1,2.33.63,2.12,2.95,1.16a12.06,12.06,0,0,0,5.52-4.09,6.85,6.85,0,0,0,1.21-2.66l.27-.8.72.16a2.45,2.45,0,0,1-.14,1,10.63,10.63,0,0,1-5.17,6.15c-1,.59-2.1,1-3.26,1.58a19.38,19.38,0,0,0,9-.3c.45-.13,1-.19,1.24-.68,2-.57,3.1-2.11,3.91-3.89a14.57,14.57,0,0,0,.56-1.61l.75.18a10.1,10.1,0,0,1-1.48,3.61h0l-.18.18a9.77,9.77,0,0,1-6.84,3.58A24.89,24.89,0,0,1,28,33.3a13.41,13.41,0,0,1-5.2-4.74A10,10,0,0,1,22,26.29ZM33,32.74s.05,0,.05,0,0,0,0-.06l-.07,0Z"/><path class="cls-5" d="M46.45,34.23c-.27.49-.79.55-1.24.68a19.38,19.38,0,0,1-9,.3c1.16-.61,2.26-1,3.26-1.58a10.63,10.63,0,0,0,5.17-6.15,2.45,2.45,0,0,0,.14-1l.17,0c.92,0,1.85,0,2.78,0,1.27.05,1.57.46,1.35,1.71a5.14,5.14,0,0,1-2.26,3.45,30.05,30.05,0,0,1-5,2.65A25.76,25.76,0,0,0,46.45,34.23Z"/><path class="cls-5" d="M29.7,24.84a17.44,17.44,0,0,0,1.92,7.1l.39.89-.06.05a3.76,3.76,0,0,1-1.45-1.29C28.63,29.43,27.31,27,27.55,24A2.83,2.83,0,0,1,28,22.35C28.67,23.12,29,24.12,29.7,24.84Z"/><path class="cls-7" d="M51.67,28.91l-.75-.18A2.74,2.74,0,0,1,51,26.08c.29-.45.66-.85,1.26-.68s.7.63.75,1.15A2.24,2.24,0,0,1,51.67,28.91Z"/><path class="cls-7" d="M31.05,17.63c-.29,0-.46-.25-.7-.37a2.37,2.37,0,0,1,1.16-2.64,1,1,0,0,1,1.22,0,1,1,0,0,1,.33,1.18A2.33,2.33,0,0,1,31.05,17.63Z"/><path class="cls-7" d="M38.39,18l0-.77.42-.78c.74-.24,1.44-.69,2.27-.36.38.15.7.33.77.76a1.05,1.05,0,0,1-.41,1,3,3,0,0,1-2.07.6Z"/><path class="cls-7" d="M44.94,26.42l-.17,0-.72-.16a.91.91,0,0,0-.41-.7,10.26,10.26,0,0,1,0-1.36,1.47,1.47,0,0,1,1-1.34c.64-.17.87.4,1.19.77C46,24.72,46.12,25.79,44.94,26.42Z"/><path class="cls-8" d="M27.88,38.59l.16-.12.05.08-.2.06Z"/><path class="cls-8" d="M32.48,41.72l.06-.22.05,0-.12.17Z"/><path class="cls-8" d="M50,32.69l.18-.18Z"/><path class="cls-8" d="M27.89,38.61l-.12.2-.08-.08.19-.14Z"/><path class="cls-8" d="M43.8,39.25l-.06,0a.07.07,0,0,1,0,0l.06.08Z"/><path class="cls-9" d="M38.39,18l1,.45c.52,3.31-.58,6.26-2.06,9.32-.15-1.83.19-3.51-.28-5.14.1-.45.41-.83.41-1.31,0-.75-.39-1.14-1.09-1-.19,0-.37.06-.56.09a1.93,1.93,0,0,0-1.33-1.14c1-.77,2.19-.81,3.33-1.11C38,18.07,38.18,18,38.39,18Z"/><path class="cls-7" d="M35.76,20.37c.19,0,.37-.07.56-.09.7-.1,1.1.29,1.09,1,0,.48-.31.86-.41,1.31-.61.46-1.18,1-2.06.81,0-.27-.26-.41-.36-.63A3.18,3.18,0,0,1,35.76,20.37Z"/><path class="cls-10" d="M43.64,25.58a.91.91,0,0,1,.41.7l-.27.8c-1,.31-1.76,1-2.74,1.42A15.71,15.71,0,0,0,43.64,25.58Z"/><path class="cls-7" d="M23,23l-.78-.22A2.62,2.62,0,0,1,22.49,20a1,1,0,0,1,1.07-.45,1,1,0,0,1,.73.8A2.19,2.19,0,0,1,23,23Z"/><path class="cls-10" d="M24.12,28.88a4.43,4.43,0,0,1-1.18-2.29,10.14,10.14,0,0,1,3.75,1.89l.86.59c.21.34.62.54.66,1A17,17,0,0,0,24.12,28.88Z"/><path class="cls-5" d="M35.76,20.37a3.18,3.18,0,0,0-1.18,2.44A7,7,0,0,0,32.3,27.5c0,.31.13.66-.17.92-.24-.24-.15-.57-.2-.85-.42-2.48-.53-4.92,1-7.14A1,1,0,0,0,33,20h0c.14,0,.17-.12.17-.23a2.06,2.06,0,0,1,1.3-.59A1.93,1.93,0,0,1,35.76,20.37Z"/><path class="cls-5" d="M24.12,28.88a17,17,0,0,1,4.09,1.18,35.16,35.16,0,0,0,3,3.6l0,0a13.93,13.93,0,0,1-5-2.63A6.15,6.15,0,0,1,24.12,28.88Z"/><path class="cls-10" d="M33,20a1,1,0,0,1-.05.39c-1.51,2.22-1.4,4.66-1,7.14.05.28,0,.61.2.85l.15,1c-.53-.25-.53-.91-1-1.21a7.31,7.31,0,0,1-.41-5.41A4.45,4.45,0,0,1,33,20Z"/><path class="cls-11" d="M31.29,28.26c.46.3.46,1,1,1.21L32.82,32l0,0A7.54,7.54,0,0,1,31.29,28.26Z"/><path class="cls-11" d="M32.82,32l.11.19-.06,0c0-.07,0-.14-.08-.22Z"/><path class="cls-11" d="M33,32.74l0-.06.07,0s0,0,0,.06S33.06,32.73,33,32.74Z"/><path class="cls-11" d="M32,32.83a.39.39,0,0,1,.15.34l0,0a.36.36,0,0,1-.19-.31Z"/><path class="cls-10" d="M33.13,19.82c0,.11,0,.21-.17.23Z"/><path class="cls-11" d="M32.16,33.17l.07.08-.09-.06Z"/><path class="cls-11" d="M31.17,33.66l.07.09-.09-.07Z"/><polygon class="cls-12" points="33.55 90.23 44.45 90.23 39 80.79 33.55 90.23"/><text class="cls-13" transform="translate(11.33 107.76)">鳳凰花</text></g></g></svg>