<svg xmlns="http://www.w3.org/2000/svg" viewBox="0 0 78 111.41"><defs><style>.cls-1,.cls-5,.cls-6{fill:#534741;}.cls-1{stroke:#736357;stroke-miterlimit:10;stroke-width:3px;}.cls-2{fill:#ffe029;}.cls-2,.cls-3,.cls-4{fill-rule:evenodd;}.cls-3{fill:#814c3c;}.cls-4{fill:#f7b728;}.cls-6{font-size:14px;font-family:KozGoPro-Bold-90ms-RKSJ-H, Kozuka Gothic Pro;letter-spacing:0.03em;}</style></defs><g id="圖層_2" data-name="圖層 2"><g id="圖層_1-2" data-name="圖層 1"><rect class="cls-1" x="1.5" y="1.5" width="75" height="75" rx="19.06"/><path class="cls-2" d="M41.25,39.56c-1.37,5.06-7.19,4-8.55,4.71s-1.2,5.61-6.92,5.6c-4.93,0-7.53-4.56-9.11-6-2.38-2.16-6.36-5-5.8-8.38.63-3.75,6.41-4,7.65-5.15s2.82-4.8,6.47-4.77c4.63,0,6.25,3.65,8.52,5.59S42.38,35.36,41.25,39.56Z"/><path class="cls-2" d="M22.39,32.17c-.9-6.84,6.52-8.54,7.78-10.06s-1.36-7.42,5.42-10.31c5.85-2.49,11.2,1.71,13.8,2.65,3.89,1.41,10,2.81,11,7.21,1.13,4.87-5.61,8.08-6.49,10.14-1,2.24-1,7.25-5.3,9.08-5.5,2.31-9.24-1.26-12.89-2.46S23.14,37.84,22.39,32.17Z"/><path class="cls-2" d="M53.26,45.83c-4.9,4.84-10.74,0-12.72-.13s-5.08,5.57-11.48,1.91c-5.52-3.16-5.41-10-6.23-12.59-1.23-4-3.81-9.69-.92-13.16,3.2-3.84,9.83-.41,12-.95,2.37-.59,6.36-3.62,10.44-1.26,5.16,3,4.57,8.12,5.82,11.75S57.33,41.8,53.26,45.83Z"/><path class="cls-2" d="M37.14,42.48c-.25-5.7,5.91-6.57,7-7.74s-.58-6.21,5.16-8.11c4.94-1.63,9,2.21,11,3.17,3.07,1.45,8,3,8.48,6.75.57,4.09-5.15,6.26-6,7.89-1,1.78-1.3,5.92-5,7.11-4.64,1.51-7.43-1.71-10.31-2.95S37.34,47.21,37.14,42.48Z"/><path class="cls-3" d="M35.23,70.88c2-16.8-1-50.34,4.07-50.34,3.81,0,2.12,33.09,3.61,50.34Z"/><path class="cls-4" d="M55.74,21.3c-.26,2-1.35,3.17-3.06,3.4a1.46,1.46,0,0,1-1.63-2,3.69,3.69,0,0,1,4.38-2A.52.52,0,0,1,55.74,21.3Z"/><path class="cls-4" d="M63,29.37c-1.5,1.36-3.07,1.55-4.53.62a1.45,1.45,0,0,1,0-2.58,3.69,3.69,0,0,1,4.62,1.33A.52.52,0,0,1,63,29.37Z"/><path class="cls-4" d="M17.15,40.17c2,.41,3.44-.23,4.22-1.77A1.46,1.46,0,0,0,20,36.2a3.69,3.69,0,0,0-3.29,3.49C16.69,39.93,16.94,40.13,17.15,40.17Z"/><path class="cls-4" d="M29.23,19.49c.23,2,1.3,3.19,3,3.44a1.45,1.45,0,0,0,1.67-2,3.69,3.69,0,0,0-4.35-2C29.32,19,29.21,19.27,29.23,19.49Z"/><path class="cls-4" d="M29.74,29.94c1.28,1.58,2.81,2,4.39,1.31a1.46,1.46,0,0,0,.35-2.56,3.7,3.7,0,0,0-4.77.61A.51.51,0,0,0,29.74,29.94Z"/><path class="cls-4" d="M20.33,31.4c1.28,1.58,2.81,2,4.39,1.31a1.46,1.46,0,0,0,.35-2.56,3.7,3.7,0,0,0-4.77.61A.51.51,0,0,0,20.33,31.4Z"/><path class="cls-4" d="M37.08,12.42c-1.22,1.63-1.25,3.21-.18,4.57a1.46,1.46,0,0,0,2.57-.29,3.71,3.71,0,0,0-1.78-4.47A.51.51,0,0,0,37.08,12.42Z"/><path class="cls-4" d="M46.26,23.66c.92,1.81.67,3.38-.61,4.53a1.46,1.46,0,0,1-2.48-.74,3.7,3.7,0,0,1,2.52-4.09A.52.52,0,0,1,46.26,23.66Z"/><path class="cls-4" d="M46.75,17c.68,1.91.25,3.43-1.17,4.42a1.46,1.46,0,0,1-2.37-1,3.69,3.69,0,0,1,3-3.75C46.44,16.57,46.67,16.79,46.75,17Z"/><path class="cls-4" d="M56.65,36.27a3.49,3.49,0,0,1-4.53.62,1.46,1.46,0,0,1,0-2.58,3.69,3.69,0,0,1,4.62,1.33C56.93,35.82,56.81,36.12,56.65,36.27Z"/><path class="cls-4" d="M57,45.11a3.49,3.49,0,0,1-3.91-2.37,1.46,1.46,0,0,1,1.66-2,3.7,3.7,0,0,1,2.75,3.94C57.52,44.94,57.25,45.1,57,45.11Z"/><path class="cls-4" d="M32.4,47.93c2,.12,3.37-.73,3.92-2.37a1.46,1.46,0,0,0-1.67-2,3.7,3.7,0,0,0-2.74,3.94A.5.5,0,0,0,32.4,47.93Z"/><path class="cls-4" d="M20.8,45.49c1.88.78,3.42.43,4.48-.94a1.46,1.46,0,0,0-.91-2.42,3.71,3.71,0,0,0-3.9,2.81C20.4,45.16,20.61,45.41,20.8,45.49Z"/><path class="cls-4" d="M46.87,42.78c-2,.11-3.36-.74-3.91-2.37a1.46,1.46,0,0,1,1.66-2,3.7,3.7,0,0,1,2.75,3.94C47.36,42.61,47.08,42.77,46.87,42.78Z"/><path class="cls-4" d="M30.8,41.81c1.87.78,3.42.43,4.48-.93a1.46,1.46,0,0,0-.91-2.42,3.69,3.69,0,0,0-3.9,2.8A.5.5,0,0,0,30.8,41.81Z"/><path class="cls-3" d="M37.91,46.59c8.74-3.13,8.92-6.73,11-10.85,3-6.05,2.83,8.55-8.1,13.63Z"/><path class="cls-3" d="M39.93,42.84C31.19,39.71,31,36.1,29,32c-3-6-2.83,8.55,8.1,13.63Z"/><path class="cls-3" d="M38.12,37.49C45,35,45.13,32.2,46.74,29c2.37-4.76,2.22,6.71-6.36,10.7Z"/><path class="cls-3" d="M39.45,31.43c-6.87-2.45-7-5.28-8.62-8.52-2.37-4.75-2.22,6.72,6.36,10.71Z"/><polygon class="cls-5" points="33.55 90.23 44.45 90.23 39 80.79 33.55 90.23"/><text class="cls-6" transform="translate(3.12 105.76)">黃金風鈴木</text></g></g></svg>