<svg xmlns="http://www.w3.org/2000/svg" viewBox="0 0 78 115.03"><defs><style>.cls-1,.cls-6,.cls-7{fill:#534741;}.cls-1{stroke:#736357;stroke-miterlimit:10;stroke-width:3px;}.cls-2{fill:#e33820;}.cls-3{fill:#006837;}.cls-4{fill:#be272d;}.cls-5{fill:#f4901e;}.cls-7{font-size:18px;font-family:KozGoPro-Bold-90ms-RKSJ-H, Kozuka Gothic Pro;letter-spacing:0.03em;}</style></defs><g id="圖層_2" data-name="圖層 2"><g id="圖層_1-2" data-name="圖層 1"><rect class="cls-1" x="1.5" y="1.5" width="75" height="75" rx="19.06"/><g id="圖層_1-2-2" data-name="圖層 1-2"><path class="cls-2" d="M61.2,42.64a1.26,1.26,0,0,1-.3,1.52,6.38,6.38,0,0,1-6.11,2A25.35,25.35,0,0,1,48.22,44a41.57,41.57,0,0,1-7.08-4.16l-.2-.1-.06-.05s0,.07,0,.1a29,29,0,0,1,.77,3.32,13.81,13.81,0,0,1,.06,4.11,12.28,12.28,0,0,1-2.41,5.26,13.06,13.06,0,0,1-1.54,1.7,26,26,0,0,1-2.84,2.06c-.85.51-1.77.88-2.65,1.31A2,2,0,0,1,31,57.22L30.71,57A12.84,12.84,0,0,1,27.83,53c-.5-1.05-1-2.1-1.51-3.14a40.76,40.76,0,0,1-1.38-4.7,11.94,11.94,0,0,1,.41-7.51,2.13,2.13,0,0,0,.36-.88c-.33.18-.61.34-.91.48a14.57,14.57,0,0,1-7.07,1.24,15.51,15.51,0,0,1-5.46-1.11A14.45,14.45,0,0,1,7.4,33.67a.83.83,0,0,1,0-1,7,7,0,0,1,1.48-1.73,20.87,20.87,0,0,1,6.17-4.17,22.39,22.39,0,0,1,5.37-1.7,15.49,15.49,0,0,1,6.57.21A16.28,16.28,0,0,1,30.79,27C27,19,28.44,12,34.84,6L35,6a4.55,4.55,0,0,0,1.6.91.46.46,0,0,0,.26.13,1.94,1.94,0,0,0,.26.31l0,.07h.1a20.64,20.64,0,0,1,3.44,4.8,14.13,14.13,0,0,1,1,9.19,2,2,0,0,0,.67-.57,12.2,12.2,0,0,1,3.18-2.53,14,14,0,0,1,3.21-1.08,26.33,26.33,0,0,1,3.2-.22,19.35,19.35,0,0,1,4.35.39c.74.2,1.55.17,2.29.41a7.59,7.59,0,0,1,2.15.79,1.23,1.23,0,0,1,0,.57A19.18,19.18,0,0,1,58,25a20.22,20.22,0,0,1-6.36,5.71,18.39,18.39,0,0,1-1.85,1c.45.06.9.11,1.34.18A10.27,10.27,0,0,1,57,35.44a13.34,13.34,0,0,1,2.81,4,11.1,11.1,0,0,1,.82,2A5.48,5.48,0,0,0,61.2,42.64Z"/><path class="cls-2" d="M54.32,51.93a11.37,11.37,0,0,1,7.83,2.61c1.54,1.35,3,2.83,4.44,4.24.38.36.26.71,0,1.08a11.24,11.24,0,0,1-1.58,2,13.25,13.25,0,0,1-3.71,2.9,9.37,9.37,0,0,1-5.47.8,17.7,17.7,0,0,1-4.26-1c-.07-.64-.47-1.16-.56-1.82a8.41,8.41,0,0,0-.76-1.93,6.26,6.26,0,0,0-1-1.78c-.44-.54-.41-.76.2-1.15A8.22,8.22,0,0,0,50.74,57a20.58,20.58,0,0,0,2.18-2.2A5.35,5.35,0,0,0,54.32,51.93Z"/><path class="cls-3" d="M54.32,51.93a5.5,5.5,0,0,1-1.4,2.94,19.69,19.69,0,0,1-2.19,2.19,6.86,6.86,0,0,1-1.25.88c-.6.38-.64.6-.19,1.14a6.55,6.55,0,0,1,1,1.78,8.88,8.88,0,0,1,.76,1.94c.09.69.5,1.18.56,1.81s.31,1.29.47,1.93a4.31,4.31,0,0,1,.1.61c0,.83-.25,1.08-1,.93a20.07,20.07,0,0,1-2.32-.55,5.1,5.1,0,0,1-1.43-1A23.24,23.24,0,0,1,44.8,64a8.66,8.66,0,0,1-2.11-3.38,7.45,7.45,0,0,0-.36-.68c-.24-.55-.77-.31-1.16-.43-1-.28-2-.36-2.92-.66a1.19,1.19,0,0,0-.32-.1,27.32,27.32,0,0,1-3.57-.66,7,7,0,0,1-2.08-.5c.88-.44,1.8-.8,2.65-1.31a26,26,0,0,0,2.84-2.06,5.34,5.34,0,0,0,1.9.6,3.71,3.71,0,0,0,2.1.3,3.24,3.24,0,0,0,.89-.35,37.5,37.5,0,0,1,8.41-4A9.4,9.4,0,0,1,54,50.42c.4,0,.54.28.36.67A.76.76,0,0,0,54.32,51.93Z"/><path class="cls-3" d="M26.32,49.88,27.83,53a12.8,12.8,0,0,0,2.88,4l.28.26a10,10,0,0,1-1,3.28c-.32.57-.45,1.24-.72,1.84s-.64,1.29-.88,2a15.5,15.5,0,0,1-.7,1.56c-.24.52-.71.73-1.05,1.1a5.05,5.05,0,0,1-1.72,1.43,3.76,3.76,0,0,1-3.08.06A2.59,2.59,0,0,1,20.59,66a30.83,30.83,0,0,1,1.28-4c.16-.4.15-.83.28-1.24.4-1.23.77-2.47,1.25-3.68.29-.72.45-1.51.81-2.2.74-1.49,1.23-3.09,2-4.55C26.3,50.22,26.18,50,26.32,49.88Z"/><path class="cls-4" d="M30.4,28.65a12.94,12.94,0,0,1-8.27.85c-3.8-.81-5.43,5-1.61,5.85a19.86,19.86,0,0,0,12.94-1.46C37,32.26,33.92,27,30.4,28.65Z"/><path class="cls-4" d="M32.48,30.54c-1.42,2.17-1.61,5.1-1.75,7.63a15.77,15.77,0,0,0,1.51,8c1.76,3.51,7,.44,5.3-3.06-1.17-2.39-1.29-7.25.21-9.54,2.15-3.27-3.1-6.31-5.24-3Z"/><path class="cls-4" d="M36,34.94a50.12,50.12,0,0,0,8.48,2.62c3.81.81,5.44-5.06,1.62-5.85a50,50,0,0,1-8.49-2.62c-1.52-.62-3.33.67-3.73,2.12A3.11,3.11,0,0,0,36,34.94Z"/><path class="cls-4" d="M38.43,33.4a16.15,16.15,0,0,0,11.12-4.85c2.73-2.79-1.55-7.07-4.29-4.29a9.85,9.85,0,0,1-6.85,3.08c-3.89.14-3.92,6.2,0,6.06Z"/><path class="cls-4" d="M38.59,28.91a13.72,13.72,0,0,1-.65-6.54,3.14,3.14,0,0,0-2.12-3.73c-1.45-.39-3.47.51-3.73,2.12a20.19,20.19,0,0,0,.66,9.76C34,34.2,39.82,32.62,38.59,28.91Z"/><path class="cls-5" d="M19.9,35.41h0l-.8-.11h0l-.72-.3,0,0-.62-.47,0,0L17.44,34V34l-.3-.73V31.77l.31-.73,0,0,.47-.61,0,0,1.33-.77h0l.81-.11h-.05l.8.11h0l.72.3h0l.61.48,0,0,.47.61v0l.42,1.52v-.05l-.11.81v-.06L22.4,34l.06-.11L22,34.5a.34.34,0,0,1,.08-.09l-.61.47.15-.09-.72.31a.45.45,0,0,1,.11,0l-.8.1h.18l-.81-.1a.35.35,0,0,1,.11,0L19,29.54a4.53,4.53,0,0,0-1.68,1.6l-.3.73a2.26,2.26,0,0,0-.06,1.21,1.48,1.48,0,0,0,.21.76,2.22,2.22,0,0,0,.62,1l.67.67L19,36a2.38,2.38,0,0,0,1.13.35,1.36,1.36,0,0,0,.8,0A2.38,2.38,0,0,0,22.09,36a4.18,4.18,0,0,0,.81-.63,3.53,3.53,0,0,0,.75-1.19A3,3,0,0,0,24,32.77a.43.43,0,0,0,0-.16,4.43,4.43,0,0,0-.12-.89,3,3,0,0,0-3.73-2.12h0A3,3,0,0,0,18,33.33l0,.12-.11-.8v.18L18,32a1.16,1.16,0,0,1,0,.18l.3-.72-.09.16.47-.61-.12.13.61-.47-.1.06,3.67.48-.66-.67.47,3.69.08-.12-.47.61a2,2,0,0,1,.26-.24l-.61.47.24-.15.62-.47.47-.61.31-.72a2.37,2.37,0,0,0,.05-1.21,1.58,1.58,0,0,0-.2-.77,1.55,1.55,0,0,0-.4-.69,1.5,1.5,0,0,0-.54-.55,2.37,2.37,0,0,0-1-.54,3.45,3.45,0,0,0-1.91,0,3.58,3.58,0,0,0-2.56,2.49A3.19,3.19,0,1,0,23,33.41a3.3,3.3,0,0,0-.8-3.09,3.11,3.11,0,0,0-2.31-1,2.26,2.26,0,0,0-1.17.26,2.27,2.27,0,0,0-1,.63,3,3,0,0,0,0,4.28h0a3,3,0,0,0,2.15.88Z"/><path class="cls-5" d="M33.55,18.5l0,0,.62-.45-.08,0,.72-.31a.11.11,0,0,1-.08,0l.81-.1h-.09l.81.11h-.09l.72.3-.12-.07.62.47-.11-.1.48.61a.57.57,0,0,1-.08-.13l.3.69a.57.57,0,0,1,0-.14l.11.81a.38.38,0,0,1,0-.15l-.11.8a.16.16,0,0,1,0-.09l-.31.72a.86.86,0,0,1,.1-.16l-.48.61.14-.12-.62.47a.94.94,0,0,1,.22-.12l-.73.3a2.18,2.18,0,0,1,.44-.11l-.81.1h.27l-2.93-3.84a.66.66,0,0,1-.06.2l.3-.72a1.41,1.41,0,0,1-.13.24l.47-.62a1.14,1.14,0,0,1-.24.25l.62-.48-.18.11a3,3,0,0,0-1.09,4.15h0a3,3,0,0,0,1.81,1.39,3.28,3.28,0,0,0,2.34-.3,5.45,5.45,0,0,0,.82-.61,1.1,1.1,0,0,0,.21-.22,4.27,4.27,0,0,0,1-1.79,3,3,0,0,0,0-1.62,2.26,2.26,0,0,0-.54-1,2.28,2.28,0,0,0-.85-.78,3,3,0,0,0-1.51-.41,4.8,4.8,0,0,0-2.4.62,3.7,3.7,0,0,0-1.81,3.13,3.66,3.66,0,0,0,1.78,3.08,3.39,3.39,0,0,0,4.12-.51,3,3,0,0,0-2.15-5.17,3.18,3.18,0,0,0-2.14.89Z"/><path class="cls-5" d="M50,25.79v0l-.11.81v-.11l-.27.72a.41.41,0,0,1,0-.09l-.48.6.08-.08-.59.49a1,1,0,0,1,.17-.1l-.73.31.15,0-.8.11h.15l-.81-.11.11,0L46.13,28l.09.05-.6-.47a.3.3,0,0,1,.08.08L45.23,27a.16.16,0,0,1,0,.07l-.3-.73a.53.53,0,0,1,0,.12l-.11-.81a.24.24,0,0,1,0,.12L45,25a1,1,0,0,1,0,.16l.3-.73a.53.53,0,0,1-.08.15l.47-.62a.39.39,0,0,1-.08.1l.61-.48-.14.09.72-.31h-.08l.81-.11h-.12l.8.1h0a2.36,2.36,0,0,0-1.21-.05,2.28,2.28,0,0,0-1.13.36,2.2,2.2,0,0,0-.85.78,2.26,2.26,0,0,0-.54,1,3,3,0,0,0,.3,2.33,3,3,0,0,0,1.82,1.4,6.14,6.14,0,0,0,.86.12h.11a3.28,3.28,0,0,0,2.4-1l.3-.37c.07-.1.2-.25.28-.38a3.43,3.43,0,0,0,.19-.44,3.38,3.38,0,0,0,.18-.44,2.74,2.74,0,0,0,.07-.5,4.43,4.43,0,0,0,.06-.51,3.15,3.15,0,0,0-.15-1,4.49,4.49,0,0,0-.34-.78,2.51,2.51,0,0,0-.25-.32c-.08-.12-.17-.23-.26-.34a3.63,3.63,0,0,0-.73-.56,5.09,5.09,0,0,0-.76-.32l-.11,0a5.85,5.85,0,0,0-.84-.11h-.11a5.92,5.92,0,0,0-.94.14,3.88,3.88,0,0,0-.86.38,5.21,5.21,0,0,0-.66.5.23.23,0,0,1-.07.07,2.74,2.74,0,0,0-.69,1.08,3,3,0,0,0-.3,1.32,2.4,2.4,0,0,0,.27,1.17,2.72,2.72,0,0,0,1.6,1.6,2.26,2.26,0,0,0,1.17.26,3,3,0,0,0,2.14-.89l.47-.61A2.9,2.9,0,0,0,50,25.76Z"/><path class="cls-5" d="M48.42,35.86V35.8l-.27.73a1.23,1.23,0,0,1,.14-.25l-.47.62a1,1,0,0,1,.2-.2l-.62.47.24-.14-.72.31a1.38,1.38,0,0,1,.27-.08l-.81.11h.12l-3-3v0l.12-.8a.88.88,0,0,1,0,.15l.3-.72a.39.39,0,0,1-.08.14l.48-.61-.15.15.58-.47-.14.08.72-.3a1.17,1.17,0,0,1-.2.06l.8-.11h-.05a2.21,2.21,0,0,0-1.18.27,2.72,2.72,0,0,0-1.6,1.6A2.26,2.26,0,0,0,42.75,35a3,3,0,0,0,.89,2.14,3,3,0,0,0,2.14.89,3.92,3.92,0,0,0,1.07-.17,3.84,3.84,0,0,0,1.52-.92,2.51,2.51,0,0,0,.32-.41,2.53,2.53,0,0,0,.31-.42,3.8,3.8,0,0,0,.5-1.77,2.24,2.24,0,0,0-.26-1.16,2.27,2.27,0,0,0-.63-1,3,3,0,0,0-2.14-.89,4.16,4.16,0,0,0-2.16.64A4.37,4.37,0,0,0,43,33.24a4.82,4.82,0,0,0-.44,1,2.26,2.26,0,0,0-.06,1.21,2.22,2.22,0,0,0,.36,1.12A3.48,3.48,0,0,0,44.71,38,3.06,3.06,0,0,0,47,37.67l.6-.48a3,3,0,0,0,.79-1.33Z"/><path class="cls-5" d="M37.72,41.68a4.09,4.09,0,0,0-.83-.36,3.11,3.11,0,0,0-.44-.06l-.43,0a2.91,2.91,0,0,0-1,.15,3.56,3.56,0,0,0-1.52.89,3.33,3.33,0,0,0-.86,1.47A3.46,3.46,0,0,0,33.49,47a2.84,2.84,0,0,0,.82.64,3.2,3.2,0,0,0,1.74.44,2.3,2.3,0,0,0,1.15-.22,2.72,2.72,0,0,0,1.6-1.6,2.25,2.25,0,0,0,.25-1.19l-.1-.81A3.14,3.14,0,0,0,38.17,43l-.63-.47A3,3,0,0,0,36,42.07h-.13l.81.1-.08,0,.72.3-.11-.06.62.47-.1-.09.47.61-.06-.11.31.72V43.9l.11.81v-.08l-.1.8a.21.21,0,0,1,0-.11l-.31.72.06-.09-.48.61.09-.08-.62.48.1-.06-.72.31.14,0-.8.11h.11l-.81-.11h.07l-.72-.29.07,0a2.47,2.47,0,0,0,1.12.36A2.3,2.3,0,0,0,37,47.22a2.37,2.37,0,0,0,1-.54,2.54,2.54,0,0,0,.78-.85,3,3,0,0,0,.3-2.34,3.08,3.08,0,0,0-1.39-1.81Z"/></g><polygon class="cls-6" points="33.55 90.23 44.45 90.23 39 80.79 33.55 90.23"/><text class="cls-7" transform="translate(11.32 107.76)">木棉花</text></g></g></svg>