<svg xmlns="http://www.w3.org/2000/svg" viewBox="0 0 78 115.03"><defs><style>.cls-1,.cls-27,.cls-28{fill:#534741;}.cls-1{stroke:#736357;stroke-miterlimit:10;stroke-width:3px;}.cls-2{fill:#e5f1eb;}.cls-3{fill:#eba87f;}.cls-4{fill:#feea20;}.cls-5{fill:#fde91d;}.cls-6{fill:#feea21;}.cls-7{fill:#feea22;}.cls-8{fill:#e5e1aa;}.cls-9{fill:#e4dcb0;}.cls-10{fill:#eadb8d;}.cls-11{fill:#e9d994;}.cls-12{fill:#e0edc3;}.cls-13{fill:#e8da95;}.cls-14{fill:#e8bd91;}.cls-15{fill:#dbede3;}.cls-16{fill:#dfe2cb;}.cls-17{fill:#dbeee5;}.cls-18{fill:#f0bca9;}.cls-19{fill:#e2d0b4;}.cls-20{fill:#e1e1bf;}.cls-21{fill:#f7d3d3;}.cls-22{fill:#e7d09b;}.cls-23{fill:#e5c0a2;}.cls-24{fill:#eca494;}.cls-25{fill:#eacb89;}.cls-26{fill:#e5c3a6;}.cls-28{font-size:18px;font-family:KozGoPro-Bold-90ms-RKSJ-H, Kozuka Gothic Pro;letter-spacing:0.03em;}</style></defs><g id="圖層_2" data-name="圖層 2"><g id="圖層_1-2" data-name="圖層 1"><rect class="cls-1" x="1.5" y="1.5" width="75" height="75" rx="19.06"/><path class="cls-2" d="M29.65,45.07a32.16,32.16,0,0,0-3.93.38A16.08,16.08,0,0,1,16,43.39a6.58,6.58,0,0,0-1.63-.7,3.74,3.74,0,0,1-1.7-1.45c-.39-.45-.73-.94-1.14-1.37A6.18,6.18,0,0,1,10.19,36a10.29,10.29,0,0,1,.18-2.6,3.7,3.7,0,0,1,1.23-1.95,12.32,12.32,0,0,1,5.24-2.89,9.73,9.73,0,0,1,3.45-.09,40.87,40.87,0,0,1,5.51.92,16.7,16.7,0,0,1,5.64,2.36,2.8,2.8,0,0,0,.46.19,21.26,21.26,0,0,0-1.23-3.2,16.54,16.54,0,0,1-1.35-6.62,7.71,7.71,0,0,1,.28-2c.43-1.43.25-3,.93-4.34a9.27,9.27,0,0,1,2.85-3.88,9.44,9.44,0,0,1,4.28-1.69,3.9,3.9,0,0,1,2.14.63,18.78,18.78,0,0,1,2,1.36,8.31,8.31,0,0,1,3,5.38,38.28,38.28,0,0,1,.8,3.83c.05.61.09,1.23.14,1.84a15.43,15.43,0,0,1-.37,6.34,1.94,1.94,0,0,0-.12.39c-.06.29-.1.58-.17,1a9.37,9.37,0,0,0,1.8-1.46,23.49,23.49,0,0,1,5.3-3.76,13.9,13.9,0,0,1,5.07-1.29c1,0,1.91-.46,2.9-.44a1.18,1.18,0,0,1,.26,0c2.13.46,4.26.78,5.81,2.69a6.55,6.55,0,0,1,1.6,4.46,4.07,4.07,0,0,1-.63,1.64,11.26,11.26,0,0,1-1.81,3.38,9.51,9.51,0,0,1-1.57,1.42,36.26,36.26,0,0,1-7.75,4.07,15.29,15.29,0,0,1-5,1.09,1.33,1.33,0,0,0-.35.14c.93.58,1.76,1.17,2.65,1.65a15.41,15.41,0,0,1,7.13,8,6.24,6.24,0,0,0,.81,1.39A4.15,4.15,0,0,1,62,56c.07.59.07,1.18.15,1.78a5.58,5.58,0,0,1-1.39,4.12,6.52,6.52,0,0,1-3.3,2.53,2.07,2.07,0,0,1-1,.14,16.2,16.2,0,0,0-2.09,0A8.43,8.43,0,0,1,49,62.45a42.38,42.38,0,0,1-3.47-3.23A18.58,18.58,0,0,1,41,52.05a2.29,2.29,0,0,0-.16-.28c-.33.29-.26.7-.32,1a25.7,25.7,0,0,1-1.62,5.73,15.38,15.38,0,0,1-3.68,5.23,6,6,0,0,0-1.06,1.35,2.65,2.65,0,0,1-1.19,1.11,18,18,0,0,1-4,1.58,4.39,4.39,0,0,1-1.88-.1,14.89,14.89,0,0,1-3.26-1.21,3.17,3.17,0,0,1-1.25-1.42,9.37,9.37,0,0,1-1.21-5.75,21.69,21.69,0,0,1,3.13-7.92,27.09,27.09,0,0,0,1.72-2.81,4,4,0,0,1,1.24-1.35A28.54,28.54,0,0,1,29.65,45.07Z"/><path class="cls-3" d="M39.64,47.29a6.16,6.16,0,0,1-.16-1.91c0-.3,0-.54-.42-.37-.08,0-.2.07-.26,0-.81-.54-.91.16-1.12.64a14.66,14.66,0,0,0-1.37,4.23,3,3,0,0,1-1.25.57,5.18,5.18,0,0,1,.42-2.23c.32-1.43,1.1-2.69,1.54-4.08,0-.14.2-.29,0-.43s-.3,0-.45,0a2.82,2.82,0,0,0-2,2.27,1.83,1.83,0,0,1-.46,1,.57.57,0,0,1-.81,0c-.21-.69.29-1.27.29-1.94a1.55,1.55,0,0,1,.14-.51.6.6,0,0,1,.09-.15c.16-.18.18-.44.34-.62a1.38,1.38,0,0,1,.42-.38c-.23.06-.31.29-.47.43a.15.15,0,0,1-.17,0,3.13,3.13,0,0,1-.38-1.1,2.31,2.31,0,0,0,.84-1.24,1.16,1.16,0,0,1,.65-.67c.14-.08.33-.07.28-.3a.37.37,0,0,0-.42-.28c-.79,0-1.58,0-2.38-.12a26.4,26.4,0,0,0-2.67,0,1.18,1.18,0,0,1-.85-.85,1,1,0,0,1,.84-.27,2.43,2.43,0,0,1,1.58-.32c.53,0,1,0,1.57,0,.76.2,1.56.08,2.4.33a3.11,3.11,0,0,0-2.93-1.45.68.68,0,0,1-.4,0,2.79,2.79,0,0,1-.4-1.28,8.6,8.6,0,0,0,2-.14c.29-.26.59-.06.88,0a2.78,2.78,0,0,1,.47.28.13.13,0,0,0,.12,0,.5.5,0,0,1,0-.13.47.47,0,0,1,0-.26c.31-.2.46-.63.9-.65a5,5,0,0,1,1,1.1c.15.25.34.25.67.19.89-.14.76-.66.62-1.23a29.64,29.64,0,0,0-1.22-4.26,1.07,1.07,0,0,0-.15-.22,3.24,3.24,0,0,1,.58-1.23l.79,1c.31.24.34.66.56.95a27.35,27.35,0,0,1,1.14,4.1,2,2,0,0,0,.48-2.11,6.26,6.26,0,0,0-.82-1.85,6.56,6.56,0,0,1,1.51-.38,9.22,9.22,0,0,0,1,1.93,5.12,5.12,0,0,1,.37,1.34c0,.2-.18.23-.29.33s-.07.29-.2.41c.12-.06.11-.18.17-.25a.8.8,0,0,1,.41-.27.86.86,0,0,1,.79.38c0,.66-.49,1.06-.8,1.55-.18.26-.1.34.08.59.56.78,1,.61,1.74.19,1.19-.68,2.31-1.45,3.42-2.24a.57.57,0,0,0,.25-.39.25.25,0,0,1,.26-.06,1.77,1.77,0,0,1,.54.34c.23.33-.08.46-.24.61a22,22,0,0,1-3.86,2.79c-.39.23-.77.48-1.15.74-.23.17-.24.35.08.41,1.65.32,3.16.14,4.25-1.35a.6.6,0,0,1,.5.67c-.27.59-.95.82-1.24,1.4-.19.37-.61.36-.9.57a3.48,3.48,0,0,1-.92.28.64.64,0,0,1,.65.12,1.92,1.92,0,0,1,0,1.23,3.07,3.07,0,0,1-1-.09,2.25,2.25,0,0,0-1.67.36c-.26.12-.36.32,0,.63A29.93,29.93,0,0,0,46.9,46.5a1,1,0,0,0,.54.24c0,.45,0,.91,0,1.37a2.27,2.27,0,0,1-.81-.26,3.5,3.5,0,0,1-.78-.3,19.63,19.63,0,0,1-3.6-2.84A2.79,2.79,0,0,0,43.51,47a8.55,8.55,0,0,1,1.09.81,1,1,0,0,1-.75.87c-.6.07-1-.53-1.61-.45-.39-.11-.49-.52-.75-.76a3.43,3.43,0,0,0-.32-.43,1.36,1.36,0,0,1-.24-.5,1.39,1.39,0,0,0-.12-.28c0,.15.15.28.11.45a1.13,1.13,0,0,1-.43.41C40.22,47.25,40,47.48,39.64,47.29Z"/><path class="cls-4" d="M35.06,50.49a1.87,1.87,0,0,1,1.25-.57,4.77,4.77,0,0,1,1,.46A1.71,1.71,0,0,1,37.66,53a2,2,0,0,1-2.7.84,1.82,1.82,0,0,1-.49-2.42C34.68,51.09,35,50.9,35.06,50.49Z"/><path class="cls-4" d="M47.44,48.11a1.19,1.19,0,0,1,0-1.37,2.24,2.24,0,0,0,.49-.48,1.7,1.7,0,0,1,2-.89,1.65,1.65,0,0,1,1.25,1.42,1.93,1.93,0,0,1-.64,2c-.92.84-1.41.81-2.32-.08A8.57,8.57,0,0,0,47.44,48.11Z"/><path class="cls-4" d="M37.59,29.71A1.71,1.71,0,0,1,37,30.94a3,3,0,0,1-1.55.43A1.33,1.33,0,0,1,34.11,30c0-.05,0-.09,0-.14,0-1.86,0-1.86,1.74-2.28a1.29,1.29,0,0,1,1.69,1.28C37.56,29.11,37.57,29.41,37.59,29.71Z"/><path class="cls-4" d="M29,39.24l.85.85c.45,1.57-.23,1.88-1.43,2.38-.78.33-1.35-.23-1.86-.7a1.55,1.55,0,0,1-.11-1.8,1.57,1.57,0,0,1,1.61-.82A4.22,4.22,0,0,0,29,39.24Z"/><path class="cls-4" d="M39.64,47.29l.82-.29a.8.8,0,0,1,.48-.09,1.45,1.45,0,0,1,.61.49,3.3,3.3,0,0,1,.69.84,1.21,1.21,0,0,1-.32,1.42,1.1,1.1,0,0,1-1.31.26,1.74,1.74,0,0,0-.59-.13,1.22,1.22,0,0,1-1.18-1,1.14,1.14,0,0,1,.61-1.26A1.7,1.7,0,0,0,39.64,47.29Z"/><path class="cls-4" d="M43.85,48.69l.72-.84c.26-.51.69-.49,1.16-.39.27.14.61.18.77.51a2.55,2.55,0,0,1-.22,2.47,1.18,1.18,0,0,1-2.07,0A2.16,2.16,0,0,1,43.85,48.69Z"/><path class="cls-4" d="M46.09,42.71a2.24,2.24,0,0,1,0-1.23.38.38,0,0,1,.22-.4,2.1,2.1,0,0,1,1.15-.42,1.63,1.63,0,0,1,1.59,2.39,1.27,1.27,0,0,1-1.58.62A2.52,2.52,0,0,1,46.09,42.71Z"/><path class="cls-5" d="M48.41,35h-.24c-.18-.23-.44-.39-.56-.68A1.39,1.39,0,0,1,49,32.2a1.87,1.87,0,0,1,1.66.6.72.72,0,0,1,.08,1A2.71,2.71,0,0,1,49,35,.48.48,0,0,1,48.41,35Z"/><path class="cls-4" d="M31.67,36.23a1.6,1.6,0,0,1,.38,1.24c0,.8-.68,1-1.27,1.21-.3,0-.61.33-.91,0a1.45,1.45,0,0,1-1-1.6,1.46,1.46,0,0,1,2.28-1.2C31.34,36,31.5,36.12,31.67,36.23Z"/><path class="cls-4" d="M34.66,36.21l-1-.12c-.29-.36-.68-.66-.72-1.2a1.22,1.22,0,0,1,.64-1.27,1.87,1.87,0,0,1,1.9.06A1.1,1.1,0,0,1,36.08,35a1.29,1.29,0,0,0,0,.34,2.39,2.39,0,0,1-.87.74C35.05,36.24,34.88,36.38,34.66,36.21Z"/><path class="cls-4" d="M48.55,39.11l-.5-.67a1.75,1.75,0,0,1,1.66-1.95,1.2,1.2,0,0,1,1.2.63,1.24,1.24,0,0,1-.06,1.36A1.83,1.83,0,0,1,48.55,39.11Z"/><path class="cls-6" d="M41.25,31.39a1.93,1.93,0,0,1-1.48.41c-.42.19-.65-.13-.92-.35s-.34-.47-.22-.78A1.56,1.56,0,0,1,40,29.07a1.46,1.46,0,0,1,1.43.95A1.54,1.54,0,0,1,41.25,31.39Z"/><path class="cls-6" d="M42.53,34.81a2.59,2.59,0,0,1-.3-1.5,1.44,1.44,0,0,1,1.3-.73,1.37,1.37,0,0,1,1.32,1,1.29,1.29,0,0,1-.91,1.55,3.5,3.5,0,0,1-.46.14L42.65,35A.19.19,0,0,1,42.53,34.81Z"/><path class="cls-7" d="M33.56,42.72A1.88,1.88,0,0,1,34,43.83c.1.27-.05.48-.19.69h0c-.11.16-.2.35-.42.39-.44.11-.85.33-1.3,0a1.3,1.3,0,0,1-.53-1.55A1.26,1.26,0,0,1,33,42.59C33.21,42.62,33.38,42.68,33.56,42.72Z"/><path class="cls-6" d="M34.08,47.17a1,1,0,0,0,.09.18c.72.88.65,1.52-.27,2.18a.87.87,0,0,1-1.18,0c-.42-.35-.68-.71-.36-1.29a2.54,2.54,0,0,1,.94-1.13A.8.8,0,0,1,34.08,47.17Z"/><path class="cls-8" d="M29.87,38.69l.94-.14a12,12,0,0,1,1.7,0c.25,0,.57-.06.64.33a21.43,21.43,0,0,0-3.3.13Z"/><path class="cls-9" d="M38.63,30.67l.31.7a.32.32,0,0,1-.14.27,1.94,1.94,0,0,1-.42-1Z"/><path class="cls-10" d="M47.47,40.66l-1.12.51a.16.16,0,0,1,0-.24l1-.42Z"/><path class="cls-11" d="M46.5,48l-.68-.42a.19.19,0,0,1,.11-.12,1.63,1.63,0,0,1,.7.42Z"/><path class="cls-12" d="M48.41,35H49v.26C48.74,35.24,48.52,35.23,48.41,35Z"/><path class="cls-13" d="M33.42,44.9l.42-.39a.77.77,0,0,1-.25.55A1.29,1.29,0,0,1,33.42,44.9Z"/><path class="cls-14" d="M34.08,47.17l-.78,0V47h.81Z"/><path class="cls-15" d="M38.8,31.64a.28.28,0,0,1,.14-.27,1.84,1.84,0,0,0,.83.43c.33.12.6.25.57.69a1.49,1.49,0,0,0,.2.58,2.65,2.65,0,0,1-.46,3.12C39.5,34.68,39.43,33.08,38.8,31.64Z"/><path class="cls-15" d="M33.15,38.84c-.51-.28-1-.06-1.58-.13-.26,0-.55.1-.76-.16a2.23,2.23,0,0,0,1.24-1.08c1.43-.39,2.53.08,3.69,1.64A20.79,20.79,0,0,1,33.15,38.84Z"/><path class="cls-15" d="M45.93,47.43l-.11.12a1.7,1.7,0,0,0-1.25.3C43.16,47.16,42,46.26,42,44.34A31.62,31.62,0,0,0,45.93,47.43Z"/><path class="cls-16" d="M46.36,40.93v.24c-.09.1-.17.21-.25.31-.26,0-.54.05-.81-.19Z"/><path class="cls-17" d="M34.13,43.82c-.07-.66.49-.51.81-.65-.24.26-.39.63-.82.64Z"/><path class="cls-18" d="M42.37,35.25l-.37.52-.1-.06.33-.89C42.4,34.92,42.27,35.12,42.37,35.25Z"/><path class="cls-19" d="M41,47l-.51,0,.39-.27s.07-.13.15-.14l.27.42A.24.24,0,0,1,41,47Z"/><path class="cls-20" d="M34.66,36.21l.55-.12,0,.25c0,.13,0,.2-.16.16A.47.47,0,0,1,34.66,36.21Z"/><path class="cls-21" d="M42.37,35.25c-.18-.1-.13-.27-.14-.43s.2,0,.3,0l.12.14Z"/><path class="cls-22" d="M33.84,44.52l.18-.69h.1C34.27,44.15,34.11,44.35,33.84,44.52Z"/><path class="cls-23" d="M41,46.59l-.15.14c0-.23-.2-.43,0-.8Z"/><path class="cls-24" d="M36.94,39.82a1.11,1.11,0,0,1,.15.23c0,.08-.07.1-.13.07a1.36,1.36,0,0,1-.17-.17Z"/><path class="cls-25" d="M41,47h.3a.41.41,0,0,1,.28.39Z"/><path class="cls-26" d="M35.08,36.5l.16-.16c.1.08.28.19.2.29S35.18,36.6,35.08,36.5Z"/><polygon class="cls-27" points="33.55 90.23 44.45 90.23 39 80.79 33.55 90.23"/><text class="cls-28" transform="translate(18.38 107.76)">桐 花</text></g></g></svg>