<svg xmlns="http://www.w3.org/2000/svg" viewBox="0 0 78 115.03"><defs><style>.cls-1,.cls-10,.cls-9{fill:#534741;}.cls-1{stroke:#736357;stroke-miterlimit:10;stroke-width:3px;}.cls-2{fill:#d25d3f;}.cls-3{fill:#d25d40;}.cls-4{fill:#d15c3f;}.cls-5{fill:#c24c32;}.cls-6{fill:#d25c3e;}.cls-7{fill:#d25c3f;}.cls-8{fill:#a63327;}.cls-10{font-size:18px;font-family:KozGoPro-Bold-90ms-RKSJ-H, Kozuka Gothic Pro;letter-spacing:0.03em;}</style></defs><g id="圖層_2" data-name="圖層 2"><g id="圖層_1-2" data-name="圖層 1"><rect class="cls-1" x="1.5" y="1.5" width="75" height="75" rx="19.06"/><path class="cls-2" d="M19.33,54c.1.14,0,.18-.11.23Z"/><path class="cls-3" d="M20.08,56.13C24.15,51.83,28.75,48,33,43.83c2-.81,4.49.26,6.64.11C41.28,43.71,43.3,54.1,44.26,56c-5.14,1.27-10.34,3.66-15.41,4.69.26-1.7,1.36-3.46,1.89-5.17.29-.72.24-.79-.5-.69C26.85,55.24,23.47,55.79,20.08,56.13Z"/><path class="cls-2" d="M23.28,19.25C37.22,29.52,34.32,25,39.53,41.5c1,1.35-4.88,0-5.66.19C28.66,37.92,24,32.88,19.15,28.54,31.75,31.07,27.76,32.11,23.28,19.25Z"/><path class="cls-2" d="M12.64,42c6.06.2,12.15.85,18.21,1.36C27,46.82,23.39,50.78,19.34,54c.26-1.27,2.76-4.27,1.7-5.15C18.24,46.53,15.37,44.32,12.64,42Z"/><path class="cls-2" d="M18.14,30.29c4.22,3.59,8.19,7.36,12.28,11.12L12.61,40C21.78,34.54,21.35,38.32,18.14,30.29Z"/><path class="cls-4" d="M29.67,10.82c1.58,4.68,3.21,9.34,4.65,14.15-3.54-2.29-6.91-4.91-10.24-7.48C30.18,17.41,27.56,16.78,29.67,10.82Z"/><path class="cls-2" d="M19.15,28.55,19,28.49Z"/><path class="cls-3" d="M46,55.46c-.34-2.11-4.75-11.77-3.22-12.53C44.56,41.81,46,39.46,48.06,39c3.47.54,7,.82,10.43,1.46.58.63.59.69,0,1l-7.4,3.91c-.52.51-3.76,1.31-2.78,2.12,2.41,1.63,5.07,2.93,7.33,4.75C52.45,53.35,49.12,54.25,46,55.46Z"/><path class="cls-3" d="M54.34,52.67c-2.55-2-5.55-3.33-8.27-5.07-1.1-.89,2.62-1.8,3.2-2.37l8.49-4.39c.64-.33.63-.4,0-1.08,2.85.14,5.66.59,8.5.9-.87.81-13,5.94-10.84,6.38C63,51.61,61.74,50.08,54.34,52.67Z"/><path class="cls-3" d="M50.61,18.27a20.73,20.73,0,0,1-1.06,5.07c-11.3,10-6.1,11.7-10.55-3.19.85-2.4,1.51-4.89,2.48-7.24C45.56,26.86,41.36,27.71,50.61,18.27Z"/><path class="cls-3" d="M50.3,19.19a20.52,20.52,0,0,1-1,5.07c-11.31,10-6.11,11.7-10.55-3.18.85-2.4,1.5-4.89,2.47-7.24C45.25,27.78,41.05,28.63,50.3,19.19Z"/><path class="cls-3" d="M59.78,28.22a35.25,35.25,0,0,1,3.92-3.09c-1,3.69-2.08,7.36-3.18,11-.28,1.23,3.8,2.37,4.76,3.22a65.83,65.83,0,0,1-8.49-.95C58,35.14,58.89,31.63,59.78,28.22Z"/><path class="cls-3" d="M50,28.55c.5-3.28,1.35-6.49,2-9.75C54.06,28,51.56,24.93,62.53,24c-1.26,1.27-2.7,2.33-4,3.52C55.76,27.41,52.77,28.33,50,28.55Z"/><path class="cls-3" d="M34.21,20.29Q32.59,15.2,31,10.13c5.79,4.1,3.89,5.83,9.21,2.33C39.6,14.25,39,16,38.32,17.78Z"/><path class="cls-5" d="M63.53,25.66l.06-.16Z"/><path class="cls-5" d="M65.29,39.42l-.17-.08Z"/><path class="cls-6" d="M39.34,20.33c4.3,14.13-.72,12.91,10,3.13-.78,4.55-1.93,9-2.82,13.56-.95,1.69-3,2.66-4.38,4-.56.47-.6.46-.83-.27-1.3-4-2.56-8.06-3.9-12.07C36.74,25.86,38.79,23.11,39.34,20.33Z"/><path class="cls-7" d="M59.89,28.59c-.81,3.26-1.61,6.62-2.71,9.77-2.61-.3-5-.66-7.73-1C53,34.36,56.35,31.47,59.89,28.59Z"/><path class="cls-7" d="M50.29,28.36c2.7-.22,5.56-1.09,8.19-1-3.28,2.63-6.3,5.53-9.73,8C49.24,33,49.67,30.67,50.29,28.36Z"/><path class="cls-6" d="M34.51,19.85l3.8-2.37c-.6,2.39-1.44,4.53-2.18,6.93A34.64,34.64,0,0,1,34.51,19.85Z"/><path class="cls-8" d="M46,55.46c1.22,3.79,2.43,7.58,3.67,11.36a1.42,1.42,0,0,1-.2,1.19l-.69.22a1.39,1.39,0,0,1-.84-.85c-1.68-5.31-3.4-10.61-5.06-15.93-.87-1.6-1.48-7.37-3.2-7.51C37.48,44.09,35,43,33,43.83c-4.24,4.15-8.84,8-12.91,12.3-3,.84-1.33-.69-.75-2.15v0c4.05-3.18,7.62-7.14,11.51-10.64C24.79,42.81,18.7,42.16,12.64,42c-1.41-.85-1.84-1.26,0-1.92l17.81,1.37c-.69-1.25-18.63-15.26-11.27-12.86h0c4.81,4.23,9.52,9.4,14.74,13.13.81-.18,6.64,1.16,5.66-.19-5.24-16.58-2.29-11.95-16.25-22.25-.59-1.29-1.15-2,.8-1.76,3.33,2.57,6.69,5.19,10.24,7.48-1.44-4.81-3.07-9.47-4.65-14.15,0-.54.31-1,.27-1.58l.46-.14c.24.4.69.57,1,.94,1.66,4.82,2.86,9.62,4.78,14.37,1.31-4.08,2.61-8,3.83-12,1.45-1.22,1.48-.54,1.69,1-5.37,16.32-5.6,11.24-.32,27.44.23.73.27.74.83.27l3.92-3.29c1.47-3.32,1.63-7.34,2.61-10.9.48-2.78,1.45-5.51,1.64-8.3,4.71-6.39-1.69,15.26-1.58,16.78C53.46,31.8,57.9,27.88,62.36,24c2-.42,1.76,0,1.17,1.63-4.85,3.68-9.36,7.75-14.08,11.68,5.34.59,10.39,1.68,15.68,2,1.16.7,3.32,1.15.84,2.07C60,40.57,54,39.85,48.06,39c-2.09.45-3.49,2.8-5.33,3.92C41.19,43.68,45.62,53.36,46,55.46Z"/><polygon class="cls-9" points="33.55 90.23 44.45 90.23 39 80.79 33.55 90.23"/><text class="cls-10" transform="translate(18.38 107.76)">楓 葉</text></g></g></svg>