<svg xmlns="http://www.w3.org/2000/svg" viewBox="0 0 78 115.03"><defs><style>.cls-1{fill:#dc5149;}.cls-2,.cls-7,.cls-8{fill:#534741;}.cls-2{stroke:#736357;stroke-miterlimit:10;stroke-width:3px;}.cls-3{fill:#89c33f;}.cls-4{fill:#fff;}.cls-5{fill:#fff1d7;}.cls-6{fill:#eddab4;}.cls-8{font-size:18px;font-family:KozGoPro-Bold-90ms-RKSJ-H, Kozuka Gothic Pro;letter-spacing:0.03em;}</style></defs><g id="圖層_2" data-name="圖層 2"><g id="圖層_1-2" data-name="圖層 1"><path class="cls-1" d="M43,22.73a1.24,1.24,0,0,1-1,.2A1,1,0,0,1,43,22.73Z"/><path class="cls-1" d="M38.6,22.73a2.57,2.57,0,0,1,1.86.2l-2,0A.84.84,0,0,1,38.6,22.73Z"/><rect class="cls-2" x="1.5" y="1.5" width="75" height="75" rx="19.06"/><path class="cls-3" d="M24.13,69.33a6.51,6.51,0,0,0,3.1-1.64,24.68,24.68,0,0,0,7-8.86c2.78-5.38,4.28-11.14,6-16.85.11-.36.23-.71.35-1.06l-2.17-.53a80.71,80.71,0,0,1-4.6,15,42.5,42.5,0,0,1-3.18,6,13.72,13.72,0,0,1-6,5.34,3,3,0,0,0-.35,2.42l0,.23Z"/><path class="cls-4" d="M15.58,27.84l-5.31-2.78C16.69,21.8,24.2,20,32.15,18.8l2.2,3.67Z"/><path class="cls-4" d="M13.9,25.11c-1.19,1.17-2.54,1-4.5.52a4.23,4.23,0,0,1,4.5-.46Z"/><path class="cls-5" d="M34.56,45.69a4,4,0,0,1-.5-.9C31.77,35.85,25.29,31.48,17,29.08a18.19,18.19,0,0,0-4.63-.79c-2.35,0-4.48.34-5.29,3.12-1.36-2.51-.92-4,1.38-5.15C9,26,10.29,26,9,24.9c-.35-.28,0-.8.14-1.19a8.81,8.81,0,0,1,10.22-5.88c3.48.74,6.79,1.44,10.22-.17a2.75,2.75,0,0,1,3.18.59l-.3.73a14.21,14.21,0,0,0-5.34,1.53,12.4,12.4,0,0,0-3.54,1.78,30.44,30.44,0,0,1-10.28,2.49,2,2,0,0,0-1.34.58,2.79,2.79,0,0,0-3,.33c1.3.31,2.19.42,3-.37.55.31,1,.81,1.72.75,3.79-.33,7.54-.86,10.66-3.35l3-1.52A27,27,0,0,1,33.08,20c4.59.63,5.81,2.12,5,6.75-.84,5-1.46,9.9-.32,14.9a3.64,3.64,0,0,1-.12,1.21l0-.06-.41-.14C35.62,43,35.52,44.71,34.56,45.69Z"/><path class="cls-4" d="M13.43,25.31c-1.22,1.11-2.55.88-4.49.34a4.22,4.22,0,0,1,4.49-.28Z"/><path class="cls-6" d="M32.1,56.42c-1.39-.5-.76-1.67-.73-2.53A42.65,42.65,0,0,1,33,45.17a21.73,21.73,0,0,0,.53-9.85,17,17,0,0,1-.28-3.49c0-4.36,1.85-6.43,6.19-6.92,1-.11,2-.16,2.95-.23,4.81.46,9.62,1,14.44,1.36a22.17,22.17,0,0,0,8.51-1c2.29-.75,4-2.07,4.28-4.64,1.82,1.62.76,3-.44,4.29a13.74,13.74,0,0,1-5.24,3.19c-7.86,2.93-12.85,8.92-16.79,15.91a40.9,40.9,0,0,1-8.38,10.39,4.27,4.27,0,0,1-3.87,1.19A2.76,2.76,0,0,0,32.1,56.42Z"/><path class="cls-6" d="M45.31,14.56c.54-2,2.07-2.39,3.78-2,5.4,1.22,10.84,2.31,15.93,4.64a7.37,7.37,0,0,1,3.32,3C68,22,66.58,22.77,65.12,23.48a16.51,16.51,0,0,1-7.85,1.26C48.27,24.52,47,23.41,45.31,14.56Z"/><path class="cls-4" d="M45.31,14.56c1.66,8.85,3,10,12,10.18a16.51,16.51,0,0,0,7.85-1.26c1.46-.71,2.85-1.53,3.22-3.32a1,1,0,0,1,1.26.21c-.32,2.57-2,3.89-4.28,4.64a22.17,22.17,0,0,1-8.51,1c-4.82-.35-9.63-.9-14.44-1.36l.36-1c1.31-.33,2.72.4,4.13-.25-1.31-2.42-2.53-4.67-2.49-7.33Z"/><path class="cls-6" d="M44.37,16.1c0,2.66,1.18,4.91,2.49,7.33-1.41.65-2.82-.08-4.13.25-.85-.14-1.45-.46-1.43-1.52a14.45,14.45,0,0,1,2.39-8.42Z"/><polygon class="cls-7" points="33.55 90.23 44.45 90.23 39 80.79 33.55 90.23"/><text class="cls-8" transform="translate(18.38 107.76)">海 芋</text></g></g></svg>