<svg xmlns="http://www.w3.org/2000/svg" viewBox="0 0 78 113.73"><defs><style>.cls-1,.cls-5,.cls-6{fill:#534741;}.cls-1{stroke:#736357;stroke-miterlimit:10;stroke-width:3px;}.cls-2{fill:#8593dd;}.cls-3{fill:#7dd15f;}.cls-4{fill:#fdfdfd;}.cls-6{font-size:18px;font-family:KozGoPro-Bold-90ms-RKSJ-H, Kozuka Gothic Pro;letter-spacing:0.03em;}</style></defs><g id="圖層_2" data-name="圖層 2"><g id="圖層_1-2" data-name="圖層 1"><rect class="cls-1" x="1.5" y="1.5" width="75" height="75" rx="19.06"/><path class="cls-2" d="M50.89,56.81a33.27,33.27,0,0,0-4.6.79,17.81,17.81,0,0,1-5.31.91A40,40,0,0,1,28.7,57a1.86,1.86,0,0,0-2.25.72,1.39,1.39,0,0,0-.68-1.31c-1.26-.74-2.5-1.52-3.73-2.31a2.77,2.77,0,0,0-3.76.19c-.88.79-2.14,1.06-3,1.89a.54.54,0,0,1-.71.12c-.38-.3,0-.6.15-.78a12.2,12.2,0,0,1,3.16-2.27c1-.5,1-1,.3-1.77s-1.37-1.83-2-2.75c-.06-.15-.08-.34-.19-.43-3.12-2.64-3-6.57-3.79-10-.49-2,.85-4.15,1.12-6.26.49-3.77,3.76-5.78,5.44-8.79a5.17,5.17,0,0,1,1.84-1.44,18.35,18.35,0,0,0,2.06-1.11c2.35-2,5.22-2.66,8.05-3.62,4.19-1.42,8.42-1,12.64-1,1.62,0,3.19,1.1,4.84,1.3,4,.49,6.76,3.34,10.11,5.07,1.19.62,1.51,2,2.41,2.86.3.28.46.72.77,1,3.38,3,3.57,7.24,4.28,11.16.42,2.31-1,4.67-1.41,7C64,46.1,62.6,47.08,62,48.52c-1.42.67-2,2.09-2.81,3.28-.32.48-.24,1.07.57,1.31,1.55.46,2.55,1.79,3.84,2.66.53.36,1.48.84,1.45,1.92-1.84-1.11-3.63-2.18-5.39-3.27a4.19,4.19,0,0,0-4.42-.32C53.75,54.92,52.34,55.9,50.89,56.81ZM37.24,34.12c0-.07-.08-.36-.22-.4-1.38-.49-2.09-1.64-2.87-2.75-.47-.66-.75-.26-1,.21a5.14,5.14,0,0,1-2.42,2.34c-.8.35-.81,1,0,1.34a5.27,5.27,0,0,1,2.52,2.43c.14.23.32.61.53.4C34.94,36.56,36.05,35.37,37.24,34.12ZM26.86,36.57a.58.58,0,0,0-.29-.57,6.76,6.76,0,0,1-2.72-2.53c-.36-.51-.7-.23-1,.19A4.67,4.67,0,0,1,20.49,36a.66.66,0,0,0,0,1.28c1.21.44,1.73,1.44,2.37,2.38.18.26.45.72.67.5C24.66,39,25.72,37.82,26.86,36.57ZM42.31,24.68c0-.38-.32-.57-.64-.77a5.05,5.05,0,0,1-2-2c-.54-1.19-1-.83-1.51-.12A5.76,5.76,0,0,1,36,24c-.7.34-.64.88-.07,1.18a6.66,6.66,0,0,1,2.46,2.37c.13.2.56.46.61.42C40.08,26.88,41.18,25.79,42.31,24.68ZM32.19,27c0-.43-.41-.43-.68-.55a3.69,3.69,0,0,1-2.16-2.13c-.12-.33-.19-.85-.63-.76a1.34,1.34,0,0,0-.77.71,3.8,3.8,0,0,1-2.15,2.17c-1.22.42-.71,1.09-.07,1.37a4.39,4.39,0,0,1,2.19,2.12c.43.81,1,.94,1.44,0a3.45,3.45,0,0,1,2.08-2A1.13,1.13,0,0,0,32.19,27Zm20.53,0c0-.34-.26-.47-.51-.57a3.75,3.75,0,0,1-1.49-1.12c-.91-1-1.68-1.09-2.68,0-1.65,1.83-1.67,1.73,0,3.54.83.92,1.45,1.44,2.28.05a2.15,2.15,0,0,1,1.55-1A1.11,1.11,0,0,0,52.72,27Zm1.42,12.7a2,2,0,0,0,1.19-1.17c.37-.9,1.81-.89,1.82-1.77s-1.4-1.13-1.85-2c-.68-1.3-1.19-1.31-1.94,0-.44.77-1.82,1.24-1.89,1.94-.09.91,1.44,1.09,2,1.93C53.67,39,53.62,39.5,54.14,39.65ZM43.83,37.09C45,36.44,45.36,35,46.6,34.55c.4-.15.28-.63-.1-.87a11.69,11.69,0,0,1-2.58-2.62A5.3,5.3,0,0,1,42,33.47c-.9.6-.66,1,.06,1.48A4.88,4.88,0,0,1,43.83,37.09Z"/><path class="cls-3" d="M50.89,56.81c1.45-.91,2.86-1.89,4.36-2.71a4.19,4.19,0,0,1,4.42.32c1.76,1.09,3.55,2.16,5.39,3.27,0-1.08-.92-1.56-1.45-1.92-1.29-.87-2.29-2.2-3.84-2.66-.81-.24-.89-.83-.57-1.31.81-1.19,1.39-2.61,2.81-3.28,3.45,2.76,5.2,6.58,6.48,10.64.47,1.49-1,1.65-1.91,1.94a19,19,0,0,1-8.66.72,9.37,9.37,0,0,1-6.18-3.34A17.5,17.5,0,0,1,50.89,56.81Z"/><path class="cls-3" d="M16.1,48.71c.68.92,1.3,1.89,2,2.75s.74,1.27-.3,1.77a12.2,12.2,0,0,0-3.16,2.27c-.19.18-.53.48-.15.78a.54.54,0,0,0,.71-.12c.89-.83,2.15-1.1,3-1.89A2.77,2.77,0,0,1,22,54.08c1.23.79,2.47,1.57,3.73,2.31a1.39,1.39,0,0,1,.68,1.31c-1.48,2.72-4.05,3.76-6.87,4.13a20.71,20.71,0,0,1-8.41-.78c-1.5-.43-2.05-1.28-1.59-2.65,1.18-3.51,2.74-6.81,5.69-9.25A4.69,4.69,0,0,1,16.1,48.71Zm-2.77,8.36a1.44,1.44,0,0,0-1,.53c.57.14.87,0,1-.52.22-.07.5-.06.49-.4a.13.13,0,0,0-.1-.09C13.4,56.58,13.38,56.84,13.33,57.07Z"/><path class="cls-4" d="M37.24,34.12c-1.19,1.25-2.3,2.44-3.46,3.57-.21.21-.39-.17-.53-.4a5.27,5.27,0,0,0-2.52-2.43c-.82-.35-.81-1,0-1.34a5.14,5.14,0,0,0,2.42-2.34c.26-.47.54-.87,1-.21.78,1.11,1.49,2.26,2.87,2.75C37.16,33.76,37.2,34.05,37.24,34.12Z"/><path class="cls-4" d="M26.86,36.57c-1.14,1.25-2.2,2.47-3.34,3.6-.22.22-.49-.24-.67-.5-.64-.94-1.16-1.94-2.37-2.38a.66.66,0,0,1,0-1.28,4.67,4.67,0,0,0,2.4-2.35c.26-.42.6-.7,1-.19A6.76,6.76,0,0,0,26.57,36,.58.58,0,0,1,26.86,36.57Z"/><path class="cls-4" d="M42.31,24.68c-1.13,1.11-2.23,2.2-3.36,3.26-.05,0-.48-.22-.61-.42a6.66,6.66,0,0,0-2.46-2.37c-.57-.3-.63-.84.07-1.18a5.76,5.76,0,0,0,2.22-2.16c.49-.71,1-1.07,1.51.12a5.05,5.05,0,0,0,2,2C42,24.11,42.29,24.3,42.31,24.68Z"/><path class="cls-4" d="M32.19,27a1.13,1.13,0,0,1-.75.92,3.45,3.45,0,0,0-2.08,2c-.44,1-1,.84-1.44,0a4.39,4.39,0,0,0-2.19-2.12c-.64-.28-1.15-1,.07-1.37A3.8,3.8,0,0,0,28,24.22a1.34,1.34,0,0,1,.77-.71c.44-.09.51.43.63.76a3.69,3.69,0,0,0,2.16,2.13C31.78,26.52,32.15,26.52,32.19,27Z"/><path class="cls-4" d="M52.72,27a1.11,1.11,0,0,1-.88,1,2.15,2.15,0,0,0-1.55,1c-.83,1.39-1.45.87-2.28-.05-1.64-1.81-1.62-1.71,0-3.54,1-1.11,1.77-1,2.68,0a3.75,3.75,0,0,0,1.49,1.12C52.46,26.48,52.69,26.61,52.72,27Z"/><path class="cls-4" d="M42.09,41.52c-1.13,1.11-2.23,2.2-3.36,3.25,0,0-.48-.21-.61-.41A6.59,6.59,0,0,0,35.66,42c-.57-.31-.63-.85.07-1.18A5.76,5.76,0,0,0,38,38.65c.49-.71,1-1.07,1.51.12a5.12,5.12,0,0,0,2,2C41.77,41,42.07,41.14,42.09,41.52Z"/><path class="cls-4" d="M32,43.79a1.13,1.13,0,0,1-.75.92,3.43,3.43,0,0,0-2.08,2c-.44,1-1,.85-1.44,0a4.41,4.41,0,0,0-2.19-2.11c-.64-.28-1.15-1,.07-1.37a3.83,3.83,0,0,0,2.15-2.17,1.34,1.34,0,0,1,.77-.71c.44-.09.51.43.63.75a3.68,3.68,0,0,0,2.16,2.14C31.56,43.36,31.93,43.35,32,43.79Z"/><path class="cls-4" d="M52.5,43.79a1.11,1.11,0,0,1-.88,1,2.15,2.15,0,0,0-1.55,1c-.83,1.39-1.45.87-2.28-.05-1.64-1.81-1.62-1.71,0-3.54,1-1.11,1.77-1,2.68,0A3.84,3.84,0,0,0,52,43.22.64.64,0,0,1,52.5,43.79Z"/><path class="cls-4" d="M54.14,39.65c-.52-.15-.47-.68-.68-1-.55-.84-2.08-1-2-1.93.07-.7,1.45-1.17,1.89-1.94.75-1.34,1.26-1.33,1.94,0,.45.84,1.86,1,1.85,2s-1.45.87-1.82,1.77A2,2,0,0,1,54.14,39.65Z"/><path class="cls-4" d="M43.83,37.09A4.88,4.88,0,0,0,42.07,35c-.72-.52-1-.88-.06-1.48a5.3,5.3,0,0,0,1.91-2.41,11.69,11.69,0,0,0,2.58,2.62c.38.24.5.72.1.87C45.36,35,45,36.44,43.83,37.09Z"/><path class="cls-3" d="M13.34,57.08c-.1.49-.4.66-1,.52a1.44,1.44,0,0,1,1-.53Z"/><path class="cls-3" d="M13.33,57.07c.05-.23.07-.49.4-.48a.13.13,0,0,1,.1.09c0,.34-.27.33-.49.4Z"/><polygon class="cls-5" points="34.15 88.93 45.04 88.93 39.59 79.5 34.15 88.93"/><text class="cls-6" transform="translate(11.92 106.46)">繡球花</text></g></g></svg>