<svg xmlns="http://www.w3.org/2000/svg" viewBox="0 0 78 115.03"><defs><style>.cls-1,.cls-5,.cls-6{fill:#534741;}.cls-1{stroke:#736357;stroke-miterlimit:10;stroke-width:3px;}.cls-2{fill:#d77d3e;}.cls-2,.cls-3,.cls-4{fill-rule:evenodd;}.cls-3{fill:#814c3c;}.cls-4{fill:#e8a16f;}.cls-6{font-size:18px;font-family:KozGoPro-Bold-90ms-RKSJ-H, Kozuka Gothic Pro;letter-spacing:0.03em;}</style></defs><g id="圖層_2" data-name="圖層 2"><g id="圖層_1-2" data-name="圖層 1"><rect class="cls-1" x="1.5" y="1.5" width="75" height="75" rx="19.06"/><path class="cls-2" d="M58.9,26.7A8.39,8.39,0,0,1,64,34.24c0,4.23-3.42,7.74-7.88,8.35a4.49,4.49,0,0,1-4.62,3.89,5,5,0,0,1-1.4-.2c0,.13,0,.27,0,.41,0,3.61-3.21,6.54-7.18,6.54a7.44,7.44,0,0,1-5.68-2.55,9.58,9.58,0,0,1-7,3c-5.11,0-9.26-3.78-9.26-8.44h0A4.44,4.44,0,0,1,16.32,41a4,4,0,0,1,1.06-2.68,6.26,6.26,0,0,1,.11-11.16,4,4,0,0,1-.55-2,4.44,4.44,0,0,1,4.63-4.22h.08a6.26,6.26,0,0,1-.24-1.68,6.78,6.78,0,0,1,6.11-6.47,9.26,9.26,0,0,1,8.7-5.56A9.24,9.24,0,0,1,45,13a7.72,7.72,0,0,1,4-1.08c4,0,7.17,2.92,7.17,6.54A6.35,6.35,0,0,1,56,19.48a4.4,4.4,0,0,1,4.26,4.2A4,4,0,0,1,58.9,26.7Z"/><path class="cls-3" d="M31.2,71.35c7.24-14.44-.49-34.73,4.67-41.32,4.83-6.17,7,27.16,4.14,41.32Z"/><path class="cls-4" d="M37.33,18.29a5.55,5.55,0,0,1,.79,5.33c-.44,1.21-1.52,1.46-2.09.19a5.9,5.9,0,0,1,.79-5.62C37,18,37.21,18.12,37.33,18.29Z"/><path class="cls-4" d="M54.78,41.06a5,5,0,0,1-4.06-.48c-.81-.48-.8-1.19.24-1.31a5.09,5.09,0,0,1,4,1.49C55.06,40.88,54.93,41,54.78,41.06Z"/><path class="cls-4" d="M54.42,21.36a6.32,6.32,0,0,1-4.16,3.81c-1.31.42-2.19-.2-1.43-1.4a7.15,7.15,0,0,1,5.36-2.84C54.44,20.92,54.5,21.16,54.42,21.36Z"/><path class="cls-4" d="M49.53,35.77A7.14,7.14,0,0,1,43.68,35c-1.16-.7-1.14-1.71.36-1.88a7.33,7.33,0,0,1,5.73,2.18C49.92,35.51,49.74,35.7,49.53,35.77Z"/><path class="cls-4" d="M52.75,30.38a4,4,0,0,1-3.3-.06c-.69-.33-.75-.89.07-1.07a4.14,4.14,0,0,1,3.33.88C53,30.22,52.87,30.33,52.75,30.38Z"/><path class="cls-4" d="M45.89,47.05a4.23,4.23,0,0,1-2.7-2.69c-.27-.83.22-1.35,1.08-.84a4.24,4.24,0,0,1,1.95,3.4C46.22,47.07,46,47.1,45.89,47.05Z"/><path class="cls-4" d="M45.07,21.22a5.64,5.64,0,0,1-1.32,5.25c-.87,1-2,.88-2-.5a6.24,6.24,0,0,1,2.9-5C44.82,20.84,45,21,45.07,21.22Z"/><path class="cls-4" d="M29.15,13.56A6.06,6.06,0,0,1,32.51,18c.22,1.26-.62,1.93-1.77,1a6.08,6.08,0,0,1-2.1-5.33C28.67,13.47,29,13.46,29.15,13.56Z"/><path class="cls-4" d="M28.8,23.86a4.42,4.42,0,0,1,3.33,1.76c.51.69.22,1.29-.73,1.06a4.4,4.4,0,0,1-2.86-2.61C28.49,23.93,28.65,23.85,28.8,23.86Z"/><path class="cls-4" d="M21.58,29.84a7.11,7.11,0,0,1,5.89.28c1.22.62,1.29,1.63-.18,1.91a7.47,7.47,0,0,1-5.91-1.75C21.21,30.12,21.37,29.92,21.58,29.84Z"/><path class="cls-4" d="M21.29,38.13a4.42,4.42,0,0,1,3.33-1.9c.92-.09,1.38.44.7,1.11a5,5,0,0,1-4,1.1C21.2,38.41,21.2,38.25,21.29,38.13Z"/><path class="cls-4" d="M28.16,40.26a5.74,5.74,0,0,1,2.26-5c1-.85,2.12-.57,1.91.79a6.46,6.46,0,0,1-3.77,4.49C28.33,40.68,28.17,40.47,28.16,40.26Z"/><path class="cls-4" d="M41.75,15.28A3.16,3.16,0,0,1,41,18.22c-.49.55-1.11.49-1.14-.28a3.51,3.51,0,0,1,1.63-2.8C41.61,15.07,41.72,15.17,41.75,15.28Z"/><path class="cls-4" d="M29.18,49.33a4.24,4.24,0,0,1,.95-4c.66-.76,1.5-.69,1.55.36a4.78,4.78,0,0,1-2.16,3.84C29.36,49.62,29.22,49.49,29.18,49.33Z"/><path class="cls-4" d="M60.12,35a4,4,0,0,1-3.3-.07c-.69-.32-.75-.88.07-1.07a4.21,4.21,0,0,1,3.33.88C60.32,34.83,60.24,35,60.12,35Z"/><polygon class="cls-5" points="33.55 90.23 44.45 90.23 39 80.79 33.55 90.23"/><text class="cls-6" transform="translate(11.32 107.76)">落羽松</text></g></g></svg>