<svg xmlns="http://www.w3.org/2000/svg" viewBox="0 0 78 115.03"><defs><style>.cls-1,.cls-10,.cls-11{fill:#534741;}.cls-1{stroke:#736357;stroke-miterlimit:10;stroke-width:3px;}.cls-2{fill:none;}.cls-3{fill:#a04ad9;}.cls-4{fill:#9f4ad8;}.cls-5{fill:#e380f8;}.cls-6{fill:#e380f7;}.cls-7{fill:#c266e7;}.cls-8{fill:#e480f8;}.cls-9{fill:#75bea2;}.cls-11{font-size:18px;font-family:KozGoPro-Bold-90ms-RKSJ-H, Kozuka Gothic Pro;letter-spacing:0.03em;}</style></defs><g id="圖層_2" data-name="圖層 2"><g id="圖層_1-2" data-name="圖層 1"><rect class="cls-1" x="1.5" y="1.5" width="75" height="75" rx="19.06"/><path class="cls-2" d="M51.37,30.37a2.2,2.2,0,0,0,.91-.21c2.5-1,3.89-3,5-5.26.12-.25,0-.33-.19-.39a6.47,6.47,0,0,0-4.58.34.43.43,0,0,0-.3.42,20,20,0,0,1-.93,5v.13Z"/><path class="cls-2" d="M54.18,4.9,54,5.06a12.17,12.17,0,0,0-4.71,8.19,3.94,3.94,0,0,0,0,1.93A10.64,10.64,0,0,1,50.09,18c0,.34.28.38.49.49s.34-.07.46-.2a10.87,10.87,0,0,1,2.24-2,1,1,0,0,0,.38-.49A14.91,14.91,0,0,0,55,7.93,8.85,8.85,0,0,0,54.18,4.9Z"/><path class="cls-2" d="M52.59,22.92a6.81,6.81,0,0,0,4.11-1.75,12.3,12.3,0,0,0,2.65-3.63c.27-.51.13-.65-.39-.76a6.71,6.71,0,0,0-7,2.7,1.24,1.24,0,0,0-.31,1.36,6.57,6.57,0,0,1,.36,1.65C52.11,22.9,52.29,23,52.59,22.92Z"/><path class="cls-2" d="M59.5,9.11A5.69,5.69,0,0,0,58,9.26c-1.3.31-1.41.44-1.5,1.77a3.15,3.15,0,0,1,0,.43,16.09,16.09,0,0,1-.76,3.35c-.14.39-.05.52.35.37l.18,0c2.76-.89,4.26-3,5.46-5.47.12-.24,0-.26-.21-.31A6.65,6.65,0,0,0,59.5,9.11Z"/><path class="cls-3" d="M47.93,14.34a20.82,20.82,0,0,1,3.21-2.43c.67-.47.93-.33,1.06.49a23,23,0,0,1-3,15.5,4.14,4.14,0,0,1-2,2A14.33,14.33,0,0,0,44,32.1c-.23.19-.41.43-.77.19s-.63-.32-.63-.8a19.19,19.19,0,0,0-.73-4.86,6,6,0,0,1,.43-3A19.68,19.68,0,0,1,47.93,14.34Z"/><path class="cls-4" d="M32.22,56.9a30.39,30.39,0,0,0-.57-7.27c-.31-2,.63-4,1.46-5.79a19.53,19.53,0,0,1,7.61-8.63c1-.63,1.09-.61,1.27.56A23.1,23.1,0,0,1,38.43,52a1.35,1.35,0,0,1-.56.55A18.5,18.5,0,0,0,32.22,56.9Z"/><path class="cls-5" d="M34.86,57.66c3.54-3.54,7.47-4.68,12.08-2.91.6.23.79.39.35,1a17.44,17.44,0,0,1-6.56,6.09,10.92,10.92,0,0,1-8.52.39c-.66-.23-.75-.48-.33-1A24.29,24.29,0,0,1,34.86,57.66Z"/><path class="cls-6" d="M54.18,36.55a11.3,11.3,0,0,1-8.66,3.28c-.64,0-.84-.24-.83-.89a12.88,12.88,0,0,0-.21-2.71,1.82,1.82,0,0,1,.63-1.86C48.54,31.15,52.4,29.8,57,31.5c.67.25,1,.41.43,1.19A29.35,29.35,0,0,1,54.18,36.55Z"/><path class="cls-6" d="M51.83,28.24a27.33,27.33,0,0,0,2.73-8c.07-.37.29-.48.6-.58a10.31,10.31,0,0,1,7.27.44c.39.16.56.33.29.73-2.18,3.23-4.73,6-8.65,7.11A5.49,5.49,0,0,1,51.83,28.24Z"/><path class="cls-6" d="M39.68,23.05a27.76,27.76,0,0,1,4.21-7.28.71.71,0,0,0,0-.83,10.3,10.3,0,0,0-5.1-5.2c-.37-.19-.62-.21-.74.26-1,3.77-1.44,7.51.3,11.2A5.33,5.33,0,0,0,39.68,23.05Z"/><path class="cls-7" d="M41.64,51.38a26.89,26.89,0,0,0,2.68-7.81c.08-.49.44-.62.83-.74a10.26,10.26,0,0,1,7.07.51c.3.12.58.24.3.64-2.41,3.59-5.24,6.64-9.78,7.43A1.61,1.61,0,0,1,41.64,51.38Z"/><path class="cls-8" d="M27.66,47.61a10.46,10.46,0,0,1,2.25,7.12,25,25,0,0,1-.71,5.57c-.09.4-.22.61-.66.38a9.57,9.57,0,0,1-3.42-2.56,21.93,21.93,0,0,1,.54-8.94c.42-1.61.38-1.62,1.92-1.53C27.6,47.66,27.63,47.62,27.66,47.61Z"/><path class="cls-7" d="M29.92,46.05a10.89,10.89,0,0,1-2.79-6,18.93,18.93,0,0,1,.17-6.5c.08-.45.19-.69.7-.5A10,10,0,0,1,33.19,37c.19.3.44.57.14,1A22.82,22.82,0,0,0,29.92,46.05Z"/><path class="cls-5" d="M37.88,24.49c1.94,2.27,2.3,5,2.26,7.83,0,.46-.31.64-.63.83a17.45,17.45,0,0,0-2.85,2.05c-.61.55-.95.45-1.26-.23a1.73,1.73,0,0,0,0-.39,20.67,20.67,0,0,1,.73-9.5c.19-.67.49-.91,1.15-.64A.65.65,0,0,0,37.88,24.49Z"/><path class="cls-9" d="M11.3,49.19c5,.08,8.66,2.25,11.72,5.66a27.39,27.39,0,0,1,3.34,4.79A6.74,6.74,0,0,1,27,60.91a1.1,1.1,0,0,1-.47,1.24c-.43.27-.53-.34-.71-.6A38.36,38.36,0,0,0,14.12,50.89C13.27,50.36,12.4,49.85,11.3,49.19Z"/><path class="cls-6" d="M27.66,47.61s-.06,0-.08,0c-1.54-.09-1.5-.08-1.92,1.53a21.93,21.93,0,0,0-.54,8.94,10,10,0,0,1-2.86-6.86A19.82,19.82,0,0,1,22.91,45c.13-.53.25-.77.85-.45A10.28,10.28,0,0,1,27.66,47.61Z"/><path class="cls-6" d="M37.88,24.49a.65.65,0,0,1-.58,0c-.66-.27-1,0-1.15.64a20.67,20.67,0,0,0-.73,9.5,1.73,1.73,0,0,1,0,.39,10.74,10.74,0,0,1-2.83-6.81,18.59,18.59,0,0,1,.59-6.38c.09-.37.17-.78.71-.49A9.45,9.45,0,0,1,37.88,24.49Z"/><path class="cls-9" d="M51.14,65.94a13.12,13.12,0,0,0-5.48-3A24.52,24.52,0,0,0,32,63.1c-.32.08-.7.1-.8.51s-.35.68-.15,1,.56,0,.84,0a36.69,36.69,0,0,1,10.2-.33A64.06,64.06,0,0,1,51.14,65.94Z"/><polygon class="cls-10" points="33.55 90.23 44.45 90.23 39 80.79 33.55 90.23"/><text class="cls-11" transform="translate(11.33 107.76)">薰衣草</text></g></g></svg>