<svg xmlns="http://www.w3.org/2000/svg" viewBox="0 0 78 114.62"><defs><style>.cls-1,.cls-13,.cls-14{fill:#534741;}.cls-1{stroke:#736357;stroke-miterlimit:10;stroke-width:3px;}.cls-2{fill:#92c42c;}.cls-3{fill:#f0d509;}.cls-4{fill:#91c329;}.cls-5{fill:#98c737;}.cls-6{fill:#9eca3f;}.cls-7{fill:#f0d615;}.cls-8{fill:#a5ce52;}.cls-9{fill:#f6f9f1;}.cls-10{fill:#dfecc4;}.cls-11{fill:#f7f5d9;}.cls-12{fill:#fcfcfb;}.cls-14{font-size:18px;font-family:KozGoPro-Bold-90ms-RKSJ-H, Kozuka Gothic Pro;letter-spacing:0.03em;}</style></defs><g id="圖層_2" data-name="圖層 2"><g id="圖層_1-2" data-name="圖層 1"><rect class="cls-1" x="1.5" y="1.5" width="75" height="75" rx="19.06"/><path class="cls-2" d="M27,37.38c-.74,0-.78-.53-.93-1.05a19.07,19.07,0,0,1-.47-9.69c.14-.67.61-1.65-.16-2.08s-1.45.3-2.06.7c-1.27.83-2,1.71-1.33,3.51.9,2.42-.21,4.55-2.16,6a30.07,30.07,0,0,0-8.38,8.84c-.18-.15-.39-.24-.38-.32a45.35,45.35,0,0,1,1.68-11.46C13.74,28.56,16,25.92,20,26c.81,0,1.22-.51,1.72-1a1.31,1.31,0,0,0,1.14-.91c2-.93,4.41-1.21,5.3-3.95.5-1.52,2.45-1,3.85-1.28-3.42-1.83-6.65-4.19-11.32-2.49A3.31,3.31,0,0,1,24,14.49c2.2-.1,4.42-.1,6.63,0,2.49.08,3.32,1,3.28,3.64,0,.71.18,1.19.9,1.37,1.84,1.88,1.82,3.87.84,6.27s-3.06,3.54-4.23,5.57l-.86.51c-.58.09-.76.52-.87,1A2.75,2.75,0,0,0,27.44,36a.88.88,0,0,0-.33.94Z"/><path class="cls-3" d="M27,37.38c.06-.15.11-.3.16-.45.38-.07.93.12,1-.42s-.4-.44-.71-.52a2.77,2.77,0,0,1,2.3-3.16c-.08,1.13-.16,2.26-.24,3.49,2.43-1.18,1.09-3,1.1-4.5l.86-.51c.95.16,2-.16,2.88.35.51.29.91.17.94-.43.1-2.06,1.79-2.37,3.21-3a5.54,5.54,0,0,0,0,.91c.08.55-.32,1.36.42,1.58s.93-.59,1.28-1c.86-1.11,1.33-2.53,2.58-3.34,3,.65,3.75,2.13,2.11,4.52-.33.49-.31.64,0,1.1,1.72,2.76,1.4,3.32-1.89,3.52-.32,0-.59.11-.71.66.73.71,1.88.54,2.78,1,1.44.7,2,1.59.7,3l-1.39.37c-.53,0-1.72-1-1.25.59.62,2.11-.31,3.26-2,4.15-1.66-.07-1.11,1.22-1.27,2.06a3.14,3.14,0,0,1-2.54,1.26l-1.54-.14a2.93,2.93,0,0,1-.51-2.72l1-.9c.84-.16,2,.1,1.78-1.39-.31-1.67.64-2.53,1.92-3.23l1.3-.17c.42,0,1.12.39,1.16-.06s-.65-.92-1.19-1.21c-.26-.41-.33-1.05-.92-1.1s-.44.48-.55.81A3.34,3.34,0,0,1,35.33,40c-.3-.42-1-.61-1.12-.29-.28.61.57.36.81.65,1.87,1,3,2.2,1.09,4.19l-.86.27A3.92,3.92,0,0,1,33,44.25c0-.5-.29-.79-.83-.72l-.55-1c-.16-.66-.57-1.3-.1-2,.66-.33,1.52-.47,1.43-1.5a.74.74,0,0,0-.7-.76c-.69-.08-1.42-.15-1.56.84a2.26,2.26,0,0,1-3.17,1.1C25.94,39.64,27.06,38.36,27,37.38Z"/><path class="cls-4" d="M63.34,14.52c0,2.27-1.27,4.11-2.15,6.08a16.36,16.36,0,0,0-1.9,4.76c-.2.64-.39.93-1,.51a1.05,1.05,0,0,0-.47-1,5.42,5.42,0,0,0-1.32-3.18c-.18-1.47-.37-2.95-.55-4.43,1.52-.73-.37-1.72.14-2.58A1.16,1.16,0,0,0,55,15a6,6,0,0,0-2.41,1.27,4.7,4.7,0,0,1-4.55.86c-3-.86-5.92-1.19-9,.28a9,9,0,0,1,9.87-5c2.25.45,4.39-.54,6.58,0,.62.16.9-.43,1.18-.9.4-.65.82-1.28,1.27-1.9a3.27,3.27,0,0,1,3.54-1.54C63,8.39,63,9.76,63.34,10.9a7.45,7.45,0,0,1,.11,1.57C63.41,13.15,63.37,13.84,63.34,14.52Z"/><path class="cls-4" d="M56.07,20.6c-.74,2.15-2.51,3.49-4,5.08a16.32,16.32,0,0,0-3.32,3.9c-.39.54-.67.76-1.14.16a1.06,1.06,0,0,0-.12-1.11,5.45,5.45,0,0,0-.24-3.43c.29-1.46.59-2.92.89-4.38,1.67-.21.2-1.74.95-2.4A1.15,1.15,0,0,0,48,18.35a6.19,6.19,0,0,0-2.69.43,4.69,4.69,0,0,1-4.58-.63c-2.56-1.77-5.24-3-8.67-2.62A9,9,0,0,1,43,13.94c2,1.15,4.34.89,6.23,2.14.53.36,1-.12,1.4-.47.59-.49,1.19-1,1.81-1.4a3.3,3.3,0,0,1,3.85-.34c1.33.8,1,2.11.9,3.3a7.76,7.76,0,0,1-.4,1.52C56.58,19.33,56.32,20,56.07,20.6Z"/><path class="cls-2" d="M42.8,26.35c-1.25.81-1.72,2.23-2.58,3.34-.35.45-.58,1.25-1.28,1s-.34-1-.42-1.58a5.54,5.54,0,0,1,0-.91c0-1.47.1-2.95,0-4.42-.14-2.54-1.36-4.19-3.12-4.39.53-1.63.7-3.4,2.1-4.68s3.43-.92,5.12-1.5a26.87,26.87,0,0,0,5-2,23.41,23.41,0,0,1,8.44-2.6,3.33,3.33,0,0,1,2.73.81c-1.37.78-2.69.37-3.89.5-3.28.37-6,2-8.82,3.51-.47.26-.65.41-.5,1a12,12,0,0,1-2.51,11.24A2.31,2.31,0,0,0,42.8,26.35Z"/><path class="cls-2" d="M49.48,31.9a21.76,21.76,0,0,0-3,4.29c-1.29-2.22-2.14-4.41-1.59-6.66a26.18,26.18,0,0,0,.52-5.19,5.73,5.73,0,0,1,6.85-5.52h0l-.77.89a.33.33,0,0,0-.19.21c-1.52,1.52-1.43,3.63-2.12,5.47,1.53-1.33,1.84-3.26,2.63-4.94a.4.4,0,0,0,.16-.31l.54-.59,1.13,0a6.24,6.24,0,0,1,1.83,2.85c-.54,1.63-.51,3.44-1.53,4.93-.17.12-.47.16-.31.48l0,0c-.52,0-.72.2-.48.71a.41.41,0,0,0-.21.2c-1.58,0-2.1,1.11-2.54,2.33l0,0C49.86,31,49.66,31.45,49.48,31.9Zm-1.37-5c.3-.14.71-.15.75-.6,0-.05-.08-.11-.12-.17-.21.26-.41.53-.61.79l-.1.37Z"/><path class="cls-3" d="M53,28.69a.41.41,0,0,1,.21-.2c.26-.17.51-.34.48-.71l0,0c.27-.06.39-.21.31-.48,1-1.49,1-3.3,1.53-4.93l1-.71a5.42,5.42,0,0,1,1.32,3.18,3.27,3.27,0,0,0-2.26,2.19c1.43.53,1.55-1.47,2.73-1.18.64.42.83.13,1-.51a16.36,16.36,0,0,1,1.9-4.76c1.05.28,2.19.57,2.41,1.78S63,24,62,24.18c-.35.06-.58.3-.46.61a1.07,1.07,0,0,0,.62.54c.27.09.6,0,.89,0,.94.14,2.21-.41,2.56,1s-.79,1.91-1.84,2.36c-1.06.1-.68-2.47-2.34-1.26a3.71,3.71,0,0,0-.5,3.63L60,32.38l-1.58.37-.5,0-.45-.48c-.37-1.6-1.51-.68-2.34-.71-.34,0-.61.33-.49.59.41.9,1.32.34,2,.57a1.69,1.69,0,0,0,.45,0l.5.37c.38,1.34.13,2.52-1.3,2.91s-2.85.31-3.38-1.35c-.45-1.43-2.68-.87-2.66-2.65.07-.32.14-.64.22-1l0,0C51.81,30.85,52.94,30.38,53,28.69Z"/><path class="cls-5" d="M22.86,24.09a1.31,1.31,0,0,1-1.14.91c-4.95-2.26-6.33-2.17-12.9.76C9.63,23,13.93,20.5,17.15,21a5.43,5.43,0,0,0,3.75-.41,2.2,2.2,0,0,1,2.59-.08c.79.73.23,1.68-.2,2.5A10.52,10.52,0,0,0,22.86,24.09Z"/><path class="cls-3" d="M40,57.58c-.68-.88-1.19-1.43-2.42-.43s-2.31-.44-3.41-1c.78-.68.65-2.2,1.94-2.35,1.51-.17,1.6-1.09,1.46-2.24a1.61,1.61,0,0,0,0-.38,2.43,2.43,0,0,1,2.75-1.48l.53.86c0,1.28-.07,2.5-1.3,3.24.64.71,1.26.43,1.83.45,1.42.62,1.65,1.61.87,2.89l.05,0-1.12.54Z"/><path class="cls-6" d="M55.08,46a4.22,4.22,0,0,0-.31-3.08,1.05,1.05,0,0,0,.08-1.22,1.39,1.39,0,0,0,.1-1.34l.59-.15c.2.88-.93,2.11.7,2.6A4.12,4.12,0,0,0,56,45c0,1-1,2.64,1.32,2.44a1.86,1.86,0,0,1,0,2.33c-2.38-.31-1.78,1.34-1.74,2.63-.05.58-.13,1.17.49,1.54l1.29,4.11h0c-1.07-.47-1.1.14-1,.92a3.2,3.2,0,0,1-.44,0c-.85-.91-1.58-1.63-.83-3.2A1.87,1.87,0,0,0,53.3,53c1-.7,3-1.1.79-2.73C54.34,48.81,54.3,47.29,55.08,46Z"/><path class="cls-7" d="M58.7,42.47c1.21-.53.58-1,0-1.65-.77-1-1.1-2.28,0-3,1.23-.87,2.39.14,3.1,1.1,1.05,1.41-.23,2.12-1.3,2.85l.62.34c.64.3,1.73.31,1.34,1.41-.32.93-1.19.75-2,.51l-.87-.31Z"/><path class="cls-7" d="M41.35,54.29c-.57,0-1.19.26-1.83-.45,1.23-.74,1.35-2,1.3-3.24l.52.45c2.5-1.89,3.2-1.67,3.65,1.36.13.85.82.77,1.2,1.17a1.47,1.47,0,0,1,.41,1.66,1.09,1.09,0,0,1-1.14.59c-.65,0-1.41-.25-1.36-.93.1-1.31-.89-1.24-1.61-1.69C40.43,51.91,41.24,53.43,41.35,54.29Z"/><path class="cls-7" d="M58.42,32.75,60,32.38c.09.78.81.81,1.3,1.12a1.88,1.88,0,0,1,1,2.31,1.76,1.76,0,0,1-2.22,1.13,2,2,0,0,1-1.88-2C58.15,34.21,58.8,33.53,58.42,32.75Z"/><path class="cls-3" d="M55.54,40.18l-.59.15c-1-.08-2.24.16-2.58-1.26a1.77,1.77,0,0,1,.73-2,4.36,4.36,0,0,1,3.31-.11c.66.16.61.8.32,1.31S55.94,39.54,55.54,40.18Z"/><path class="cls-6" d="M40,57.58l1.17.09a5,5,0,0,0,.54,3.51v1c-.44-.36-1.07,2.47-1.35-.06-.1-.85-.39-.74-1-.55a1.35,1.35,0,0,1-1.93-1c-.18-.87.41-1.41,1.21-1.68C39.24,58.61,40,58.51,40,57.58Z"/><path class="cls-3" d="M47.21,46.82c0,1.33-.68,1.8-1.74,1.76a1.94,1.94,0,0,1-2.07-2.21c0-1,.51-1.83,1.69-1.69A2.21,2.21,0,0,1,47.21,46.82Z"/><path class="cls-7" d="M37.54,51.22a1.61,1.61,0,0,1,0,.38c-1.4,1.13-2.78,1.33-4.12-.1l.06-1.37,2.29-1.75,1.54.14C36.93,49.46,37.86,50.29,37.54,51.22Z"/><path class="cls-7" d="M55.08,46c-.78,1.32-.74,2.84-1,4.28l-1.16.44c-.56-.71-2.08-.5-1.88-1.89.19-1.21.79-2.14,2.17-2.19C53.92,46.58,54.13,45.21,55.08,46Z"/><path class="cls-3" d="M58.7,42.47l1,1.2c.07.88.08,1.73-1,2h-1.3L56,45a4.12,4.12,0,0,1,.29-2.25C57,41.81,57.74,41.52,58.7,42.47Z"/><path class="cls-7" d="M54.85,41.67a1.05,1.05,0,0,1-.08,1.22,2.13,2.13,0,0,1-2,1.21c-1,0-1.66-.39-1.69-1.44s.53-1.37,1.44-1.38S54.17,40.89,54.85,41.67Z"/><path class="cls-7" d="M61.41,27.46c1.66-1.21,1.28,1.36,2.34,1.26.48.89,1.26,1.85.2,2.75s-1.8.26-2.52-.52C60.86,29.79,62.07,28.62,61.41,27.46Z"/><path class="cls-7" d="M57.35,45.67h1.3c-.5.67-.12,1.19.39,1.54.86.61,2.05,1,1.5,2.4s-1.89.37-2.82.64l-.46-.45a1.86,1.86,0,0,0,0-2.33C57.3,46.87,57.32,46.27,57.35,45.67Z"/><path class="cls-5" d="M32.35,54.35c0,.22.18.45.14.64-.62,3-.62,3,2.38,3.78-.52,1-1.4.63-2.13.64-.92,0-1.44-1.84-2.64-.57-.25-.26-.62-.48-.71-.79a.72.72,0,0,1,.68-1c1.59-.08,1.49-1.21,1.52-2.28v0l.72-.49Z"/><path class="cls-7" d="M42.27,57.13l-.05,0a4.85,4.85,0,0,0,.86-.17,1.4,1.4,0,0,1,2.06,1.08A1.25,1.25,0,0,1,44,59.72c-1.14.07-1.6-.64-1.57-1.73A4.19,4.19,0,0,0,42.27,57.13Z"/><path class="cls-6" d="M41.34,51.05l-.52-.45c-.18-.29-.36-.57-.53-.86a4.93,4.93,0,0,0-.43-2.48c.16-.84-.39-2.13,1.27-2.06C41,47.15,41.71,49.08,41.34,51.05Z"/><path class="cls-8" d="M40.53,65.8c.37,3,.37,3,1.47,4.19a2.25,2.25,0,0,1-2.63-.67V68.13c.89-.5.3-1.39.56-2.06Z"/><path class="cls-7" d="M31.59,42.58l.55,1c0,.24,0,.49,0,.73L32,45.61a.88.88,0,0,0-.42.11c-.87-.1-1.87,0-2-1.27C29.43,43,30.64,42.91,31.59,42.58Z"/><path class="cls-6" d="M32.35,54.35H32.3c-.43-.12-.82-.18-.72.49v0c-.23-.28-.51-.16-.8-.12a1.3,1.3,0,0,1-1.67-1.09,1.05,1.05,0,0,1,.69-1.27,1.19,1.19,0,0,1,1.7.94c.14.5.35.81.92.65l0,0Z"/><path class="cls-3" d="M57.26,49.8l.46.45c.33.59.06,1.2.08,1.81-.73.34-1.39,1.06-2.28.37C55.48,51.14,54.88,49.49,57.26,49.8Z"/><path class="cls-8" d="M55.52,52.43c.89.69,1.55,0,2.28-.37a1.07,1.07,0,0,1,.65,1.63c-.65,1.21-1.64.06-2.44.28C55.39,53.6,55.47,53,55.52,52.43Z"/><path class="cls-5" d="M33.54,61.9c0,.76-.26,1.24-.92,1.18-1.38-.13-.78-1.4-1.16-2.11s.06-1.07.37-1C32.86,60.2,33,61.33,33.54,61.9Z"/><path class="cls-7" d="M63.34,14.52c0-.68.07-1.37.11-2,1-.17,2-.24,2,1.07S64.21,14.55,63.34,14.52Z"/><path class="cls-8" d="M32.38,53.88l0,0V48.22c1.28.57.93,1.34,1.06,1.91l-.06,1.37C33.08,52.29,33.44,53.4,32.38,53.88Z"/><path class="cls-7" d="M38.28,64.88c-.34-.4-1-.3-1.21-.91a1.12,1.12,0,0,1,.42-1.38,1,1,0,0,1,1.26.06A.85.85,0,0,1,39,63.84c-.23.37-.52.7-.78,1Z"/><path class="cls-7" d="M40.21,64.6c.29-.39.89-.3,1-.9a1.2,1.2,0,0,0-.36-1.38.8.8,0,0,0-1.09.06,1,1,0,0,0-.23,1.19c.2.37.45.7.68,1.05Z"/><path class="cls-7" d="M56.66,60.12c.29-.4.9-.3,1-.91a1.2,1.2,0,0,0-.36-1.38.81.81,0,0,0-1.09.06A.94.94,0,0,0,56,59.08a11.63,11.63,0,0,0,.67,1.05Z"/><path class="cls-6" d="M38.28,64.88h-.05c.53.51,1.06.17,1.59,0l.82,0c0,.29-.07.59-.11.89l-.59.27a1.43,1.43,0,0,0-.43.1c-.6.36-.9,1.75-1.89.73C36.78,66,37.79,65.47,38.28,64.88Z"/><path class="cls-3" d="M52.93,50.69l1.16-.44c2.2,1.63.22,2-.79,2.73A1.72,1.72,0,0,1,52.93,50.69Z"/><path class="cls-6" d="M44,65.84c-.19.79-.65,1.07-1.34.88-.51-.14-1.06-.49-.92-1a1.24,1.24,0,0,1,1.3-1A1,1,0,0,1,44,65.84Z"/><path class="cls-7" d="M30.66,39.18c.14-1,.87-.92,1.56-.84a.74.74,0,0,1,.7.76c.09,1-.77,1.17-1.43,1.5C31.3,40.07,31.74,39.18,30.66,39.18Z"/><path class="cls-5" d="M41.68,62.13v-1c.68-.15,1.35-.81,2-.07a.8.8,0,0,1-.06,1.19C43,62.93,42.31,62.61,41.68,62.13Z"/><path class="cls-6" d="M39.38,68.13v1.19c-.62.15-1.3.51-1.72-.28a.86.86,0,0,1,.07-.81A1,1,0,0,1,39.38,68.13Z"/><path class="cls-8" d="M40.64,64.91l-.82,0c.19-.32,0-.93.6-.9C40.51,64,40.57,64.58,40.64,64.91Z"/><path class="cls-9" d="M36.25,44.76l-1,.9c0-.27,0-.53,0-.8l.86-.27Z"/><path class="cls-10" d="M50.44,31c-.08.33-.15.65-.22,1l-.74-.06C49.66,31.45,49.86,31,50.44,31Z"/><path class="cls-7" d="M30.6,31.82c0,1.52,1.33,3.32-1.1,4.5.08-1.23.16-2.36.24-3.49C29.84,32.34,30,31.91,30.6,31.82Z"/><path class="cls-7" d="M27.44,36c.31.08.81,0,.71.52s-.66.35-1,.42A.88.88,0,0,1,27.44,36Z"/><path class="cls-6" d="M39.94,40.14c-.07-.58-.13-1.15-.2-1.73.11-.33.08-.85.55-.81s.66.69.92,1.1l0,1.27Z"/><path class="cls-10" d="M41.24,40l0-1.27c.54.29,1.26.62,1.19,1.21S41.66,40,41.24,40Z"/><path class="cls-11" d="M35,40.4c-.24-.29-1.09,0-.81-.65.15-.32.82-.13,1.12.29Z"/><path class="cls-10" d="M48.11,26.85l-.08.39c0-.12.07-.24.1-.37Z"/><path class="cls-10" d="M53.64,27.78c0,.37-.22.54-.48.71C52.92,28,53.12,27.77,53.64,27.78Z"/><path class="cls-10" d="M53.93,27.32c.08.27,0,.42-.31.48C53.46,27.48,53.76,27.44,53.93,27.32Z"/><path class="cls-12" d="M31.58,54.83c-.1-.67.29-.61.72-.49Z"/><polygon class="cls-13" points="33.55 89.82 44.45 89.82 39 80.39 33.55 89.82"/><text class="cls-14" transform="translate(11.33 107.35)">阿勃勒</text></g></g></svg>