<svg xmlns="http://www.w3.org/2000/svg" viewBox="0 0 78 115.03"><defs><style>.cls-1,.cls-4,.cls-5{fill:#534741;}.cls-1{stroke:#736357;stroke-miterlimit:10;stroke-width:3px;}.cls-2{fill:#fea91c;}.cls-3{fill:#f2820c;}.cls-5{font-size:18px;font-family:KozGoPro-Bold-90ms-RKSJ-H, Kozuka Gothic Pro;letter-spacing:0.03em;}</style></defs><g id="圖層_2" data-name="圖層 2"><g id="圖層_1-2" data-name="圖層 1"><rect class="cls-1" x="1.5" y="1.5" width="75" height="75" rx="19.06"/><path class="cls-2" d="M41.11,65.5H37c-8.18-.88-14.59-4.68-18.94-11.78a17,17,0,0,1-2.44-8.93c0-3.51.17-7,.17-10.54a52.78,52.78,0,0,0-1-10.94,5.85,5.85,0,0,0-1.44-3.1c-.67-.67-1.14-1.4-.64-2.37a2,2,0,0,1,2.27-1c6.45.6,12.44,2.27,17,7.36-.5,1-.05,1.89.12,2.82q1.49,7.94,3,15.86,1.43,7.64,2.85,15.27c.12.65.39,1.3,1,1.3s.88-.66,1-1.31c.49-2.53.93-5.06,1.54-7.55.92-3.74,1.56-7.54,2.21-11.33.79-4.59,1.72-9.15,2.61-13.72a1.79,1.79,0,0,0-.15-1.4c4.17-4.67,9.6-6.5,15.59-7.11a12.91,12.91,0,0,1,2.15-.18,1.54,1.54,0,0,1,1.42,1,1.65,1.65,0,0,1-.18,1.83c-2.09,2.08-2.24,4.86-2.54,7.51a99.25,99.25,0,0,0-.23,13.58,36,36,0,0,1-.23,6.88,19,19,0,0,1-5,10,25.26,25.26,0,0,1-14.69,7.79A11.55,11.55,0,0,1,41.11,65.5Z"/><path class="cls-3" d="M49.38,18.74a2.16,2.16,0,0,1,.2,1.84c-1.28,6-2.64,12.05-3.78,18.11-.93,5-1.87,10-3.2,15-.88,3.28-1.53,6.62-2.23,10-.18.86-.55,1.73-1.46,1.73s-1.3-.85-1.48-1.71q-2-10.08-4.14-20.15c-1.44-7-2.91-13.95-4.34-20.92-.25-1.23-.91-2.45-.17-3.72,2-.95,3.37-2.58,5.08-3.85,4.59-3.4,6.43-3.3,10.8.36C46.13,16.56,47.34,18.16,49.38,18.74Z"/><polygon class="cls-4" points="33.55 90.23 44.45 90.23 39 80.79 33.55 90.23"/><text class="cls-5" transform="translate(11.33 107.76)">鬱金香</text></g></g></svg>