<svg xmlns="http://www.w3.org/2000/svg" viewBox="0 0 78 115.03"><defs><style>.cls-1,.cls-6,.cls-7{fill:#534741;}.cls-1{stroke:#736357;stroke-miterlimit:10;stroke-width:3px;}.cls-2{fill:#58ad7a;}.cls-2,.cls-3,.cls-4,.cls-5{fill-rule:evenodd;}.cls-3{fill:#814c3c;}.cls-4{fill:#cfac26;}.cls-5{fill:#c29b00;}.cls-7{font-size:18px;font-family:KozGoPro-Bold-90ms-RKSJ-H, Kozuka Gothic Pro;letter-spacing:0.03em;}</style></defs><g id="圖層_2" data-name="圖層 2"><g id="圖層_1-2" data-name="圖層 1"><rect class="cls-1" x="1.5" y="1.5" width="75" height="75" rx="19.06"/><path class="cls-2" d="M56.9,14.4C73.27,30.57,62.81,50.75,39,54.61S6.11,36.85,16.53,21.53,48.53,8.17,56.9,14.4Z"/><path class="cls-3" d="M34.71,70.84c1.57-7.75-.85-23.22,3.29-23.22,3.09,0,1.72,15.26,2.92,23.22Z"/><path class="cls-3" d="M24.45,40.69c2.95-.92-.72,5.12,5.83,6.41,7.49,1.48,11.62-.11,15.28-1.16,3.11-.89,1.42-8.46,4.56-7.15,2.63,1.1,1.27,8.44-3.1,10.22C41.66,51.2,31.68,51.2,27.6,50S22.14,41.41,24.45,40.69Z"/><path class="cls-3" d="M36.54,48.6a31.07,31.07,0,0,0,4.18-4.23c1.74-1.95-2.55-6.36.13-6.84,2.24-.39,4.37,5.19,2.14,8.3a24.07,24.07,0,0,1-5.15,4.89Z"/><path class="cls-3" d="M33.28,38.14c2.66.82-3,3.47,1.24,7.78a30.9,30.9,0,0,0,2.84,2.53L35.82,50.8a26.43,26.43,0,0,1-4.73-4.08C28.6,43.73,31.21,37.5,33.28,38.14Z"/><path class="cls-4" d="M29.14,15.47c1.82,1.8.66,4-2,4.48s-3.67-2-2.5-3.69A3.4,3.4,0,0,1,29.14,15.47Z"/><path class="cls-4" d="M45.22,23c.21-1.49,1.64-1.69,2.74-.56a1.36,1.36,0,0,1-.85,2.45A2,2,0,0,1,45.22,23Z"/><path class="cls-4" d="M14.57,27.94c.21-1.48,1.64-1.69,2.74-.56a1.36,1.36,0,0,1-.84,2.45A2,2,0,0,1,14.57,27.94Z"/><path class="cls-5" d="M57.38,21c-1.51,2.08-3.84,1.19-4.61-1.44s1.44-4,3.25-3A3.57,3.57,0,0,1,57.38,21Z"/><path class="cls-5" d="M49.62,19.53c-2.36.95-3.88-1.07-3.17-3.72s3.28-2.59,4.32-.8A3.59,3.59,0,0,1,49.62,19.53Z"/><path class="cls-5" d="M40.94,22.79c-1.51,2.09-3.85,1.2-4.61-1.43s1.44-4,3.25-3A3.57,3.57,0,0,1,40.94,22.79Z"/><path class="cls-5" d="M24.16,30.07c-2.43-.75-2.4-3.3-.23-4.92s4.15.05,3.88,2.11A3.47,3.47,0,0,1,24.16,30.07Z"/><path class="cls-5" d="M13.36,33.76c.26-2.58,2.71-3,4.69-1.17s.74,4.17-1.29,4.29A3.49,3.49,0,0,1,13.36,33.76Z"/><path class="cls-4" d="M61.49,24.1c1.83,1.8.66,4-2,4.48s-3.66-2-2.5-3.69A3.39,3.39,0,0,1,61.49,24.1Z"/><path class="cls-4" d="M38.34,12.6c1.82,1.8.66,4-2,4.48s-3.67-2-2.5-3.69A3.39,3.39,0,0,1,38.34,12.6Z"/><path class="cls-5" d="M60.51,33.65c-1.46-.16-1.72-1.61-.66-2.78a1.33,1.33,0,0,1,2.43.77A2,2,0,0,1,60.51,33.65Z"/><path class="cls-5" d="M31.81,21.41c-1.46-.15-1.72-1.61-.66-2.77a1.32,1.32,0,0,1,2.43.76A2,2,0,0,1,31.81,21.41Z"/><path class="cls-4" d="M41.09,17.57c-1-1.12-.22-2.37,1.33-2.51a1.36,1.36,0,0,1,1.3,2.24A2,2,0,0,1,41.09,17.57Z"/><path class="cls-4" d="M51.72,26.72c-1-1.12-.22-2.37,1.33-2.51a1.36,1.36,0,0,1,1.3,2.24A2,2,0,0,1,51.72,26.72Z"/><path class="cls-5" d="M24.05,23.87c-1.51,2.08-3.85,1.2-4.61-1.44s1.44-4,3.25-3A3.58,3.58,0,0,1,24.05,23.87Z"/><polygon class="cls-6" points="33.55 90.23 44.45 90.23 39 80.79 33.55 90.23"/><text class="cls-7" transform="translate(11.32 107.76)">欒樹花</text></g></g></svg>