<svg xmlns="http://www.w3.org/2000/svg" viewBox="0 0 78 114.62"><defs><style>.cls-1,.cls-6,.cls-7{fill:#534741;}.cls-1{stroke:#736357;stroke-miterlimit:10;stroke-width:3px;}.cls-2{fill:#f4cc5d;}.cls-3{fill:#f7f7f7;}.cls-4{fill:#f9f9f9;}.cls-5{fill:#f8f8f8;}.cls-7{font-size:18px;font-family:KozGoPro-Bold-90ms-RKSJ-H, Kozuka Gothic Pro;letter-spacing:0.03em;}</style></defs><g id="圖層_2" data-name="圖層 2"><g id="圖層_1-2" data-name="圖層 1"><rect class="cls-1" x="1.5" y="1.5" width="75" height="75" rx="19.06"/><path class="cls-2" d="M44.92,50c1.06,3.31,2.3,6.56,3,9.95A8.18,8.18,0,0,1,48,63.72c-.61,2.38-2.06,3-4.21,1.77a14.47,14.47,0,0,1-2.1-1.56c-.64-.54-1.21-1.14-1.87-1.78a32.05,32.05,0,0,1-1.78,3.19c-1.69,2.23-3.28,2.16-4.8-.18a7.4,7.4,0,0,1-1-6.61c.79-2.52,1.67-5,2.61-7.49.15-.4.48-.79.29-1.37-.48.23-.55.69-.73,1.05A105.26,105.26,0,0,1,29.36,60a9.3,9.3,0,0,1-3.53,3.29c-1.63.85-2.82.4-3.52-1.29a11,11,0,0,1-.7-4c0-1,0-2,0-3a24.15,24.15,0,0,1-4.52,1,7.06,7.06,0,0,1-1.38,0c-1.16-.17-1.62-.81-1.25-1.93a9.33,9.33,0,0,1,3.82-5.07,97.39,97.39,0,0,1,11-5.69c.37-.17.72-.36,1.16-.58-.64-.39-1.07,0-1.49.16a97.78,97.78,0,0,1-12.51,3.76,9.94,9.94,0,0,1-5.68-.69C9.22,45.25,9,44.13,10,42.83a17.65,17.65,0,0,1,5-3.69c-.78-.55-1.51-1.06-2.23-1.59A10.73,10.73,0,0,1,10,34.74c-.87-1.37-.57-2.48.93-3.13A9.44,9.44,0,0,1,16.85,31a105.11,105.11,0,0,1,11.42,3.47,2.46,2.46,0,0,0,1.38.33c-.25-.49-.74-.54-1.11-.71-3.28-1.58-6.57-3.13-9.71-5a9.67,9.67,0,0,1-3.55-3.26c-1.23-2.06-.69-3.37,1.66-3.94a16.65,16.65,0,0,1,5.27-.19c.87.07,1-.18.8-.94a13.67,13.67,0,0,1-.37-4.68c.23-2.08,1.34-2.63,3.2-1.6a9.53,9.53,0,0,1,3.5,3.32c1.74,2.74,3.19,5.62,4.64,8.5.18.36.39.7.61,1.11.36-.58,0-1-.14-1.36-1.16-3.4-2.53-6.73-3.1-10.31a3.06,3.06,0,0,1-.1-.73c.15-1.45.23-3,1.75-3.75s2.45.4,3.46,1.18a20.36,20.36,0,0,1,3,3.2,19.47,19.47,0,0,1,2.61-3c1-.88,2.11-2.06,3.63-1.36s1.94,2.33,1.92,3.9a19.5,19.5,0,0,1-1.36,5.77c-.65,2-1.39,3.92-2.12,6,.66-.06.7-.6.87-.95,1.44-2.85,2.86-5.7,4.58-8.4a8.51,8.51,0,0,1,3.82-3.3c1.74-.77,2.93-.25,3.56,1.52a9,9,0,0,1,.48,3.17v2.5a16.21,16.21,0,0,1,5.06-.54c2,.17,2.72,1.25,2,3a9.52,9.52,0,0,1-3.92,4.72c-3,1.79-6.18,3.28-9.36,4.81.59.32,1.08,0,1.57-.18a61.28,61.28,0,0,1,9.79-2.74,7,7,0,0,1,3.69.55c1.65.68,2,1.83,1.16,3.39a12.18,12.18,0,0,1-3,3.29l-.71.61a22.24,22.24,0,0,1,3.82,3.07c1.87,2.1,1.44,3.63-1.26,4.51a9.49,9.49,0,0,1-5.46.16c-2.69-.68-5.31-1.55-7.93-2.42a1.93,1.93,0,0,0-1.43-.12c3.36,1.58,6.7,3.07,9.88,4.89A7.9,7.9,0,0,1,65,53.07c.79,2.45-.09,3.67-2.72,3.63a15.49,15.49,0,0,1-2.25-.25c-.69-.11-1.36-.29-2.16-.47.16,1,.37,1.86.45,2.75.14,1.45.35,3-1,4s-2.72.18-4.05-.35a6.27,6.27,0,0,1-2.9-2.65,66.39,66.39,0,0,1-4-7.7c-.34-.7-.67-1.41-1-2.11.52-.1.86.28,1.27.46,1.32.58,1.8.24,1.62-1.2-.1-.8-.31-1.58-.49-2.49a12.64,12.64,0,0,0,3.12.72c.74,0,1-.29.8-1A3.41,3.41,0,0,0,50,44.33c-2-1.12-4.05-2-6.08-3-.46-.22-.8-.23-1,.23s-1.18.58-.7,1.48C43.39,45.25,44,47.68,44.92,50Zm-1-12.79h-.27l0,.1.24-.13c-.28.84.16,1.7-.06,2.55-.1.4.34.43.59.51,2,.65,3.94,1.4,6,1.89A4.31,4.31,0,0,0,52.64,42c.83-.24,1-.67.37-1.33a13,13,0,0,0-2.58-1.9,11.61,11.61,0,0,0,1.15-.9c.58-.6,1.75-1.12,1.28-2s-1.64-.67-2.54-.41C48.55,35.93,46.8,36.51,45,37,44.67,37.15,44.31,37.55,43.88,37.17Zm-.55-.65c0,.1,0,.23.14.21s0-.13,0-.2c.54-.69,1.42-.83,2.14-1.21a27.06,27.06,0,0,0,4.6-2.54c.63-.52,1.42-1.32,1.09-2.07s-1.35-.31-2.07-.18c-1.55.27-1.51.28-1.49-1.25,0-.84.24-2-.67-2.32s-1.68.61-2.15,1.41c-.8,1.35-1.48,2.78-2.29,4.12s-1.45,2.71.41,3.79A2,2,0,0,1,43.33,36.52ZM28.08,39.13a12.36,12.36,0,0,0-3.11,2c-.45.43-.47.73.2.95a5.3,5.3,0,0,0,3,.08c2.15-.56,4.24-1.29,6.32-2,.42-.15.85-.27.65-.83s.46-1.31-.6-1.62c-2.17-.63-4.3-1.38-6.45-2a4.55,4.55,0,0,0-2.61,0c-.8.23-1,.61-.39,1.29A16.44,16.44,0,0,0,28.08,39.13Zm2.78,7.1a16.36,16.36,0,0,0-.08,2.4c.07.78-.16,2,.72,2.19s1.6-.73,2.1-1.49A66.6,66.6,0,0,0,37,43.1c.48-.94-.61-1-.86-1.52s-.6-.43-1-.22c-2,.93-3.95,1.82-5.83,2.91a4.54,4.54,0,0,0-1.81,1.85c-.13.25-.4.53-.2.79s.55.1.84.08A19,19,0,0,0,30.86,46.23ZM39.05,50c.57.42,1.15.88,1.76,1.3s1.07,1.22,1.81.78.49-1.25.41-2a4.2,4.2,0,0,0-.17-.72c-.5-1.58-1-3.14-1.49-4.72-.3-1.07-.62-1.91-2-1.49-.41.12-.91-.28-1.18.47a48.07,48.07,0,0,0-2.07,5.83,3.37,3.37,0,0,0,.72,2.77c.37.53.74.41,1.11,0A8.42,8.42,0,0,0,39.05,50Zm-9.4-19.18c.14,0,0,0-.11,0-.77.08-1.89-.29-2.16.53s.67,1.5,1.41,2A63,63,0,0,0,35,36.46c.31.15.68.31.85-.12.24-.58,1.37-.72,1-1.51a40,40,0,0,0-3.64-6.75c-.4-.56-1.06-1.31-1.67-1.07s-.26,1.19-.19,1.84c0,.12,0,.24.05.37C31.63,30.84,31.63,30.84,29.65,30.77Zm9.59-2.56A10.83,10.83,0,0,0,37.3,26c-.31-.25-.64-.67-1.07-.47s-.51.73-.53,1.18a3.49,3.49,0,0,0,.07.86c.55,2.25,1.42,4.4,2.18,6.58.17.49.49.59.85.42.56-.24,1.38.52,1.71-.45.72-2.11,1.61-4.16,2.14-6.33a2.64,2.64,0,0,0,0-1.69c-.28-.68-.66-.8-1.24-.36A10.26,10.26,0,0,0,39.24,28.21Z"/><path class="cls-3" d="M44.92,50c-1-2.28-1.53-4.71-2.72-6.9-.48-.9.45-1,.7-1.48s.58-.45,1-.23c2,1,4.11,1.86,6.08,3a3.41,3.41,0,0,1,1.64,2.1c.2.71-.06,1-.8,1a12.64,12.64,0,0,1-3.12-.72c.18.91.39,1.69.49,2.49.18,1.44-.3,1.78-1.62,1.2-.41-.18-.75-.56-1.27-.46Z"/><path class="cls-4" d="M28.08,39.13a16.44,16.44,0,0,1-3-2.23c-.64-.68-.41-1.06.39-1.29a4.55,4.55,0,0,1,2.61,0c2.15.67,4.28,1.42,6.45,2,1.06.31.41,1.09.6,1.62s-.23.68-.65.83c-2.08.74-4.17,1.47-6.32,2a5.3,5.3,0,0,1-3-.08c-.67-.22-.65-.52-.2-.95A12.36,12.36,0,0,1,28.08,39.13Z"/><path class="cls-4" d="M43.33,36.52a2,2,0,0,0-.27-.24c-1.86-1.08-1.27-2.38-.41-3.79s1.49-2.77,2.29-4.12c.47-.8,1.26-1.68,2.15-1.41s.68,1.48.67,2.32c0,1.53-.06,1.52,1.49,1.25.72-.13,1.75-.57,2.07.18s-.46,1.55-1.09,2.07a27.06,27.06,0,0,1-4.6,2.54c-.72.38-1.6.52-2.14,1.21Z"/><path class="cls-4" d="M30.86,46.23a19,19,0,0,1-2.81.76c-.29,0-.65.16-.84-.08s.07-.54.2-.79a4.54,4.54,0,0,1,1.81-1.85c1.88-1.09,3.87-2,5.83-2.91.44-.21.81-.27,1,.22s1.34.58.86,1.52a66.6,66.6,0,0,1-3.35,6.23c-.5.76-1.15,1.74-2.1,1.49s-.65-1.41-.72-2.19A16.36,16.36,0,0,1,30.86,46.23Z"/><path class="cls-4" d="M39.05,50A8.42,8.42,0,0,1,37.9,52.2c-.37.43-.74.55-1.11,0a3.37,3.37,0,0,1-.72-2.77,48.07,48.07,0,0,1,2.07-5.83c.27-.75.77-.35,1.18-.47,1.43-.42,1.75.42,2,1.49.45,1.58,1,3.14,1.49,4.72a4.2,4.2,0,0,1,.17.72c.08.7.23,1.57-.41,2s-1.25-.39-1.81-.78S39.62,50.37,39.05,50Z"/><path class="cls-5" d="M43.88,37.17c.43.38.79,0,1.15-.13,1.77-.53,3.52-1.11,5.29-1.62.9-.26,2.1-.42,2.54.41s-.7,1.41-1.28,2a11.61,11.61,0,0,1-1.15.9A13,13,0,0,1,53,40.64c.62.66.46,1.09-.37,1.33a4.31,4.31,0,0,1-2.23.12c-2-.49-4-1.24-6-1.89-.25-.08-.69-.11-.59-.51.22-.85-.22-1.71.06-2.55Z"/><path class="cls-4" d="M29.65,30.77c2,.07,2,.07,1.76-1.55,0-.13,0-.25-.05-.37-.07-.65-.39-1.59.19-1.84s1.27.51,1.67,1.07a40,40,0,0,1,3.64,6.75c.38.79-.75.93-1,1.51-.17.43-.54.27-.85.12a63,63,0,0,1-6.23-3.19c-.74-.46-1.7-1.07-1.41-2s1.39-.45,2.16-.53C29.66,30.76,29.79,30.77,29.65,30.77Z"/><path class="cls-5" d="M39.24,28.21a10.26,10.26,0,0,1,2.13-2.51c.58-.44,1-.32,1.24.36a2.64,2.64,0,0,1,0,1.69c-.53,2.17-1.42,4.22-2.14,6.33-.33,1-1.15.21-1.71.45-.36.17-.68.07-.85-.42-.76-2.18-1.63-4.33-2.18-6.58a3.49,3.49,0,0,1-.07-.86c0-.45.07-1,.53-1.18s.76.22,1.07.47A10.83,10.83,0,0,1,39.24,28.21Z"/><path class="cls-5" d="M43.33,36.52h.16c0,.07,0,.2,0,.2S43.34,36.62,43.33,36.52Z"/><path class="cls-5" d="M43.89,37.14l-.24.13,0-.1h.27Z"/><polygon class="cls-6" points="33.55 89.82 44.45 89.82 39 80.39 33.55 89.82"/><text class="cls-7" transform="translate(11.33 107.35)">波斯菊</text></g></g></svg>