<svg xmlns="http://www.w3.org/2000/svg" viewBox="0 0 78 115.03"><defs><style>.cls-1,.cls-5,.cls-6{fill:#534741;}.cls-1{stroke:#736357;}.cls-1,.cls-3{stroke-miterlimit:10;stroke-width:3px;}.cls-2{fill:#e4442d;}.cls-3,.cls-4{fill:#f8ad3b;}.cls-3{stroke:#e4442d;}.cls-6{font-size:18px;font-family:KozGoPro-Bold-90ms-RKSJ-H, Kozuka Gothic Pro;letter-spacing:0.03em;}</style></defs><g id="圖層_2" data-name="圖層 2"><g id="圖層_1-2" data-name="圖層 1"><rect class="cls-1" x="1.5" y="1.5" width="75" height="75" rx="19.06"/><path class="cls-2" d="M53.3,57.61C50.92,59.32,43.08,56,40.8,55.17a32,32,0,0,1-11.36-6.66,44.21,44.21,0,0,1-7.26-8.86c-1.93-2.9-3.72-6.47-6.48-8.65-.55-.43-2.7.24-2.07.87,2.66,2.68,5.25,3.88,8.73,5.34,3.81,1.6,7.3,3.86,11.23,5.21A36.36,36.36,0,0,1,44.71,49a17.61,17.61,0,0,1,4.06,4.42c1.08,1.74,2.8,3.67,3.34,5.61.21.77,2.44.18,2.22-.6-.43-1.56-1.39-2.52-2.28-3.84-1.22-1.78-2-3.48-3.58-5a41.52,41.52,0,0,0-8.75-6.5c-3.82-2-8.07-3.27-12-5.23-4.32-2.18-8.57-3.33-12-6.84l-2.07.87c3.6,2.84,5.79,7.78,8.41,11.47A35.78,35.78,0,0,0,33.38,53.87c4.17,2.37,9.28,3.78,14,4.8,2.14.47,5.39,1,7.34-.4,1.22-.87-.68-1.16-1.38-.66Z"/><path class="cls-2" d="M54.1,57.66c-2.4-1.19-4.47-5.17-6-7.28a77.06,77.06,0,0,1-5.9-9.79,54.53,54.53,0,0,1-5.56-20.83c-.06-.73-2.3-.26-2.23.59a56,56,0,0,0,6.84,23.22,77.27,77.27,0,0,0,5.59,8.79c1.51,2,3.14,5.22,5.46,6.38.65.32,2.69-.62,1.77-1.08Z"/><path class="cls-2" d="M50.75,55.34a5.16,5.16,0,0,0-1.64-1.87c-1.38-1.32-2.65-2.73-4-4.09-3.25-3.29-6.61-6.26-9.56-9.84C29,31.59,23.8,23.1,21.05,13.1c-.21-.77-2.44-.18-2.23.6A68,68,0,0,0,31.7,38.21a85.4,85.4,0,0,0,9,9.87c1.79,1.64,3.35,3.45,5.08,5.15.79.78,2.34,1.65,2.7,2.71.26.77,2.48.14,2.23-.6Z"/><path class="cls-2" d="M64.44,67.85c-7.78-3.28-14.5-9.59-17.22-17.59-.18-.52-1.69,1.14-1.52,1.64,2.73,8,9.56,14.45,17.36,17.74.5.21,1.88-1.58,1.38-1.79Z"/><path class="cls-2" d="M15,32.36l3,4.37,2.06,3.44a76.9,76.9,0,0,0,9.6,11.74c.58.53,4.13,2.65,5.62,3.61a8.9,8.9,0,0,0,2.43,1l16.38,4A.39.39,0,0,0,54.5,60L43.44,46.54A13.74,13.74,0,0,0,38.66,43Z"/><path class="cls-3" d="M21.24,50.65l3,2.19,2.16,1.8a53.48,53.48,0,0,0,9.07,5.57c.5.21,3.34.8,4.55,1.09a6.06,6.06,0,0,0,1.85.13l11.78-1.11a.27.27,0,0,0,.12-.5L43.35,53.47a9.66,9.66,0,0,0-4-1.25Z"/><path class="cls-3" d="M46.5,12.46l2.18,4.79,1.88,3.5a75.55,75.55,0,0,1,5.13,14.13c.15.76.16,4.86.22,6.62a8.81,8.81,0,0,1-.34,2.6l-4.88,16a.39.39,0,0,1-.73,0L44.14,43.87A13.63,13.63,0,0,1,43.53,38Z"/><path class="cls-2" d="M62,27.78l.24,3.71.36,2.79a53.58,53.58,0,0,1-.17,10.64c-.09.54-1.11,3.25-1.52,4.43A5.59,5.59,0,0,1,60,51l-7.25,9.35a.27.27,0,0,1-.49-.17L52.51,48a9.65,9.65,0,0,1,1.08-4Z"/><rect class="cls-4" x="15.87" y="8.38" width="8.5" height="8.05" rx="4.03"/><rect class="cls-4" x="31.53" y="15.32" width="7.83" height="7.16" rx="3.58"/><polygon class="cls-5" points="33.55 90.23 44.45 90.23 39 80.79 33.55 90.23"/><text class="cls-6" transform="translate(11.32 107.76)">金針花</text></g></g></svg>